<?xml version="1.0" encoding="UTF-8" standalone="no"?>
<!-- Created with Inkscape (http://www.inkscape.org/) -->

<svg
   xmlns:dc="http://purl.org/dc/elements/1.1/"
   xmlns:cc="http://creativecommons.org/ns#"
   xmlns:rdf="http://www.w3.org/1999/02/22-rdf-syntax-ns#"
   xmlns:svg="http://www.w3.org/2000/svg"
   xmlns="http://www.w3.org/2000/svg"
   xmlns:sodipodi="http://sodipodi.sourceforge.net/DTD/sodipodi-0.dtd"
   xmlns:inkscape="http://www.inkscape.org/namespaces/inkscape"
   width="48.189377"
   height="29.120001"
   id="svg2"
   sodipodi:version="0.32"
   inkscape:version="0.48.4 r9939"
   version="1.0"
   sodipodi:docname="aspect_sesquiquadrat.svg">
  <defs
     id="defs4" />
  <sodipodi:namedview
     id="base"
     pagecolor="#ffffff"
     bordercolor="#666666"
     borderopacity="1.0"
     gridtolerance="10000"
     guidetolerance="10"
     objecttolerance="10"
     inkscape:pageopacity="0.0"
     inkscape:pageshadow="2"
     inkscape:zoom="1.979899"
     inkscape:cx="186.197"
     inkscape:cy="-44.643848"
     inkscape:document-units="px"
     inkscape:current-layer="layer1"
     inkscape:window-width="1920"
     inkscape:window-height="1021"
     inkscape:window-x="0"
     inkscape:window-y="27"
     showgrid="false"
     fit-margin-top="0"
     fit-margin-left="0"
     fit-margin-right="0"
     fit-margin-bottom="0"
     inkscape:window-maximized="1" />
  <metadata
     id="metadata7">
    <rdf:RDF>
      <cc:Work
         rdf:about="">
        <dc:format>image/svg+xml</dc:format>
        <dc:type
           rdf:resource="http://purl.org/dc/dcmitype/StillImage" />
        <dc:title></dc:title>
      </cc:Work>
    </rdf:RDF>
  </metadata>
  <g
     inkscape:label="Layer 1"
     inkscape:groupmode="layer"
     id="layer1"
     transform="translate(-267.98481,-376.81527)">
    <g
       transform="translate(258.5991,387.1767)"
       style="font-size:40px;font-style:normal;font-variant:normal;font-weight:normal;font-stretch:normal;line-height:125%;letter-spacing:0px;word-spacing:0px;fill:#000000;fill-opacity:1;stroke:none;font-family:Cantarell;-inkscape-font-specification:Cantarell"
       id="text2990">
      <path
         d="m 17.065714,15.318572 c 4.199996,0 6.24,-3.000005 6.24,-7.3600003 0,-4.3199957 -2.120004,-7.4 -6.28,-7.4 -1.519998,0 -2.920001,0.2800006 -4.32,0.88 l 0,12.6800003 c 1.319999,0.759999 2.360002,1.2 4.36,1.2 m 0.72,2.72 c -1.919998,0 -3.760002,-0.600001 -5.48,-1.72 l -0.56,1.36 -2.3599999,0 0,-26.8400003 3.3199999,0 0,8 c 1.519999,-0.6399994 3.080002,-0.92 4.64,-0.92 2.639998,0 4.840002,0.8400017 6.6,2.56 1.839998,1.8399982 2.76,4.4400033 2.76,7.76 0,5.7599943 -3.040006,9.8000003 -8.92,9.8000003"
         style="font-family:Cantarell;-inkscape-font-specification:Cantarell"
         id="path4137" />
      <path
         d="m 44.015089,-10.361428 c -3.559996,0 -6.520002,1.0800019 -8.84,3.2399997 -2.559997,2.4399976 -4.28,6.28000464 -4.28,10.92 0,4.4399956 1.440002,8.2000023 3.76,10.4800003 2.199998,2.239997 5.280004,3.72 9.36,3.72 3.159997,0 5.840002,-0.880002 8.12,-2.68 l 3.68,3.44 1.76,-1.88 -3.52,-3.48 c 1.959998,-2.479998 2.92,-5.6800042 2.92,-9.5600003 0,-4.23999576 -1.160002,-7.6400026 -3.44,-10.2 -2.079998,-2.2399978 -5.360004,-3.9999997 -9.32,-3.9999997 -0.08,0 -0.16,0 -0.2,0 m 0,2.9199997 c 1.479999,0 2.960002,0.3600008 4.4,1.16 3.319997,1.8799981 5.16,5.36000552 5.16,10.88 0,2.6399974 -0.600001,4.8400018 -1.76,6.6000003 l -5.96,-5.8800003 -2.04,2.12 6.16,5.8000003 c -1.559998,1.279998 -3.480002,1.88 -5.68,1.88 -1.519998,0 -2.920001,-0.400001 -4.24,-1.04 -3.639996,-1.679999 -5.8,-5.4400055 -5.8,-10.6800003 0,-6.1999938 3.680006,-10.7200001 9.76,-10.84"
         style="font-family:Cantarell;-inkscape-font-specification:Cantarell"
         id="path4139" />
    </g>
  </g>
</svg>
