<?xml version="1.0" encoding="UTF-8" standalone="no"?>
<!-- Created with Inkscape (http://www.inkscape.org/) -->

<svg
   xmlns:dc="http://purl.org/dc/elements/1.1/"
   xmlns:cc="http://creativecommons.org/ns#"
   xmlns:rdf="http://www.w3.org/1999/02/22-rdf-syntax-ns#"
   xmlns:svg="http://www.w3.org/2000/svg"
   xmlns="http://www.w3.org/2000/svg"
   xmlns:sodipodi="http://sodipodi.sourceforge.net/DTD/sodipodi-0.dtd"
   xmlns:inkscape="http://www.inkscape.org/namespaces/inkscape"
   width="21.972656"
   height="28.925781"
   id="svg2"
   sodipodi:version="0.32"
   inkscape:version="0.48.4 r9939"
   version="1.0"
   sodipodi:docname="sign_pisces.svg">
  <defs
     id="defs4" />
  <sodipodi:namedview
     id="base"
     pagecolor="#ffffff"
     bordercolor="#666666"
     borderopacity="1.0"
     gridtolerance="10000"
     guidetolerance="10"
     objecttolerance="10"
     inkscape:pageopacity="0.0"
     inkscape:pageshadow="2"
     inkscape:zoom="1.979899"
     inkscape:cx="194.34479"
     inkscape:cy="-145.1077"
     inkscape:document-units="px"
     inkscape:current-layer="layer1"
     inkscape:window-width="1920"
     inkscape:window-height="1021"
     inkscape:window-x="0"
     inkscape:window-y="27"
     showgrid="false"
     fit-margin-top="0"
     fit-margin-left="0"
     fit-margin-right="0"
     fit-margin-bottom="0"
     inkscape:window-maximized="1" />
  <metadata
     id="metadata7">
    <rdf:RDF>
      <cc:Work
         rdf:about="">
        <dc:format>image/svg+xml</dc:format>
        <dc:type
           rdf:resource="http://purl.org/dc/dcmitype/StillImage" />
        <dc:title></dc:title>
      </cc:Work>
    </rdf:RDF>
  </metadata>
  <g
     inkscape:label="Layer 1"
     inkscape:groupmode="layer"
     id="layer1"
     transform="translate(-267.82622,-375.98808)">
    <g
       transform="translate(258.5991,387.1767)"
       style="font-size:40px;font-style:normal;font-variant:normal;font-weight:normal;font-stretch:normal;line-height:125%;letter-spacing:0px;word-spacing:0px;fill:#000000;fill-opacity:1;stroke:none;font-family:Cantarell;-inkscape-font-specification:Cantarell"
       id="text2990">
      <path
         d="m 19.402902,0.82310295 c -1.86199,1.686e-5 -3.45053,0.65105785 -4.765625,1.95312505 -1.30209,1.3020969 -1.953131,2.890637 -1.953125,4.765625 -6e-6,1.8489666 0.651035,3.430996 1.953125,4.746094 1.315095,1.302087 2.903635,1.953128 4.765625,1.953125 1.848944,3e-6 3.424463,-0.651038 4.726562,-1.953125 C 25.44455,10.972849 26.102101,9.3908196 26.10212,7.541853 26.102101,5.666865 25.45106,4.0783249 24.148995,2.776228 22.859917,1.4741608 21.277887,0.82311981 19.402902,0.82310295 m 6.523437,-1.15234375 c 0.247377,0.20835113 0.488262,0.43621549 0.722656,0.68359375 1.979145,1.99220285 2.968728,4.39454415 2.96875,7.20703125 -2.2e-5,2.8125078 -0.996115,5.2148488 -2.988281,7.2070308 -1.992205,1.979168 -4.401057,2.96875 -7.226562,2.96875 -2.799489,0 -5.19532,-0.989582 -7.1875,-2.96875 C 10.223211,12.776233 9.227118,10.373892 9.2271204,7.5613842 9.227118,4.7488971 10.21019,2.3465558 12.176339,0.35435295 14.155498,-1.6378152 16.56435,-2.633908 19.402902,-2.6339283 c 1.249986,2.03e-5 2.42186,0.1888222 3.515625,0.5664063 l 5.273437,-9.121094 3.007813,1.7382815 -5.273438,9.1210937"
         style="font-family:Cantarell;-inkscape-font-specification:Cantarell"
         id="path3964" />
    </g>
  </g>
</svg>
