<?xml version="1.0" encoding="UTF-8" standalone="no"?>
<!-- Created with Inkscape (http://www.inkscape.org/) -->

<svg
   xmlns:dc="http://purl.org/dc/elements/1.1/"
   xmlns:cc="http://creativecommons.org/ns#"
   xmlns:rdf="http://www.w3.org/1999/02/22-rdf-syntax-ns#"
   xmlns:svg="http://www.w3.org/2000/svg"
   xmlns="http://www.w3.org/2000/svg"
   xmlns:sodipodi="http://sodipodi.sourceforge.net/DTD/sodipodi-0.dtd"
   xmlns:inkscape="http://www.inkscape.org/namespaces/inkscape"
   width="19.121094"
   height="34.277344"
   id="svg2"
   sodipodi:version="0.32"
   inkscape:version="0.48.4 r9939"
   version="1.0"
   sodipodi:docname="symbol_retrograde.svg">
  <defs
     id="defs4" />
  <sodipodi:namedview
     id="base"
     pagecolor="#ffffff"
     bordercolor="#666666"
     borderopacity="1.0"
     gridtolerance="10000"
     guidetolerance="10"
     objecttolerance="10"
     inkscape:pageopacity="0.0"
     inkscape:pageshadow="2"
     inkscape:zoom="1.979899"
     inkscape:cx="314.74277"
     inkscape:cy="-106.81067"
     inkscape:document-units="px"
     inkscape:current-layer="layer1"
     inkscape:window-width="1920"
     inkscape:window-height="1021"
     inkscape:window-x="0"
     inkscape:window-y="27"
     showgrid="false"
     fit-margin-top="0"
     fit-margin-left="0"
     fit-margin-right="0"
     fit-margin-bottom="0"
     inkscape:window-maximized="1" />
  <metadata
     id="metadata7">
    <rdf:RDF>
      <cc:Work
         rdf:about="">
        <dc:format>image/svg+xml</dc:format>
        <dc:type
           rdf:resource="http://purl.org/dc/dcmitype/StillImage" />
        <dc:title></dc:title>
      </cc:Work>
    </rdf:RDF>
  </metadata>
  <g
     inkscape:label="Layer 1"
     inkscape:groupmode="layer"
     id="layer1"
     transform="translate(-272.1231,-375.59746)">
    <g
       transform="translate(258.5991,387.1767)"
       style="font-size:40px;font-style:normal;font-variant:normal;font-weight:normal;font-stretch:normal;line-height:125%;letter-spacing:0px;word-spacing:0px;fill:#000000;fill-opacity:1;stroke:none;font-family:Cantarell;-inkscape-font-specification:Cantarell"
       id="text2990">
      <path
         d="m 23.211495,17.678572 0,5.019531 -3.535156,0 0,-5.019531 -5.3125,0 0,-2.421875 5.3125,0 0,-8.4765628 c 0.52082,0.091157 1.119778,0.1367295 1.796875,0.1367188 2.096338,1.07e-5 3.899721,-0.7031136 5.410156,-2.109375 1.510395,-1.4062358 2.265603,-3.1705569 2.265625,-5.2929688 -2.2e-5,-2.1353964 -0.75523,-3.9452904 -2.265625,-5.4296875 -1.510435,-1.4843499 -3.326839,-2.2265367 -5.449218,-2.2265625 -2.109388,2.58e-5 -3.984386,0.6901293 -5.625,2.0703125 l -2.285157,-2.265625 c 2.187491,-2.1614297 4.824208,-3.2421587 7.910157,-3.2421877 3.09894,2.9e-5 5.742167,1.080758 7.929687,3.2421877 2.187475,2.1614822 3.281224,4.8047087 3.28125,7.9296875 -2.6e-5,3.125015 -1.087264,5.6901166 -3.261719,7.6953125 -1.783875,1.6406338 -3.841164,2.5781328 -6.171875,2.8125003 l 0,5.15625 5.292969,0 0,2.421875 -5.292969,0"
         style="font-family:Cantarell;-inkscape-font-specification:Cantarell"
         id="path3525" />
    </g>
  </g>
</svg>
