<?xml version="1.0" encoding="UTF-8" standalone="no"?>
<!-- Created with Inkscape (http://www.inkscape.org/) -->

<svg
   xmlns:dc="http://purl.org/dc/elements/1.1/"
   xmlns:cc="http://creativecommons.org/ns#"
   xmlns:rdf="http://www.w3.org/1999/02/22-rdf-syntax-ns#"
   xmlns:svg="http://www.w3.org/2000/svg"
   xmlns="http://www.w3.org/2000/svg"
   xmlns:sodipodi="http://sodipodi.sourceforge.net/DTD/sodipodi-0.dtd"
   xmlns:inkscape="http://www.inkscape.org/namespaces/inkscape"
   width="19.121094"
   height="34.277344"
   id="svg2"
   sodipodi:version="0.32"
   inkscape:version="0.48.4 r9939"
   version="1.0"
   sodipodi:docname="comet_ceres.svg">
  <defs
     id="defs4" />
  <sodipodi:namedview
     id="base"
     pagecolor="#ffffff"
     bordercolor="#666666"
     borderopacity="1.0"
     gridtolerance="10000"
     guidetolerance="10"
     objecttolerance="10"
     inkscape:pageopacity="0.0"
     inkscape:pageshadow="2"
     inkscape:zoom="1.979899"
     inkscape:cx="314.74277"
     inkscape:cy="-106.81067"
     inkscape:document-units="px"
     inkscape:current-layer="layer1"
     inkscape:window-width="1920"
     inkscape:window-height="1021"
     inkscape:window-x="0"
     inkscape:window-y="27"
     showgrid="false"
     fit-margin-top="0"
     fit-margin-left="0"
     fit-margin-right="0"
     fit-margin-bottom="0"
     inkscape:window-maximized="1" />
  <metadata
     id="metadata7">
    <rdf:RDF>
      <cc:Work
         rdf:about="">
        <dc:format>image/svg+xml</dc:format>
        <dc:type
           rdf:resource="http://purl.org/dc/dcmitype/StillImage" />
        <dc:title></dc:title>
      </cc:Work>
    </rdf:RDF>
  </metadata>
  <g
     inkscape:label="Layer 1"
     inkscape:groupmode="layer"
     id="layer1">
    <path
       inkscape:connector-curvature="0"
       id="planet_ceres"
       style="font-size:40px;font-style:normal;font-variant:normal;font-weight:normal;font-stretch:normal;line-height:125%;letter-spacing:0px;word-spacing:0px;fill:#000000;fill-opacity:1;stroke:none;font-family:Cantarell;-inkscape-font-specification:Cantarell"
       d="m 9.6875,29.25781 0,5.01953 -3.53516,0 0,-5.01953 -5.3125,0 0,-2.42187 5.3125,0 0,-8.47657 c 0.52082,0.0912 1.11978,0.13673 1.79687,0.13672 2.09634,1e-5 3.89972,-0.70311 5.41016,-2.10937 1.51039,-1.40624 2.2656,-3.17056 2.26563,-5.29297 -3e-5,-2.1354 -0.75524,-3.94529 -2.26563,-5.42969 -1.51044,-1.48435 -3.32684,-2.22654 -5.44922,-2.22656 -2.10939,2e-5 -3.98438,0.69013 -5.625,2.07031 l -2.28515,-2.26562 c 2.18749,-2.16143 4.8242,-3.24216 7.91015,-3.24219 3.09894,3e-5 5.74217,1.08076 7.92969,3.24219 2.18747,2.16148 3.28122,4.80471 3.28125,7.92968 -3e-5,3.12502 -1.08727,5.69012 -3.26172,7.69532 -1.78388,1.64063 -3.84116,2.57813 -6.17187,2.8125 l 0,5.15625 5.29296,0 0,2.42187 -5.29296,0" />
  </g>
</svg>
