<?xml version="1.0" encoding="UTF-8" standalone="no"?>
<!-- Created with Inkscape (http://www.inkscape.org/) -->

<svg
   xmlns:dc="http://purl.org/dc/elements/1.1/"
   xmlns:cc="http://creativecommons.org/ns#"
   xmlns:rdf="http://www.w3.org/1999/02/22-rdf-syntax-ns#"
   xmlns:svg="http://www.w3.org/2000/svg"
   xmlns="http://www.w3.org/2000/svg"
   xmlns:sodipodi="http://sodipodi.sourceforge.net/DTD/sodipodi-0.dtd"
   xmlns:inkscape="http://www.inkscape.org/namespaces/inkscape"
   width="22.460938"
   height="34.277344"
   id="svg2"
   sodipodi:version="0.32"
   inkscape:version="0.48.4 r9939"
   version="1.0"
   sodipodi:docname="planet_saturn.svg">
  <defs
     id="defs4" />
  <sodipodi:namedview
     id="base"
     pagecolor="#ffffff"
     bordercolor="#666666"
     borderopacity="1.0"
     gridtolerance="10000"
     guidetolerance="10"
     objecttolerance="10"
     inkscape:pageopacity="0.0"
     inkscape:pageshadow="2"
     inkscape:zoom="1.979899"
     inkscape:cx="246.3447"
     inkscape:cy="-63.334145"
     inkscape:document-units="px"
     inkscape:current-layer="layer1"
     inkscape:window-width="1920"
     inkscape:window-height="1021"
     inkscape:window-x="0"
     inkscape:window-y="27"
     showgrid="false"
     fit-margin-top="0"
     fit-margin-left="0"
     fit-margin-right="0"
     fit-margin-bottom="0"
     inkscape:window-maximized="1" />
  <metadata
     id="metadata7">
    <rdf:RDF>
      <cc:Work
         rdf:about="">
        <dc:format>image/svg+xml</dc:format>
        <dc:type
           rdf:resource="http://purl.org/dc/dcmitype/StillImage" />
        <dc:title></dc:title>
      </cc:Work>
    </rdf:RDF>
  </metadata>
  <g
     inkscape:label="Layer 1"
     inkscape:groupmode="layer"
     id="layer1"
     transform="translate(-268.80278,-371.14433)">
    <g
       transform="translate(258.5991,387.1767)"
       style="font-size:40px;font-style:normal;font-variant:normal;font-weight:normal;font-stretch:normal;line-height:125%;letter-spacing:0px;word-spacing:0px;fill:#000000;fill-opacity:1;stroke:none;font-family:Cantarell;-inkscape-font-specification:Cantarell"
       id="text2990">
      <path
         d="m 21.434152,10.237165 c -0.833347,8e-6 -1.569024,-0.2929606 -2.207032,-0.8789058 -0.625011,-0.5989494 -0.937511,-1.3411362 -0.9375,-2.2265625 -1.1e-5,-0.8072803 0.305978,-1.4973838 0.917969,-2.0703125 0.611966,-0.5729035 1.354153,-0.8593615 2.226563,-0.859375 0.911442,1.35e-5 1.66014,0.2799611 2.246093,0.8398438 0.598941,0.546887 0.89842,1.2435009 0.898438,2.0898437 -1.8e-5,0.8593847 -0.306007,1.595061 -0.917969,2.2070313 -0.611995,0.598966 -1.354182,0.898445 -2.226562,0.898437 m 1.757812,-13.6523433 c 2.356752,0.221375 4.414042,1.1523637 6.171875,2.79296875 2.200496,2.04428705 3.300756,4.61589915 3.300781,7.71484375 -2.5e-5,3.1119868 -1.093774,5.7487028 -3.28125,7.9101558 -2.18752,2.161459 -4.837257,3.242187 -7.949218,3.242188 -3.072929,-1e-6 -5.716155,-1.080729 -7.929688,-3.242188 -2.200525,-2.161453 -3.300785,-4.798169 -3.300781,-7.9101558 -4e-6,-3.1119655 1.100256,-5.6835775 3.300781,-7.71484375 1.770825,-1.64060505 3.828115,-2.57810415 6.171875,-2.81249995 l -0.01953,-7.0117185 -5.136719,5.1171872 -0.01953,-3.8867187 6.933594,-6.8164065 6.933593,6.8164065 0,3.8867187 -5.175781,-5.0976562 0,7.0117187 M 21.434152,14.748884 c 2.1354,3e-6 3.951804,-0.742184 5.449218,-2.226562 1.510395,-1.484369 2.265603,-3.2942627 2.265625,-5.4296878 -2.2e-5,-2.1223831 -0.75523,-3.8867043 -2.265625,-5.2929687 -1.497414,-1.40623276 -3.313818,-2.10935706 -5.449218,-2.10937505 -2.096367,1.799e-5 -3.906261,0.70314229 -5.429688,2.10937505 -1.523445,1.4062644 -2.285163,3.1705856 -2.285156,5.2929687 -7e-6,2.1354251 0.761711,3.9453188 2.285156,5.4296878 1.523427,1.484378 3.333321,2.226565 5.429688,2.226562"
         style="font-family:Cantarell;-inkscape-font-specification:Cantarell"
         id="path3300" />
    </g>
  </g>
</svg>
