<?xml version="1.0" encoding="UTF-8" standalone="no"?>
<!-- Created with Inkscape (http://www.inkscape.org/) -->

<svg
   xmlns:dc="http://purl.org/dc/elements/1.1/"
   xmlns:cc="http://creativecommons.org/ns#"
   xmlns:rdf="http://www.w3.org/1999/02/22-rdf-syntax-ns#"
   xmlns:svg="http://www.w3.org/2000/svg"
   xmlns="http://www.w3.org/2000/svg"
   xmlns:sodipodi="http://sodipodi.sourceforge.net/DTD/sodipodi-0.dtd"
   xmlns:inkscape="http://www.inkscape.org/namespaces/inkscape"
   width="30.058594"
   height="29.375"
   id="svg2"
   sodipodi:version="0.32"
   inkscape:version="0.48.4 r9939"
   version="1.0"
   sodipodi:docname="planet_mars.svg">
  <defs
     id="defs4" />
  <sodipodi:namedview
     id="base"
     pagecolor="#ffffff"
     bordercolor="#666666"
     borderopacity="1.0"
     gridtolerance="10000"
     guidetolerance="10"
     objecttolerance="10"
     inkscape:pageopacity="0.0"
     inkscape:pageshadow="2"
     inkscape:zoom="1.979899"
     inkscape:cx="192.55195"
     inkscape:cy="-42.27947"
     inkscape:document-units="px"
     inkscape:current-layer="layer1"
     inkscape:window-width="1920"
     inkscape:window-height="1021"
     inkscape:window-x="0"
     inkscape:window-y="27"
     showgrid="false"
     fit-margin-top="0"
     fit-margin-left="0"
     fit-margin-right="0"
     fit-margin-bottom="0"
     inkscape:window-maximized="1" />
  <metadata
     id="metadata7">
    <rdf:RDF>
      <cc:Work
         rdf:about="">
        <dc:format>image/svg+xml</dc:format>
        <dc:type
           rdf:resource="http://purl.org/dc/dcmitype/StillImage" />
        <dc:title></dc:title>
      </cc:Work>
    </rdf:RDF>
  </metadata>
  <g
     inkscape:label="Layer 1"
     inkscape:groupmode="layer"
     id="layer1">
    <path
       inkscape:connector-curvature="0"
       id="planet_mars"
       style="font-size:40px;font-style:normal;font-variant:normal;font-weight:normal;font-stretch:normal;line-height:125%;letter-spacing:0px;word-spacing:0px;fill:#000000;fill-opacity:1;stroke:none;font-family:Cantarell;-inkscape-font-specification:Cantarell"
       d="m 11.23047,10.8789 c -2.13543,2e-5 -3.95835,0.74221 -5.46875,2.22657 -1.49741,1.48439 -2.2461,3.29428 -2.2461,5.42968 0,2.13543 0.74869,3.90626 2.2461,5.3125 1.5104,1.40626 3.33332,2.10938 5.46875,2.10938 2.09633,0 3.90623,-0.70312 5.42968,-2.10938 1.52342,-1.40624 2.28514,-3.17707 2.28516,-5.3125 -2e-5,-2.1354 -0.76174,-3.94529 -2.28516,-5.42968 -1.52345,-1.48436 -3.33335,-2.22655 -5.42968,-2.22657 m 8.04687,15.29297 c -2.18752,2.13542 -4.86981,3.20313 -8.04687,3.20313 -3.05991,0 -5.69663,-1.02865 -7.91016,-3.08594 -2.21355,-2.07031 -3.32032,-4.65494 -3.32031,-7.75391 -10e-6,-3.09894 1.11978,-5.75519 3.35937,-7.96875 2.2526,-2.22654 4.87629,-3.28122 7.8711,-3.16406 2.96873,0.10419 5.18227,0.82685 6.64062,2.16797 l 7.05078,-6.79687 -7.24609,0 2.73437,-2.77344 9.64844,0 0,9.60937 -2.79297,2.79297 0,-7.28515 -6.99219,6.79687 c 1.45831,1.90106 2.18748,4.10809 2.1875,6.62109 -2e-5,3.02084 -1.06122,5.56641 -3.18359,7.63672" />
  </g>
</svg>
