<?xml version="1.0" encoding="UTF-8" standalone="no"?>
<!-- Created with Inkscape (http://www.inkscape.org/) -->

<svg
   xmlns:dc="http://purl.org/dc/elements/1.1/"
   xmlns:cc="http://creativecommons.org/ns#"
   xmlns:rdf="http://www.w3.org/1999/02/22-rdf-syntax-ns#"
   xmlns:svg="http://www.w3.org/2000/svg"
   xmlns="http://www.w3.org/2000/svg"
   xmlns:sodipodi="http://sodipodi.sourceforge.net/DTD/sodipodi-0.dtd"
   xmlns:inkscape="http://www.inkscape.org/namespaces/inkscape"
   width="18.242188"
   height="29.21875"
   id="svg2"
   sodipodi:version="0.32"
   inkscape:version="0.48.4 r9939"
   version="1.0"
   sodipodi:docname="planet_sun.svg">
  <defs
     id="defs4" />
  <sodipodi:namedview
     id="base"
     pagecolor="#ffffff"
     bordercolor="#666666"
     borderopacity="1.0"
     gridtolerance="10000"
     guidetolerance="10"
     objecttolerance="10"
     inkscape:pageopacity="0.0"
     inkscape:pageshadow="2"
     inkscape:zoom="1.979899"
     inkscape:cx="192.3957"
     inkscape:cy="-30.306827"
     inkscape:document-units="px"
     inkscape:current-layer="layer1"
     inkscape:window-width="1920"
     inkscape:window-height="1021"
     inkscape:window-x="0"
     inkscape:window-y="27"
     showgrid="false"
     fit-margin-top="0"
     fit-margin-left="0"
     fit-margin-right="0"
     fit-margin-bottom="0"
     inkscape:window-maximized="1" />
  <metadata
     id="metadata7">
    <rdf:RDF>
      <cc:Work
         rdf:about="">
        <dc:format>image/svg+xml</dc:format>
        <dc:type
           rdf:resource="http://purl.org/dc/dcmitype/StillImage" />
        <dc:title></dc:title>
      </cc:Work>
    </rdf:RDF>
  </metadata>
  <g
     inkscape:label="Layer 1"
     inkscape:groupmode="layer"
     id="layer1"
     transform="translate(-268.70513,-375.63652)">
    <g
       transform="matrix(-1,0,0,1,297.05334,387.1767)"
       style="font-size:40px;font-style:normal;font-variant:normal;font-weight:normal;font-stretch:normal;line-height:125%;letter-spacing:0px;word-spacing:0px;fill:#000000;fill-opacity:1;stroke:none;font-family:Cantarell;-inkscape-font-specification:Cantarell"
       id="text2990">
      <path
         d="m 25.203683,17.678572 c -5.143243,0 -9.492197,-2.454425 -13.046875,-7.363282 -1.367192,-2.2525941 -2.050785,-4.6679563 -2.050781,-7.2460933 -4e-6,-5.104147 2.578119,-9.3294031 7.734375,-12.6757812 2.330715,-1.2890335 4.648421,-1.9335645 6.953125,-1.9335935 l 0.957031,0 c 0.598939,2.9e-5 1.41925,0.09768 2.460937,0.292968 l 0,0.136719 c -3.593767,1.028674 -6.210952,2.6953388 -7.851562,5.0000002 -2.00522,2.6432503 -3.007823,5.70314309 -3.007813,9.1796875 -10e-6,5.2083427 2.174467,9.2773493 6.523438,12.2070313 1.770814,1.028647 3.261698,1.647136 4.472656,1.855469 l 0,0.07813 c -2.1e-5,0.130208 -0.970073,0.286458 -2.910156,0.46875 l -0.234375,0 m -0.546875,-1.210938 0,-0.05859 c -5.950533,-2.5651 -8.92579,-7.0572829 -8.925781,-13.476562 -9e-6,-5.2213342 2.187489,-9.3424239 6.5625,-12.3632813 l 0.859375,-0.46875 0,-0.058594 -0.117188,0 c -1.119807,2.76e-5 -2.714857,0.5403916 -4.785156,1.6210937 -3.020842,1.9531491 -5.071621,4.5247611 -6.152344,7.71484375 -0.364588,1.19793377 -0.54688,2.40887005 -0.546875,3.63281255 l 0,0.1757812 c -5e-6,4.1406354 2.252597,7.9036531 6.757813,11.2890631 2.135403,1.328127 4.231755,1.992188 6.289062,1.992187 l 0.05859,0"
         style="font-family:Cantarell;-inkscape-font-specification:Cantarell"
         id="path3101"
         inkscape:connector-curvature="0" />
    </g>
  </g>
</svg>
