<?xml version="1.0" encoding="UTF-8" standalone="no"?>
<!-- Created with Inkscape (http://www.inkscape.org/) -->

<svg
   xmlns:dc="http://purl.org/dc/elements/1.1/"
   xmlns:cc="http://creativecommons.org/ns#"
   xmlns:rdf="http://www.w3.org/1999/02/22-rdf-syntax-ns#"
   xmlns:svg="http://www.w3.org/2000/svg"
   xmlns="http://www.w3.org/2000/svg"
   xmlns:sodipodi="http://sodipodi.sourceforge.net/DTD/sodipodi-0.dtd"
   xmlns:inkscape="http://www.inkscape.org/namespaces/inkscape"
   width="36.914062"
   height="46.25"
   id="svg2"
   version="1.1"
   inkscape:version="0.48.4 r9939"
   sodipodi:docname="25 - Nap.svg">
  <defs
     id="defs4" />
  <sodipodi:namedview
     id="base"
     pagecolor="#ffffff"
     bordercolor="#666666"
     borderopacity="1.0"
     inkscape:pageopacity="0.0"
     inkscape:pageshadow="2"
     inkscape:zoom="0.7810999"
     inkscape:cx="65.072536"
     inkscape:cy="152.21729"
     inkscape:document-units="px"
     inkscape:current-layer="text3055"
     showgrid="false"
     fit-margin-top="0"
     fit-margin-left="0"
     fit-margin-right="0"
     fit-margin-bottom="0"
     inkscape:window-width="1920"
     inkscape:window-height="1021"
     inkscape:window-x="0"
     inkscape:window-y="27"
     inkscape:window-maximized="1" />
  <metadata
     id="metadata7">
    <rdf:RDF>
      <cc:Work
         rdf:about="">
        <dc:format>image/svg+xml</dc:format>
        <dc:type
           rdf:resource="http://purl.org/dc/dcmitype/StillImage" />
        <dc:title></dc:title>
      </cc:Work>
    </rdf:RDF>
  </metadata>
  <g
     inkscape:label="1. réteg"
     inkscape:groupmode="layer"
     id="layer1"
     transform="translate(-84.852027,-715.25418)">
    <g
       transform="translate(4.1941991,642.27564)"
       style="font-size:40px;font-style:normal;font-variant:normal;font-weight:normal;font-stretch:normal;line-height:125%;letter-spacing:0px;word-spacing:0px;fill:#000000;fill-opacity:1;stroke:none;font-family:Placidus Symbols;-inkscape-font-specification:Placidus Symbols"
       id="text3055">
      <g
         transform="translate(76.81709,70.10243)"
         style="line-height:125%;fill:#000000;font-family:Placidus Symbols;-inkscape-font-specification:Placidus Symbols"
         id="text3705">
        <path
           d="m 27.043863,16.430801 c 0.429664,1.106793 0.748674,2.16148 0.957031,3.164063 0.208309,1.002623 0.332007,1.972674 0.371094,2.910156 0.05206,0.937517 0.0781,2.135432 0.07813,3.59375 -2.5e-5,1.888033 -0.07164,3.450531 -0.214844,4.6875 -0.143253,1.223966 -0.423201,2.415371 -0.839844,3.574219 -0.494814,1.445316 -1.295595,2.910159 -2.402343,4.394531 -0.807312,1.067708 -1.71877,2.083332 -2.734375,3.046875 -0.794289,0.755206 -1.230486,1.13281 -1.308594,1.132813 0.286441,-3e-6 1.015607,-0.214847 2.1875,-0.644532 1.640604,-0.59896 3.151019,-1.308595 4.53125,-2.128906 1.887995,-1.119791 3.437473,-2.408852 4.648437,-3.867187 1.302054,-1.562495 2.141897,-2.721348 2.519532,-3.476563 0.898405,-1.796866 1.347623,-4.068999 1.347656,-6.816406 -3.3e-5,-1.757797 -0.162793,-3.287743 -0.488281,-4.589844 -0.364615,-1.458313 -1.009146,-2.936176 -1.933594,-4.433594 -0.768259,-1.184871 -1.757841,-2.233047 -2.96875,-3.144531 -0.963568,-0.72914 -2.330754,-1.542941 -4.101563,-2.441406 -0.325543,-0.156222 -2.083354,-0.996064 -5.273437,-2.5195314 0.09113,0.052114 0.44269,0.3906556 1.054687,1.015625 0.872377,0.8984664 1.660136,1.8099244 2.363282,2.7343754 1.002582,1.328151 1.738258,2.59768 2.207031,3.808593 M 3.8407378,2.9151764 c 0.2083331,-0.012984 0.4427079,-0.019494 0.703125,-0.019531 0.2604157,-0.012984 0.4752593,-0.019494 0.6445313,-0.019531 1.1197892,3.69e-5 2.3372359,0.058631 3.6523437,0.1757812 1.9400972,0.1693075 3.8671782,0.4362343 5.7812502,0.8007813 2.447903,0.4557647 5.006494,1.0872744 7.675781,1.8945312 3.450499,1.0807622 6.223934,2.1940423 8.320313,3.3398438 3.111949,1.6927381 5.488249,3.7500271 7.128906,6.1718751 2.005172,2.94273 3.007775,6.497413 3.007812,10.664062 -3.7e-5,3.828135 -0.970088,7.174487 -2.910156,10.039062 -1.862011,2.734378 -4.772165,5.253906 -8.730469,7.558594 -2.526064,1.210933 -5.983092,2.304682 -10.371093,3.28125 -3.2422,0.716139 -6.660165,1.315096 -10.2539067,1.796875 -2.6432312,0.351554 -4.1927088,0.527336 -4.6484375,0.527344 l 0.234375,-0.05859 c 0.3645828,-9e-6 1.5559878,-0.514332 3.5742188,-1.542969 2.2135356,-1.119798 4.3033774,-2.311203 6.2695314,-3.574218 2.421862,-1.549482 4.101548,-2.871095 5.039062,-3.964844 1.041651,-1.210937 1.868473,-2.337238 2.480469,-3.378906 0.820294,-1.393225 1.445294,-2.890619 1.875,-4.492188 0.494772,-1.848949 0.742167,-3.912749 0.742188,-6.191406 -2.1e-5,-2.890608 -0.416687,-5.520814 -1.25,-7.890625 C 22.024313,15.805825 20.832908,13.696453 19.231363,11.704239 18.137599,10.363123 16.542548,9.0154676 14.446207,7.6612701 12.714427,6.5415117 10.780835,5.5128669 8.6454253,4.5753326 6.796464,3.7550562 5.2730281,3.2146922 4.0751128,2.9542389 3.9449044,2.9542757 3.8667795,2.9412549 3.8407378,2.9151764"
           id="path3710"
           inkscape:connector-curvature="0" />
      </g>
    </g>
  </g>
</svg>
