<?xml version="1.0" encoding="UTF-8" standalone="no"?>
<!-- Created with Inkscape (http://www.inkscape.org/) -->

<svg
   xmlns:dc="http://purl.org/dc/elements/1.1/"
   xmlns:cc="http://creativecommons.org/ns#"
   xmlns:rdf="http://www.w3.org/1999/02/22-rdf-syntax-ns#"
   xmlns:svg="http://www.w3.org/2000/svg"
   xmlns="http://www.w3.org/2000/svg"
   xmlns:sodipodi="http://sodipodi.sourceforge.net/DTD/sodipodi-0.dtd"
   xmlns:inkscape="http://www.inkscape.org/namespaces/inkscape"
   width="15.390625"
   height="34.414062"
   id="svg2"
   sodipodi:version="0.32"
   inkscape:version="0.48.4 r9939"
   version="1.0"
   sodipodi:docname="planet_chiron.svg">
  <defs
     id="defs4" />
  <sodipodi:namedview
     id="base"
     pagecolor="#ffffff"
     bordercolor="#666666"
     borderopacity="1.0"
     gridtolerance="10000"
     guidetolerance="10"
     objecttolerance="10"
     inkscape:pageopacity="0.0"
     inkscape:pageshadow="2"
     inkscape:zoom="1.979899"
     inkscape:cx="315.15292"
     inkscape:cy="-83.002097"
     inkscape:document-units="px"
     inkscape:current-layer="layer1"
     inkscape:window-width="1920"
     inkscape:window-height="1021"
     inkscape:window-x="0"
     inkscape:window-y="27"
     showgrid="false"
     fit-margin-top="0"
     fit-margin-left="0"
     fit-margin-right="0"
     fit-margin-bottom="0"
     inkscape:window-maximized="1" />
  <metadata
     id="metadata7">
    <rdf:RDF>
      <cc:Work
         rdf:about="">
        <dc:format>image/svg+xml</dc:format>
        <dc:type
           rdf:resource="http://purl.org/dc/dcmitype/StillImage" />
        <dc:title></dc:title>
      </cc:Work>
    </rdf:RDF>
  </metadata>
  <g
     inkscape:label="Layer 1"
     inkscape:groupmode="layer"
     id="layer1"
     transform="translate(-271.71294,-375.46074)">
    <g
       transform="translate(258.5991,387.1767)"
       style="font-size:40px;font-style:normal;font-variant:normal;font-weight:normal;font-stretch:normal;line-height:125%;letter-spacing:0px;word-spacing:0px;fill:#000000;fill-opacity:1;stroke:none;font-family:Cantarell;-inkscape-font-specification:Cantarell"
       id="text2990">
      <path
         d="m 23.191964,17.678572 0,5.019531 -3.515625,0 0,-5.019531 -5.3125,0 0,-2.421875 5.3125,0 0,-5.996094 C 17.645078,8.271029 15.965392,6.7866555 14.637277,4.807478 13.621645,3.2840548 13.113833,1.4741608 13.113839,-0.62220955 c -6e-6,-3.93226945 1.933586,-7.10283915 5.800781,-9.51171845 1.210925,-0.75518 2.949204,-1.23695 5.214844,-1.445313 0.937482,-0.09112 1.790346,0.01305 2.558594,0.3125 -2.643247,0.768258 -4.60288,2.0182563 -5.878906,3.7500002 -1.51043,2.044294 -2.265637,4.3424688 -2.265625,6.89453125 -1.2e-5,3.99741015 1.62759,7.05079255 4.882812,9.16015625 1.132795,0.7291751 2.252585,1.1914142 3.359375,1.3867188 -0.963561,0.4817785 -2.161476,0.5989655 -3.59375,0.3515625 l 0,4.980469 5.3125,0 0,2.421875 -5.3125,0"
         style="font-family:Cantarell;-inkscape-font-specification:Cantarell"
         id="path3421" />
    </g>
  </g>
</svg>
