<?xml version="1.0" encoding="UTF-8" standalone="no"?>
<!-- Created with Inkscape (http://www.inkscape.org/) -->

<svg
   xmlns:dc="http://purl.org/dc/elements/1.1/"
   xmlns:cc="http://creativecommons.org/ns#"
   xmlns:rdf="http://www.w3.org/1999/02/22-rdf-syntax-ns#"
   xmlns:svg="http://www.w3.org/2000/svg"
   xmlns="http://www.w3.org/2000/svg"
   xmlns:sodipodi="http://sodipodi.sourceforge.net/DTD/sodipodi-0.dtd"
   xmlns:inkscape="http://www.inkscape.org/namespaces/inkscape"
   width="16.621094"
   height="29.21875"
   id="svg2"
   sodipodi:version="0.32"
   inkscape:version="0.48.4 r9939"
   version="1.0"
   sodipodi:docname="planet_pluto.svg">
  <defs
     id="defs4" />
  <sodipodi:namedview
     id="base"
     pagecolor="#ffffff"
     bordercolor="#666666"
     borderopacity="1.0"
     gridtolerance="10000"
     guidetolerance="10"
     objecttolerance="10"
     inkscape:pageopacity="0.0"
     inkscape:pageshadow="2"
     inkscape:zoom="1.979899"
     inkscape:cx="210.85642"
     inkscape:cy="-77.748199"
     inkscape:document-units="px"
     inkscape:current-layer="layer1"
     inkscape:window-width="1920"
     inkscape:window-height="1021"
     inkscape:window-x="0"
     inkscape:window-y="27"
     showgrid="false"
     fit-margin-top="0"
     fit-margin-left="0"
     fit-margin-right="0"
     fit-margin-bottom="0"
     inkscape:window-maximized="1" />
  <metadata
     id="metadata7">
    <rdf:RDF>
      <cc:Work
         rdf:about="">
        <dc:format>image/svg+xml</dc:format>
        <dc:type
           rdf:resource="http://purl.org/dc/dcmitype/StillImage" />
        <dc:title></dc:title>
      </cc:Work>
    </rdf:RDF>
  </metadata>
  <g
     inkscape:label="Layer 1"
     inkscape:groupmode="layer"
     id="layer1">
    <path
       inkscape:connector-curvature="0"
       id="planet_pluto"
       style="font-size:40px;font-style:normal;font-variant:normal;font-weight:normal;font-stretch:normal;line-height:125%;letter-spacing:0px;word-spacing:0px;fill:#000000;fill-opacity:1;stroke:none;font-family:Cantarell;-inkscape-font-specification:Cantarell"
       d="m 0.15625,0 7.98828,0 c 3.93227,3e-5 6.54945,1.3542 7.85156,4.0625 0.41664,1.00263 0.62498,2.12242 0.625,3.35938 -2e-5,3.46356 -1.63414,5.79428 -4.90234,6.99218 -0.76825,0.22137 -1.50393,0.33205 -2.20703,0.33204 l -6.67969,0 0,11.62109 12.38281,0 0.15625,0.15625 0,2.53906 -0.15625,0.15625 -15.05859,0 -0.15625,-0.15625 0,-28.88672 0.15625,-0.17578 m 2.67578,2.73438 0,9.29687 6.36719,0 c 1.69269,2e-5 3.00779,-0.84633 3.94531,-2.53906 0.20831,-0.33852 0.36456,-1.02863 0.46875,-2.07031 -2e-5,-2.1354 -1.05471,-3.59373 -3.16406,-4.375 -0.48179,-0.20831 -1.25002,-0.31248 -2.30469,-0.3125 l -5.3125,0" />
  </g>
</svg>
