<?xml version="1.0" encoding="UTF-8" standalone="no"?>
<!-- Created with Inkscape (http://www.inkscape.org/) -->

<svg
   xmlns:dc="http://purl.org/dc/elements/1.1/"
   xmlns:cc="http://creativecommons.org/ns#"
   xmlns:rdf="http://www.w3.org/1999/02/22-rdf-syntax-ns#"
   xmlns:svg="http://www.w3.org/2000/svg"
   xmlns="http://www.w3.org/2000/svg"
   xmlns:sodipodi="http://sodipodi.sourceforge.net/DTD/sodipodi-0.dtd"
   xmlns:inkscape="http://www.inkscape.org/namespaces/inkscape"
   width="30.058594"
   height="29.375"
   id="svg2"
   sodipodi:version="0.32"
   inkscape:version="0.48.4 r9939"
   version="1.0"
   sodipodi:docname="planet_venus.svg">
  <defs
     id="defs4" />
  <sodipodi:namedview
     id="base"
     pagecolor="#ffffff"
     bordercolor="#666666"
     borderopacity="1.0"
     gridtolerance="10000"
     guidetolerance="10"
     objecttolerance="10"
     inkscape:pageopacity="0.0"
     inkscape:pageshadow="2"
     inkscape:zoom="1.979899"
     inkscape:cx="192.55195"
     inkscape:cy="-42.27947"
     inkscape:document-units="px"
     inkscape:current-layer="layer1"
     inkscape:window-width="1920"
     inkscape:window-height="1021"
     inkscape:window-x="0"
     inkscape:window-y="27"
     showgrid="false"
     fit-margin-top="0"
     fit-margin-left="0"
     fit-margin-right="0"
     fit-margin-bottom="0"
     inkscape:window-maximized="1" />
  <metadata
     id="metadata7">
    <rdf:RDF>
      <cc:Work
         rdf:about="">
        <dc:format>image/svg+xml</dc:format>
        <dc:type
           rdf:resource="http://purl.org/dc/dcmitype/StillImage" />
        <dc:title></dc:title>
      </cc:Work>
    </rdf:RDF>
  </metadata>
  <g
     inkscape:label="Layer 1"
     inkscape:groupmode="layer"
     id="layer1"
     transform="translate(-268.54888,-376.04668)">
    <g
       transform="translate(258.5991,387.1767)"
       style="font-size:40px;font-style:normal;font-variant:normal;font-weight:normal;font-stretch:normal;line-height:125%;letter-spacing:0px;word-spacing:0px;fill:#000000;fill-opacity:1;stroke:none;font-family:Cantarell;-inkscape-font-specification:Cantarell"
       id="text2990">
      <path
         d="m 21.180245,-0.2511158 c -2.135429,1.793e-5 -3.958343,0.74220469 -5.46875,2.2265625 -1.497403,1.4843892 -2.2461,3.2942832 -2.246093,5.4296875 -7e-6,2.1354248 0.74869,3.9062568 2.246093,5.3124998 1.510407,1.406254 3.333321,2.109378 5.46875,2.109375 2.096338,3e-6 3.906232,-0.703121 5.429688,-2.109375 1.523416,-1.406243 2.285134,-3.177075 2.285156,-5.3124998 -2.2e-5,-2.1354043 -0.76174,-3.9452983 -2.285156,-5.4296875 -1.523456,-1.48435781 -3.33335,-2.22654457 -5.429688,-2.2265625 M 29.22712,15.041853 c -2.18752,2.135417 -4.869809,3.203124 -8.046875,3.203125 -3.059907,-1e-6 -5.696623,-1.028645 -7.910156,-3.085938 -2.213546,-2.070307 -3.3203155,-4.65494 -3.3203124,-7.7539058 -3.1e-6,-3.098945 1.1197874,-5.7551923 3.3593754,-7.96875 2.252595,-2.226542 4.87629,-3.2812285 7.871093,-3.1640625 2.968733,0.104188 5.182272,0.8268435 6.640625,2.1679688 l 7.050782,-6.796875 -7.246094,0 2.734375,-2.7734375 9.648437,0 0,9.609375 -2.792968,2.7929687 0,-7.2851562 -6.992188,6.79687495 c 1.458309,1.90105665 2.187475,4.10808575 2.1875,6.62109375 -2.5e-5,3.0208408 -1.061222,5.5664108 -3.183594,7.6367188"
         style="font-family:Cantarell;-inkscape-font-specification:Cantarell"
         id="path3210" />
    </g>
  </g>
</svg>
