<?xml version="1.0" encoding="UTF-8" standalone="no"?>
<!-- Created with Inkscape (http://www.inkscape.org/) -->

<svg
   xmlns:dc="http://purl.org/dc/elements/1.1/"
   xmlns:cc="http://creativecommons.org/ns#"
   xmlns:rdf="http://www.w3.org/1999/02/22-rdf-syntax-ns#"
   xmlns:svg="http://www.w3.org/2000/svg"
   xmlns="http://www.w3.org/2000/svg"
   xmlns:sodipodi="http://sodipodi.sourceforge.net/DTD/sodipodi-0.dtd"
   xmlns:inkscape="http://www.inkscape.org/namespaces/inkscape"
   width="39.375"
   height="46.230469"
   id="svg2"
   version="1.1"
   inkscape:version="0.48.4 r9939"
   sodipodi:docname="34 - Plútó.svg">
  <defs
     id="defs4" />
  <sodipodi:namedview
     id="base"
     pagecolor="#ffffff"
     bordercolor="#666666"
     borderopacity="1.0"
     inkscape:pageopacity="0.0"
     inkscape:pageshadow="2"
     inkscape:zoom="0.7810999"
     inkscape:cx="0.33758235"
     inkscape:cy="-33.436218"
     inkscape:document-units="px"
     inkscape:current-layer="text3055"
     showgrid="false"
     fit-margin-top="0"
     fit-margin-left="0"
     fit-margin-right="0"
     fit-margin-bottom="0"
     inkscape:window-width="1920"
     inkscape:window-height="1021"
     inkscape:window-x="0"
     inkscape:window-y="27"
     inkscape:window-maximized="1" />
  <metadata
     id="metadata7">
    <rdf:RDF>
      <cc:Work
         rdf:about="">
        <dc:format>image/svg+xml</dc:format>
        <dc:type
           rdf:resource="http://purl.org/dc/dcmitype/StillImage" />
        <dc:title></dc:title>
      </cc:Work>
    </rdf:RDF>
  </metadata>
  <g
     inkscape:label="1. réteg"
     inkscape:groupmode="layer"
     id="layer1"
     transform="translate(-149.58698,-529.62019)">
    <g
       transform="translate(4.1941991,642.27564)"
       style="font-size:40px;font-style:normal;font-variant:normal;font-weight:normal;font-stretch:normal;line-height:125%;letter-spacing:0px;word-spacing:0px;fill:#000000;fill-opacity:1;stroke:none;font-family:Placidus Symbols;-inkscape-font-specification:Placidus Symbols"
       id="text3055">
      <g
         transform="translate(150.51377,-114.01192)"
         style="line-height:125%;fill:#000000;font-family:Placidus Symbols;-inkscape-font-specification:Placidus Symbols"
         id="text3939">
        <path
           d="m 4.1368284,43.485378 c 1.2630103,-4e-6 2.3307176,-0.41016 3.203125,-1.230468 0.9244658,-0.872399 1.3867049,-2.00521 1.3867188,-3.398438 -1.39e-5,-1.223957 -0.4166801,-2.285154 -1.25,-3.183594 -0.8854284,-0.950516 -1.9987085,-1.425776 -3.3398438,-1.425781 -1.1458414,5e-6 -2.1158925,0.345056 -2.9101562,1.035156 -0.92448462,0.807295 -1.45833825,1.979168 -1.60156253,3.515625 -4.74e-6,1.236978 0.33202617,2.285154 0.99609375,3.144532 0.79426428,1.028641 1.96613808,1.542964 3.51562498,1.542968 m 21.5624996,0 c 1.315072,-4e-6 2.408821,-0.429691 3.28125,-1.289062 0.872361,-0.859378 1.308559,-1.972658 1.308594,-3.339844 -3.5e-5,-1.223957 -0.403681,-2.278644 -1.210937,-3.164062 -0.872429,-0.963538 -1.99873,-1.445308 -3.378907,-1.445313 -1.210967,5e-6 -2.265653,0.39714 -3.164062,1.191406 -0.98961,0.885419 -1.484401,2.024741 -1.484375,3.417969 -2.6e-5,1.184895 0.338515,2.200519 1.015625,3.046875 0.846326,1.054683 2.057262,1.582027 3.632812,1.582031 M 6.6563597,30.184597 c 0.2994671,0.273446 1.171862,0.787768 2.6171875,1.542969 1.1588388,0.611985 2.0051918,1.31511 2.5390628,2.109375 0.781232,1.158858 1.171857,2.753908 1.171875,4.785156 -1.8e-5,1.015624 -0.1758,2.05729 -0.527344,3.125 -0.533871,1.6276 -1.380225,2.929682 -2.5390626,3.90625 -1.523451,1.289054 -3.4895949,1.933585 -5.8984375,1.933594 -1.4843826,-9e-6 -2.8385479,-0.234384 -4.06249998,-0.703125 -1.52344102,-0.585945 -2.70833572,-1.471361 -3.55468752,-2.65625 -1.0156255,-1.419275 -1.5234375,-3.209638 -1.5234375,-5.371094 0,-2.122394 0.47526,-3.925777 1.4257813,-5.410156 1.1718724,-1.835931 2.9817664,-2.981763 5.4296875,-3.4375 C 1.3959365,29.045284 0.83604122,27.788775 0.05479717,26.239285 -0.7134364,24.689819 -1.2733317,23.316123 -1.6248903,22.118191 c -0.5598988,-1.901023 -1.0221379,-4.427062 -1.3867188,-7.578125 -0.039065,-0.338517 -0.058596,-0.670548 -0.058594,-0.996094 -2.1e-6,-2.408826 1.0742156,-4.6093451 3.22265622,-6.6015625 C 1.9883838,5.2367139 4.3842148,3.856507 7.3399534,2.8017845 10.035251,1.8382798 12.502696,1.3565095 14.742297,1.356472 c 1.783833,3.75e-5 3.749977,0.247433 5.898438,0.7421875 3.333304,0.7682651 6.002572,1.9661806 8.007812,3.59375 2.682255,2.1745101 4.0234,5.0065385 4.023438,8.4960935 -3.8e-5,2.838564 -0.397173,5.904967 -1.191407,9.199219 -0.794306,3.281262 -1.686232,5.546885 -2.675781,6.796875 0.937465,0.33855 1.705694,0.742195 2.304688,1.210938 0.846317,0.664069 1.516889,1.516932 2.011718,2.558593 0.59892,1.250004 0.976524,2.805992 1.132813,4.667969 -3.9e-5,1.315103 -0.208373,2.545571 -0.625,3.691406 -0.533892,1.497391 -1.354204,2.669265 -2.460938,3.515625 -1.367222,1.05468 -3.092481,1.582023 -5.175781,1.582032 -1.536488,-9e-6 -2.936226,-0.221363 -4.199219,-0.664063 -1.588567,-0.559903 -2.832055,-1.419277 -3.730468,-2.578125 -1.067731,-1.380212 -1.601584,-3.151044 -1.601563,-5.3125 -2.1e-5,-2.018227 0.670551,-3.873694 2.011719,-5.566406 1.523412,-1.927076 3.561171,-3.079419 6.113281,-3.457031 0.559866,-1.119782 1.087209,-2.36327 1.582031,-3.730469 0.572885,-1.575507 1.022104,-3.157536 1.347657,-4.746094 0.390592,-1.888001 0.585904,-3.639302 0.585937,-5.253906 -3.3e-5,-0.572894 -0.03259,-1.204403 -0.09766,-1.894531 C 27.79565,12.801811 26.936276,11.36952 25.425891,9.9111595 24.058674,8.5960856 22.39852,7.4893158 20.445422,6.590847 18.492274,5.6794218 16.767015,5.2236931 15.269641,5.2236595 13.759205,5.2236931 12.059988,5.5427032 10.171985,6.1806908 7.9714507,6.9229101 6.1745775,7.9124925 4.7813597,9.1494408 3.1016639,10.646865 2.261821,12.326551 2.2618284,14.188503 c -7.4e-6,1.692732 0.3775964,3.723979 1.1328125,6.09375 0.2343663,0.755226 0.9374906,2.669287 2.109375,5.742188 0.7682178,2.031261 1.152332,3.417978 1.1523438,4.160156"
           id="path3944"
           inkscape:connector-curvature="0" />
      </g>
    </g>
  </g>
</svg>
