<?xml version="1.0" encoding="UTF-8" standalone="no"?>
<!-- Created with Inkscape (http://www.inkscape.org/) -->

<svg
   xmlns:dc="http://purl.org/dc/elements/1.1/"
   xmlns:cc="http://creativecommons.org/ns#"
   xmlns:rdf="http://www.w3.org/1999/02/22-rdf-syntax-ns#"
   xmlns:svg="http://www.w3.org/2000/svg"
   xmlns="http://www.w3.org/2000/svg"
   xmlns:sodipodi="http://sodipodi.sourceforge.net/DTD/sodipodi-0.dtd"
   xmlns:inkscape="http://www.inkscape.org/namespaces/inkscape"
   width="24.785156"
   height="47.890621"
   id="svg2"
   version="1.1"
   inkscape:version="0.48.4 r9939"
   sodipodi:docname="26 - Hold.svg">
  <defs
     id="defs4" />
  <sodipodi:namedview
     id="base"
     pagecolor="#ffffff"
     bordercolor="#666666"
     borderopacity="1.0"
     inkscape:pageopacity="0.0"
     inkscape:pageshadow="2"
     inkscape:zoom="0.7810999"
     inkscape:cx="59.424208"
     inkscape:cy="162.94184"
     inkscape:document-units="px"
     inkscape:current-layer="text3055"
     showgrid="false"
     fit-margin-top="0"
     fit-margin-left="0"
     fit-margin-right="0"
     fit-margin-bottom="0"
     inkscape:window-width="1920"
     inkscape:window-height="1021"
     inkscape:window-x="0"
     inkscape:window-y="27"
     inkscape:window-maximized="1" />
  <metadata
     id="metadata7">
    <rdf:RDF>
      <cc:Work
         rdf:about="">
        <dc:format>image/svg+xml</dc:format>
        <dc:type
           rdf:resource="http://purl.org/dc/dcmitype/StillImage" />
        <dc:title></dc:title>
      </cc:Work>
    </rdf:RDF>
  </metadata>
  <g
     inkscape:label="1. réteg"
     inkscape:groupmode="layer"
     id="layer1"
     transform="translate(-90.500355,-724.33811)">
    <g
       transform="translate(4.1941991,642.27564)"
       style="font-size:40px;font-style:normal;font-variant:normal;font-weight:normal;font-stretch:normal;line-height:125%;letter-spacing:0px;word-spacing:0px;fill:#000000;fill-opacity:1;stroke:none;font-family:Placidus Symbols;-inkscape-font-specification:Placidus Symbols"
       id="text3055">
      <g
         transform="translate(80.657828,72.97854)"
         style="line-height:125%;fill:#000000;font-family:Placidus Symbols;-inkscape-font-specification:Placidus Symbols"
         id="text3731">
        <path
           d="m 18.070203,34.494087 c 0.872382,1.5e-5 1.731756,-0.182277 2.578125,-0.546875 0.846338,-0.364568 1.575504,-0.852849 2.1875,-1.464844 1.39321,-1.249982 2.089824,-2.877584 2.089844,-4.882812 -2e-5,-0.989561 -0.136739,-1.835914 -0.410157,-2.539063 -0.32554,-0.846329 -0.885435,-1.595026 -1.679687,-2.246093 -0.50783,-0.690078 -1.184913,-1.210911 -2.03125,-1.5625 -0.846369,-0.364556 -1.757827,-0.546847 -2.734375,-0.546875 -1.015637,2.8e-5 -1.927095,0.169298 -2.734375,0.507812 -0.807301,0.325548 -1.516936,0.859402 -2.128906,1.601563 -0.677091,0.5469 -1.184903,1.230493 -1.523438,2.050781 -0.325527,0.820336 -0.488287,1.731793 -0.488281,2.734375 -6e-6,0.963562 0.162754,1.848978 0.488281,2.65625 0.325514,0.807309 0.833326,1.549496 1.523438,2.226562 0.638012,0.611995 1.328115,1.087255 2.070312,1.425782 0.872385,0.390639 1.803374,0.585952 2.792969,0.585937 M 14.183484,16.505806 C 13.675663,16.206359 12.83582,15.815735 11.663953,15.333931 10.010302,14.643861 8.9881677,14.214174 8.5975466,14.044868 7.4256693,13.51105 6.4425973,12.970686 5.6483278,12.423775 L 7.9334841,9.083931 c 0.5729133,0.2734769 1.1458294,0.5469141 1.71875,0.8203125 1.3932229,0.6250385 2.7213469,1.1328505 3.9843749,1.5234375 1.757802,0.546912 3.255197,0.820349 4.492188,0.820312 1.276027,3.7e-5 2.838525,-0.253869 4.6875,-0.761718 1.328106,-0.364546 2.766906,-0.846316 4.316406,-1.445313 0.624977,-0.2603774 1.256487,-0.5207938 1.894531,-0.7812498 l 1.40625,3.8671878 c -2.29169,0.833368 -4.153667,1.523471 -5.585937,2.070312 -1.43231,0.533887 -2.473976,0.970085 -3.125,1.308594 0.989565,0.247428 1.953106,0.716177 2.890625,1.40625 1.054667,0.768259 2.005186,1.770862 2.851562,3.007812 0.637998,0.924507 1.126279,1.940131 1.464844,3.046875 0.338517,1.093774 0.507788,2.187523 0.507812,3.28125 -2.4e-5,1.158875 -0.156274,2.285176 -0.46875,3.378907 -0.312523,1.080746 -0.813825,2.083349 -1.503906,3.007812 -0.664084,1.080743 -1.582052,2.018243 -2.753906,2.8125 -1.158873,0.794283 -2.532569,1.399751 -4.121094,1.816406 l -0.117187,0.01953 0,6.5625 7.304687,0 0,4.824218 -7.304687,0 0,7.304688 -4.84375,0 0,-7.304688 -7.2656254,0 0,-4.824218 7.2656254,0 0,-6.679688 C 14.001184,37.918577 12.620977,37.417276 11.488172,36.662056 10.45952,35.971965 9.5024901,34.962851 8.6170778,33.634712 8.0181166,32.762332 7.5558775,31.824833 7.2303591,30.822212 6.8527532,29.663377 6.6639513,28.471972 6.6639528,27.247993 c -1.5e-6,-1.093727 0.1367171,-2.115861 0.4101563,-3.066406 0.3255185,-1.106745 0.8398409,-2.193983 1.5429687,-3.261719 0.403642,-0.533825 0.8789019,-1.041637 1.4257812,-1.523437 0.55989,-0.494762 1.204421,-0.989553 1.933594,-1.484375 0.325513,-0.221323 1.06119,-0.690073 2.207031,-1.40625"
           id="path3736"
           inkscape:connector-curvature="0" />
      </g>
    </g>
  </g>
</svg>
