<?xml version="1.0" encoding="UTF-8" standalone="no"?>
<!-- Created with Inkscape (http://www.inkscape.org/) -->

<svg
   xmlns:dc="http://purl.org/dc/elements/1.1/"
   xmlns:cc="http://creativecommons.org/ns#"
   xmlns:rdf="http://www.w3.org/1999/02/22-rdf-syntax-ns#"
   xmlns:svg="http://www.w3.org/2000/svg"
   xmlns="http://www.w3.org/2000/svg"
   xmlns:sodipodi="http://sodipodi.sourceforge.net/DTD/sodipodi-0.dtd"
   xmlns:inkscape="http://www.inkscape.org/namespaces/inkscape"
   width="27.871096"
   height="46.211021"
   id="svg2"
   version="1.1"
   inkscape:version="0.48.4 r9939"
   sodipodi:docname="31 - Szaturnusz.svg">
  <defs
     id="defs4" />
  <sodipodi:namedview
     id="base"
     pagecolor="#ffffff"
     bordercolor="#666666"
     borderopacity="1.0"
     inkscape:pageopacity="0.0"
     inkscape:pageshadow="2"
     inkscape:zoom="0.7810999"
     inkscape:cx="79.712839"
     inkscape:cy="-84.657321"
     inkscape:document-units="px"
     inkscape:current-layer="text3055"
     showgrid="false"
     fit-margin-top="0"
     fit-margin-left="0"
     fit-margin-right="0"
     fit-margin-bottom="0"
     inkscape:window-width="1920"
     inkscape:window-height="1021"
     inkscape:window-x="0"
     inkscape:window-y="27"
     inkscape:window-maximized="1" />
  <metadata
     id="metadata7">
    <rdf:RDF>
      <cc:Work
         rdf:about="">
        <dc:format>image/svg+xml</dc:format>
        <dc:type
           rdf:resource="http://purl.org/dc/dcmitype/StillImage" />
        <dc:title></dc:title>
      </cc:Work>
    </rdf:RDF>
  </metadata>
  <g
     inkscape:label="1. réteg"
     inkscape:groupmode="layer"
     id="layer1"
     transform="translate(-70.211725,-478.41854)">
    <g
       transform="translate(4.1941991,642.27564)"
       style="font-size:40px;font-style:normal;font-variant:normal;font-weight:normal;font-stretch:normal;line-height:125%;letter-spacing:0px;word-spacing:0px;fill:#000000;fill-opacity:1;stroke:none;font-family:Placidus Symbols;-inkscape-font-specification:Placidus Symbols"
       id="text3055">
      <g
         transform="translate(92.824568,36.78688)"
         style="line-height:125%;fill:#000000;font-family:Placidus Symbols;-inkscape-font-specification:Placidus Symbols"
         id="text3861">
        <path
           d="m -12.939852,-159.0619 c 2.057276,-1e-5 3.8541491,-0.7422 5.3906252,-2.22657 1.5494583,-1.47135 2.3241971,-3.29427 2.3242188,-5.46875 -2.17e-5,-2.01822 -0.6705939,-3.76952 -2.0117188,-5.2539 -1.4713723,-1.64062 -3.3724122,-2.46093 -5.7031252,-2.46094 -2.00522,1e-5 -3.75652,0.67058 -5.253906,2.01172 -1.640632,1.47136 -2.460944,3.3724 -2.460938,5.70312 -6e-6,2.03125 0.657546,3.78255 1.972657,5.25391 1.458323,1.6276 3.372384,2.4414 5.742187,2.44141 m 2.324219,-19.78516 0.15625,0.0391 c 1.5364404,0.24741 2.9947722,0.8659 4.375,1.85547 1.2629988,0.92449 2.298154,1.93361 3.1054687,3.02734 1.0025793,1.38022 1.6926828,2.94272 2.07031254,4.6875 0.22132797,0.92449 0.33200494,1.84246 0.33203125,2.75391 -2.631e-5,1.17188 -0.17580738,2.3112 -0.52734379,3.41797 -0.3385671,1.10677 -0.8854415,2.18099 -1.640625,3.22266 -1.1198146,1.49739 -2.4674696,2.72134 -4.0429687,3.67187 -1.9401223,1.15885 -3.990902,1.73827 -6.152344,1.73828 -1.236992,-1e-5 -2.402355,-0.15626 -3.496094,-0.46875 -1.223967,-0.35157 -2.363289,-0.90495 -3.417968,-1.66015 -1.653651,-1.25001 -2.910161,-2.58464 -3.769532,-4.00391 -1.093752,-1.8099 -1.640626,-3.8737 -1.640625,-6.19141 -10e-7,-1.26301 0.16927,-2.46744 0.507813,-3.61328 0.338539,-1.15885 0.878903,-2.23957 1.621094,-3.24219 0.937495,-1.32811 1.998692,-2.41535 3.183593,-3.26171 1.328117,-0.95051 2.838532,-1.59504 4.53125,-1.9336 l 0.136719,-0.0391 0.03906,-8.71094 -3.730469,-0.0977 c -8e-6,0.26044 -0.123706,0.78778 -0.371094,1.58203 -0.338549,1.09377 -0.859381,2.44142 -1.5625,4.04297 -0.130214,0.3646 -0.416672,0.95053 -0.859375,1.75781 -0.143234,0.27345 -0.358077,0.65106 -0.644531,1.13281 l -4.394531,0.0586 c 0.02604,2e-5 0.149739,-0.15623 0.371093,-0.46875 0.390625,-0.55988 0.761718,-1.16534 1.113282,-1.8164 0.520831,-0.97655 1.113278,-2.25259 1.777343,-3.82813 0.130205,-0.31248 0.221351,-0.80727 0.273438,-1.48437 0.0651,-0.67706 0.09765,-1.40623 0.09766,-2.1875 l 0,-0.27344 0,-0.23437 c -3e-6,-0.24737 -0.0065,-0.48826 -0.01953,-0.72266 -4e-6,-0.24737 -4e-6,-0.48826 0,-0.72266 -4e-6,-0.23435 0.0065,-0.52731 0.01953,-0.8789 0.01302,-0.35154 0.01953,-0.59242 0.01953,-0.72266 -3e-6,-0.41664 -0.03907,-0.81377 -0.117187,-1.19141 -0.06511,-0.39059 -0.214847,-0.86585 -0.449219,-1.42578 -0.299482,-0.96351 -0.89844,-2.18095 -1.796875,-3.65234 -0.29948,-0.49476 -0.729167,-1.1458 -1.289062,-1.95313 l 4.609375,0 c 0.0651,0.0782 0.110672,0.15629 0.136718,0.23438 0.156246,0.13024 0.38411,0.48832 0.683594,1.07422 0.40364,0.76826 0.826817,1.71227 1.269531,2.83203 0.156244,0.39066 0.397129,1.25003 0.722657,2.57812 0.104159,0.4167 0.247388,1.00264 0.429687,1.75782 l 3.710938,0 0,-8.47657 4.609375,0 0,8.47657 4.1406247,-0.0586 c -2.04e-5,-1.38018 0.2538856,-2.78642 0.7617188,-4.21875 0.3645618,-1.04163 0.8463322,-2.05725 1.4453125,-3.04687 0.4557061,-0.7682 0.7161225,-1.15231 0.78125,-1.15235 l 4.41406249,0 -0.13671875,0.23438 c -0.54690211,0.71618 -0.83987057,1.10681 -0.87890625,1.17187 -0.53388041,0.88546 -0.97007789,1.99222 -1.30859379,3.32032 -0.4557541,1.80992 -0.6836185,3.9193 -0.6835937,6.32812 -2.48e-5,2.13544 0.2734124,4.11461 0.8203125,5.9375 0.39059899,1.3021 0.89841099,2.46096 1.52343749,3.47656 0.4687224,0.75523 0.74215963,1.13283 0.82031251,1.13282 l -4.921875,0 c -0.729189,-1.04165 -1.3411675,-2.28514 -1.8359375,-3.73047 -0.5338748,-1.54946 -0.8008017,-3.17706 -0.8007813,-4.88281 -0.2343951,2e-5 -0.7226759,2e-5 -1.4648437,0 -0.7291849,2e-5 -1.7057464,2e-5 -2.929688,0 0.02603,-0.41665 0.04556,-0.83331 0.05859,-1.25 0.013,-0.41665 0.03905,-0.62498 0.07813,-0.625 0.03905,2e-5 0.0716,1.11981 0.09766,3.35937 0.02603,2.2396 0.03905,4.68101 0.03906,7.32422"
           id="path3866"
           inkscape:connector-curvature="0" />
      </g>
    </g>
  </g>
</svg>
