<?xml version="1.0" encoding="UTF-8" standalone="no"?>
<!-- Created with Inkscape (http://www.inkscape.org/) -->

<svg
   xmlns:dc="http://purl.org/dc/elements/1.1/"
   xmlns:cc="http://creativecommons.org/ns#"
   xmlns:rdf="http://www.w3.org/1999/02/22-rdf-syntax-ns#"
   xmlns:svg="http://www.w3.org/2000/svg"
   xmlns="http://www.w3.org/2000/svg"
   xmlns:sodipodi="http://sodipodi.sourceforge.net/DTD/sodipodi-0.dtd"
   xmlns:inkscape="http://www.inkscape.org/namespaces/inkscape"
   width="22.460938"
   height="34.277344"
   id="svg2"
   sodipodi:version="0.32"
   inkscape:version="0.48.4 r9939"
   version="1.0"
   sodipodi:docname="planet_uranus.svg">
  <defs
     id="defs4" />
  <sodipodi:namedview
     id="base"
     pagecolor="#ffffff"
     bordercolor="#666666"
     borderopacity="1.0"
     gridtolerance="10000"
     guidetolerance="10"
     objecttolerance="10"
     inkscape:pageopacity="0.0"
     inkscape:pageshadow="2"
     inkscape:zoom="1.979899"
     inkscape:cx="246.3447"
     inkscape:cy="-63.334145"
     inkscape:document-units="px"
     inkscape:current-layer="layer1"
     inkscape:window-width="1920"
     inkscape:window-height="1021"
     inkscape:window-x="0"
     inkscape:window-y="27"
     showgrid="false"
     fit-margin-top="0"
     fit-margin-left="0"
     fit-margin-right="0"
     fit-margin-bottom="0"
     inkscape:window-maximized="1" />
  <metadata
     id="metadata7">
    <rdf:RDF>
      <cc:Work
         rdf:about="">
        <dc:format>image/svg+xml</dc:format>
        <dc:type
           rdf:resource="http://purl.org/dc/dcmitype/StillImage" />
        <dc:title></dc:title>
      </cc:Work>
    </rdf:RDF>
  </metadata>
  <g
     inkscape:label="Layer 1"
     inkscape:groupmode="layer"
     id="layer1">
    <path
       inkscape:connector-curvature="0"
       id="planet_uranus"
       style="font-size:40px;font-style:normal;font-variant:normal;font-weight:normal;font-stretch:normal;line-height:125%;letter-spacing:0px;word-spacing:0px;fill:#000000;fill-opacity:1;stroke:none;font-family:Cantarell;-inkscape-font-specification:Cantarell"
       d="m 11.23047,26.26953 c -0.83335,10e-6 -1.56902,-0.29296 -2.20703,-0.8789 -0.62501,-0.59895 -0.93751,-1.34114 -0.9375,-2.22656 -10e-6,-0.80728 0.30598,-1.49739 0.91797,-2.07032 0.61196,-0.5729 1.35415,-0.85936 2.22656,-0.85937 0.91144,10e-6 1.66014,0.27996 2.2461,0.83984 0.59894,0.54689 0.89842,1.2435 0.89843,2.08985 -10e-6,0.85938 -0.306,1.59506 -0.91797,2.20703 -0.61199,0.59896 -1.35418,0.89844 -2.22656,0.89843 m 1.75781,-13.65234 c 2.35676,0.22138 4.41405,1.15237 6.17188,2.79297 2.2005,2.04429 3.30076,4.6159 3.30078,7.71484 -2e-5,3.11199 -1.09377,5.74871 -3.28125,7.91016 -2.18752,2.16146 -4.83726,3.24219 -7.94922,3.24219 -3.07293,0 -5.71615,-1.08073 -7.92969,-3.24219 -2.20052,-2.16145 -3.30078,-4.79817 -3.30078,-7.91016 0,-3.11196 1.10026,-5.68357 3.30078,-7.71484 1.77083,-1.6406 3.82812,-2.5781 6.17188,-2.8125 l -0.0195,-7.01172 -5.13672,5.11719 -0.0195,-3.88672 6.93359,-6.81641 6.9336,6.81641 0,3.88672 -5.17578,-5.09766 0,7.01172 m -1.75782,18.16406 c 2.1354,10e-6 3.95181,-0.74218 5.44922,-2.22656 1.51039,-1.48437 2.2656,-3.29426 2.26563,-5.42969 -3e-5,-2.12238 -0.75524,-3.8867 -2.26563,-5.29296 -1.49741,-1.40624 -3.31382,-2.10936 -5.44922,-2.10938 -2.09636,2e-5 -3.90626,0.70314 -5.42969,2.10938 -1.52344,1.40626 -2.28516,3.17058 -2.28515,5.29296 -10e-6,2.13543 0.76171,3.94532 2.28515,5.42969 1.52343,1.48438 3.33333,2.22657 5.42969,2.22656" />
  </g>
</svg>
