<?xml version="1.0" encoding="UTF-8" standalone="no"?>
<!-- Created with Inkscape (http://www.inkscape.org/) -->

<svg
   xmlns:dc="http://purl.org/dc/elements/1.1/"
   xmlns:cc="http://creativecommons.org/ns#"
   xmlns:rdf="http://www.w3.org/1999/02/22-rdf-syntax-ns#"
   xmlns:svg="http://www.w3.org/2000/svg"
   xmlns="http://www.w3.org/2000/svg"
   xmlns:sodipodi="http://sodipodi.sourceforge.net/DTD/sodipodi-0.dtd"
   xmlns:inkscape="http://www.inkscape.org/namespaces/inkscape"
   width="15.390625"
   height="34.414062"
   id="svg2"
   sodipodi:version="0.32"
   inkscape:version="0.48.4 r9939"
   version="1.0"
   sodipodi:docname="planet_lilith.svg">
  <defs
     id="defs4" />
  <sodipodi:namedview
     id="base"
     pagecolor="#ffffff"
     bordercolor="#666666"
     borderopacity="1.0"
     gridtolerance="10000"
     guidetolerance="10"
     objecttolerance="10"
     inkscape:pageopacity="0.0"
     inkscape:pageshadow="2"
     inkscape:zoom="1.979899"
     inkscape:cx="315.15292"
     inkscape:cy="-83.002097"
     inkscape:document-units="px"
     inkscape:current-layer="layer1"
     inkscape:window-width="1920"
     inkscape:window-height="1021"
     inkscape:window-x="0"
     inkscape:window-y="27"
     showgrid="false"
     fit-margin-top="0"
     fit-margin-left="0"
     fit-margin-right="0"
     fit-margin-bottom="0"
     inkscape:window-maximized="1" />
  <metadata
     id="metadata7">
    <rdf:RDF>
      <cc:Work
         rdf:about="">
        <dc:format>image/svg+xml</dc:format>
        <dc:type
           rdf:resource="http://purl.org/dc/dcmitype/StillImage" />
        <dc:title></dc:title>
      </cc:Work>
    </rdf:RDF>
  </metadata>
  <g
     inkscape:label="Layer 1"
     inkscape:groupmode="layer"
     id="layer1">
    <path
       inkscape:connector-curvature="0"
       id="planet_lilith"
       style="font-size:40px;font-style:normal;font-variant:normal;font-weight:normal;font-stretch:normal;line-height:125%;letter-spacing:0px;word-spacing:0px;fill:#000000;fill-opacity:1;stroke:none;font-family:Cantarell;-inkscape-font-specification:Cantarell"
       d="m 10.07812,29.39453 0,5.01953 -3.51562,0 0,-5.01953 -5.3125,0 0,-2.42187 5.3125,0 0,-5.9961 c -2.03126,-0.98957 -3.71095,-2.47394 -5.03906,-4.45312 -1.01563,-1.52343 -1.52345,-3.33332 -1.52344,-5.42969 -1e-5,-3.93227 1.93358,-7.10284 5.80078,-9.51172 1.21092,-0.75518 2.9492,-1.23695 5.21484,-1.44531 0.93749,-0.0911 1.79035,0.013 2.5586,0.3125 -2.64325,0.76826 -4.60288,2.01826 -5.87891,3.75 -1.51043,2.04429 -2.26563,4.34247 -2.26562,6.89453 -10e-6,3.99741 1.62759,7.05079 4.88281,9.16016 1.13279,0.72917 2.25258,1.19141 3.35937,1.38672 -0.96356,0.48177 -2.16147,0.59896 -3.59375,0.35156 l 0,4.98047 5.3125,0 0,2.42187 -5.3125,0" />
  </g>
</svg>
