<?xml version="1.0" encoding="UTF-8" standalone="no"?>
<!-- Created with Inkscape (http://www.inkscape.org/) -->

<svg
   xmlns:dc="http://purl.org/dc/elements/1.1/"
   xmlns:cc="http://creativecommons.org/ns#"
   xmlns:rdf="http://www.w3.org/1999/02/22-rdf-syntax-ns#"
   xmlns:svg="http://www.w3.org/2000/svg"
   xmlns="http://www.w3.org/2000/svg"
   xmlns:sodipodi="http://sodipodi.sourceforge.net/DTD/sodipodi-0.dtd"
   xmlns:inkscape="http://www.inkscape.org/namespaces/inkscape"
   width="22.578125"
   height="29.21875"
   id="svg2"
   sodipodi:version="0.32"
   inkscape:version="0.48.4 r9939"
   version="1.0"
   sodipodi:docname="planet_jupiter.svg">
  <defs
     id="defs4" />
  <sodipodi:namedview
     id="base"
     pagecolor="#ffffff"
     bordercolor="#666666"
     borderopacity="1.0"
     gridtolerance="10000"
     guidetolerance="10"
     objecttolerance="10"
     inkscape:pageopacity="0.0"
     inkscape:pageshadow="2"
     inkscape:zoom="1.979899"
     inkscape:cx="209.29797"
     inkscape:cy="-49.486498"
     inkscape:document-units="px"
     inkscape:current-layer="layer1"
     inkscape:window-width="1920"
     inkscape:window-height="1021"
     inkscape:window-x="0"
     inkscape:window-y="27"
     showgrid="false"
     fit-margin-top="0"
     fit-margin-left="0"
     fit-margin-right="0"
     fit-margin-bottom="0"
     inkscape:window-maximized="1" />
  <metadata
     id="metadata7">
    <rdf:RDF>
      <cc:Work
         rdf:about="">
        <dc:format>image/svg+xml</dc:format>
        <dc:type
           rdf:resource="http://purl.org/dc/dcmitype/StillImage" />
        <dc:title></dc:title>
      </cc:Work>
    </rdf:RDF>
  </metadata>
  <g
     inkscape:label="Layer 1"
     inkscape:groupmode="layer"
     id="layer1">
    <path
       inkscape:connector-curvature="0"
       id="planet_jupiter"
       style="font-size:40px;font-style:normal;font-variant:normal;font-weight:normal;font-stretch:normal;line-height:125%;letter-spacing:0px;word-spacing:0px;fill:#000000;fill-opacity:1;stroke:none;font-family:Cantarell;-inkscape-font-specification:Cantarell"
       d="m 8.63281,18.84766 0,-0.0195 c 1.58853,10e-6 2.93618,-0.55338 4.04297,-1.66016 1.10675,-1.11978 1.66013,-2.46743 1.66016,-4.04297 -3e-5,-1.5755 -0.55341,-2.91665 -1.66016,-4.02344 -1.09377,-1.11977 -2.44142,-1.67966 -4.04297,-1.67968 -1.57553,2e-5 -2.92319,0.55991 -4.04297,1.67968 -1.10678,1.10679 -1.66016,2.44794 -1.66015,4.02344 l 0,0.0391 -2.92969,0 c -10e-6,-2.40883 0.83983,-4.45961 2.51953,-6.15234 1.67968,-1.69268 3.71743,-2.53904 6.11328,-2.53906 2.43488,2e-5 4.49217,0.84638 6.17188,2.53906 1.67966,1.69273 2.5195,3.74351 2.51953,6.15234 -3e-5,2.18752 -0.70966,4.08205 -2.12891,5.6836 l 4.43359,0 0,-18.84766 2.94922,0 0,29.21875 -2.94922,0 0,-7.42187 -19.6289,0 0,-2.94922 8.63281,0" />
  </g>
</svg>
