<?xml version="1.0" encoding="UTF-8" standalone="no"?>
<!-- Created with Inkscape (http://www.inkscape.org/) -->

<svg
   xmlns:dc="http://purl.org/dc/elements/1.1/"
   xmlns:cc="http://creativecommons.org/ns#"
   xmlns:rdf="http://www.w3.org/1999/02/22-rdf-syntax-ns#"
   xmlns:svg="http://www.w3.org/2000/svg"
   xmlns="http://www.w3.org/2000/svg"
   xmlns:sodipodi="http://sodipodi.sourceforge.net/DTD/sodipodi-0.dtd"
   xmlns:inkscape="http://www.inkscape.org/namespaces/inkscape"
   width="29.21875"
   height="29.21875"
   id="svg2"
   sodipodi:version="0.32"
   inkscape:version="0.48.4 r9939"
   version="1.0"
   sodipodi:docname="all_symbols_with_Cantarell_font.svg">
  <defs
     id="defs4" />
  <sodipodi:namedview
     id="base"
     pagecolor="#ffffff"
     bordercolor="#666666"
     borderopacity="1.0"
     gridtolerance="10000"
     guidetolerance="10"
     objecttolerance="10"
     inkscape:pageopacity="0.0"
     inkscape:pageshadow="2"
     inkscape:zoom="1.979899"
     inkscape:cx="196.94243"
     inkscape:cy="-23.0998"
     inkscape:document-units="px"
     inkscape:current-layer="layer1"
     inkscape:window-width="1920"
     inkscape:window-height="1021"
     inkscape:window-x="0"
     inkscape:window-y="27"
     showgrid="false"
     fit-margin-top="0"
     fit-margin-left="0"
     fit-margin-right="0"
     fit-margin-bottom="0"
     inkscape:window-maximized="1" />
  <metadata
     id="metadata7">
    <rdf:RDF>
      <cc:Work
         rdf:about="">
        <dc:format>image/svg+xml</dc:format>
        <dc:type
           rdf:resource="http://purl.org/dc/dcmitype/StillImage" />
        <dc:title></dc:title>
      </cc:Work>
    </rdf:RDF>
  </metadata>
  <g
     inkscape:label="Layer 1"
     inkscape:groupmode="layer"
     id="layer1"
     transform="translate(-268.70513,-375.63652)">
    <g
       transform="translate(258.5991,387.1767)"
       style="font-size:40px;font-style:normal;font-variant:normal;font-weight:normal;font-stretch:normal;line-height:125%;letter-spacing:0px;word-spacing:0px;fill:#000000;fill-opacity:1;stroke:none;font-family:Cantarell;-inkscape-font-specification:Cantarell"
       id="text2990">
      <path
         d="m 39.324777,3.0691967 c -3.3e-5,4.0494897 -1.425813,7.5000073 -4.277344,10.3515623 -2.851588,2.838543 -6.302105,4.257813 -10.351563,4.257813 -4.023451,0 -7.460948,-1.41927 -10.3125,-4.257813 -2.851567,-2.851555 -4.277347,-6.3020726 -4.277343,-10.3515623 -4e-6,-2.52602453 0.651037,-4.9609179 1.953125,-7.3046875 1.315097,-2.3567466 3.144522,-4.1601302 5.488281,-5.4101562 2.343737,-1.262992 4.726547,-1.894502 7.148437,-1.894531 2.460918,2.9e-5 4.863259,0.631539 7.207032,1.894531 2.343722,1.250026 4.166637,3.0468992 5.46875,5.390625 1.302051,2.3307487 1.953092,4.77215253 1.953125,7.3242187 m -27.792969,0 c -5e-6,3.6458443 1.282546,6.7513099 3.847656,9.3164063 2.565093,2.552086 5.670559,3.828126 9.316406,3.828125 3.645812,1e-6 6.751278,-1.276039 9.316407,-3.828125 2.565074,-2.5650964 3.847625,-5.670562 3.847656,-9.3164063 -3.1e-5,-2.30467058 -0.585968,-4.5051892 -1.757813,-6.6015625 -1.171903,-2.0963309 -2.812526,-3.7109126 -4.921875,-4.84375 -2.109397,-1.1327853 -4.270853,-1.6991912 -6.484375,-1.6992192 -2.213557,2.8e-5 -4.375013,0.5664339 -6.484375,1.6992192 -2.109384,1.1328374 -3.750007,2.7474191 -4.921875,4.84375 -1.17188,2.0963733 -1.757817,4.29689192 -1.757812,6.6015625 m 16.835937,0 C 28.367724,4.0848353 28.009651,4.9507198 27.293527,5.666853 26.590382,6.3699893 25.731008,6.7215514 24.715402,6.7215405 23.712781,6.7215514 22.853406,6.3699893 22.137277,5.666853 21.421116,4.9507198 21.063044,4.0848353 21.063058,3.0691967 c -1.4e-5,-0.6380056 0.162746,-1.2499841 0.488281,-1.8359375 0.325506,-0.58592047 0.781235,-1.03513877 1.367188,-1.34765625 0.58592,-0.31248189 1.184878,-0.46873174 1.796875,-0.46875 0.61196,1.826e-5 1.210918,0.15626811 1.796875,0.46875 0.585917,0.31251748 1.041646,0.76173578 1.367187,1.34765625 0.3255,0.5859534 0.48826,1.1979319 0.488281,1.8359375"
         style="font-family:Cantarell;-inkscape-font-specification:Cantarell"
         id="path3071" />
    </g>
  </g>
</svg>
