<?xml version="1.0" encoding="UTF-8" standalone="no"?>
<!-- Created with Inkscape (http://www.inkscape.org/) -->

<svg
   xmlns:dc="http://purl.org/dc/elements/1.1/"
   xmlns:cc="http://creativecommons.org/ns#"
   xmlns:rdf="http://www.w3.org/1999/02/22-rdf-syntax-ns#"
   xmlns:svg="http://www.w3.org/2000/svg"
   xmlns="http://www.w3.org/2000/svg"
   xmlns:sodipodi="http://sodipodi.sourceforge.net/DTD/sodipodi-0.dtd"
   xmlns:inkscape="http://www.inkscape.org/namespaces/inkscape"
   width="40.078125"
   height="40.078125"
   id="svg2"
   version="1.1"
   inkscape:version="0.48.4 r9939"
   sodipodi:docname="33 - Neptunusz.svg">
  <defs
     id="defs4" />
  <sodipodi:namedview
     id="base"
     pagecolor="#ffffff"
     bordercolor="#666666"
     borderopacity="1.0"
     inkscape:pageopacity="0.0"
     inkscape:pageshadow="2"
     inkscape:zoom="0.7810999"
     inkscape:cx="-4.7834027"
     inkscape:cy="-40.945034"
     inkscape:document-units="px"
     inkscape:current-layer="text3055"
     showgrid="false"
     fit-margin-top="0"
     fit-margin-left="0"
     fit-margin-right="0"
     fit-margin-bottom="0"
     inkscape:window-width="1920"
     inkscape:window-height="1021"
     inkscape:window-x="0"
     inkscape:window-y="27"
     inkscape:window-maximized="1" />
  <metadata
     id="metadata7">
    <rdf:RDF>
      <cc:Work
         rdf:about="">
        <dc:format>image/svg+xml</dc:format>
        <dc:type
           rdf:resource="http://purl.org/dc/dcmitype/StillImage" />
        <dc:title></dc:title>
      </cc:Work>
    </rdf:RDF>
  </metadata>
  <g
     inkscape:label="1. réteg"
     inkscape:groupmode="layer"
     id="layer1"
     transform="translate(-154.70797,-528.26372)">
    <g
       transform="translate(4.1941991,642.27564)"
       style="font-size:40px;font-style:normal;font-variant:normal;font-weight:normal;font-stretch:normal;line-height:125%;letter-spacing:0px;word-spacing:0px;fill:#000000;fill-opacity:1;stroke:none;font-family:Placidus Symbols;-inkscape-font-specification:Placidus Symbols"
       id="text3055">
      <g
         transform="translate(135.15082,-108.45176)"
         style="line-height:125%;fill:#000000;font-family:Placidus Symbols;-inkscape-font-specification:Placidus Symbols"
         id="text3913">
        <path
           d="m 35.402015,34.517967 c -2.526059,-6e-6 -5.013036,-0.494797 -7.460938,-1.484375 -2.539072,-1.028649 -4.778653,-2.486981 -6.71875,-4.375 -1.835941,-1.835936 -3.2487,-3.899736 -4.238281,-6.191406 -1.08073,-2.499992 -1.621094,-5.162749 -1.621094,-7.988281 0,-2.578109 0.501302,-5.0976376 1.503906,-7.558594 1.015623,-2.4739345 2.460934,-4.6419011 4.335938,-6.50390628 1.888013,-1.86194942 3.958324,-3.29423962 6.210937,-4.29687502 2.513007,-1.1197584 5.175765,-1.6796536 7.988282,-1.6796875 2.083311,3.39e-5 4.042944,0.2799815 5.878906,0.8398438 1.83591,0.5599283 3.58721,1.4323232 5.253906,2.6171875 2.747362,1.82294521 4.863245,4.0039326 6.347656,6.5429687 1.70569,2.9166876 2.558554,6.2630388 2.558594,10.0390628 -4e-5,2.552094 -0.488321,5.032561 -1.464844,7.441406 -1.028683,2.539066 -2.519567,4.785158 -4.472656,6.738281 -1.796907,1.796873 -3.808624,3.190101 -6.035156,4.179688 -2.513046,1.119786 -5.201846,1.679681 -8.066406,1.679687 M 19.581702,14.049217 c -4e-6,2.044283 0.442704,4.042979 1.328125,5.996094 0.729161,1.601569 1.725253,3.118495 2.988281,4.550781 0.833324,0.950524 1.940094,1.861981 3.320313,2.734375 1.028633,0.651042 2.08983,1.217448 3.183594,1.699219 0.859359,0.377603 1.334619,0.566405 1.425781,0.566406 0.455712,-0.416667 1.015608,-1.08724 1.679687,-2.011719 0.859356,-1.197914 1.699199,-2.584632 2.519532,-4.160156 0.690083,-1.432285 1.236957,-2.766919 1.640625,-4.003906 0.52081,-1.601552 0.878883,-3.248686 1.074218,-4.941406 -2.3e-5,-1.17186 -0.136742,-2.382797 -0.410156,-3.632813 C 38.006159,9.3877778 37.517878,7.9685084 36.866858,6.5882797 36.372046,5.2471569 35.734026,4.0297102 34.952796,2.935936 33.963194,1.5427336 32.765279,0.38388054 31.359046,-0.54062653 c -0.989598,2.883e-5 -1.933608,0.20836196 -2.832031,0.625 C 27.758773,0.44898465 26.931951,1.0023695 26.046546,1.7445297 25.629869,2.0961184 24.822578,2.8578364 23.624671,4.029686 22.036123,5.5922087 20.948884,7.1416863 20.362952,8.6781235 19.842114,10.045329 19.581698,11.835692 19.581702,14.049217 M 35.929358,-1.595314 c 0.520813,0.4297169 1.165343,1.1198204 1.933594,2.07031247 1.080706,1.34117233 2.089819,2.85158743 3.027344,4.53125003 0.664036,1.2630428 1.171848,2.5781457 1.523437,3.9453125 0.442681,1.705747 0.664035,3.548193 0.664063,5.527344 -2.8e-5,3.802093 -0.729194,7.050788 -2.1875,9.746093 -0.468775,0.937504 -1.132837,1.953128 -1.992188,3.046875 -0.755231,0.92448 -1.510438,1.848958 -2.265625,2.773438 0.03904,0.02604 0.06508,0.03906 0.07813,0.03906 0.156229,0.0651 0.358052,0.09765 0.605469,0.09766 0.468728,-2e-6 0.989561,-0.07813 1.5625,-0.234375 0.768205,-0.208335 1.718725,-0.585939 2.851563,-1.132813 0.950493,-0.416667 1.68617,-0.78125 2.207031,-1.09375 0.859346,-0.520832 1.621064,-1.1263 2.285156,-1.816406 0.794239,-0.83333 1.523405,-1.855465 2.1875,-3.066406 0.572883,-0.898431 0.963508,-1.542962 1.171875,-1.933594 0.416632,-0.807284 0.722622,-1.634106 0.917969,-2.480469 0.24736,-1.093739 0.371058,-2.37629 0.371094,-3.847656 C 50.870729,11.855223 50.525677,9.5570485 49.835608,7.6820297 49.080366,5.6247607 47.843389,3.8799708 46.124671,2.4476547 45.382453,1.7836187 44.125944,1.1000257 42.35514,0.39687347 41.04001,-0.12393145 39.594699,-0.6057018 38.019202,-1.048439 36.717098,-1.4129927 36.020484,-1.5952841 35.929358,-1.595314"
           id="path3918"
           inkscape:connector-curvature="0" />
      </g>
    </g>
  </g>
</svg>
