<?xml version="1.0" encoding="UTF-8" standalone="no"?>
<!-- Created with Inkscape (http://www.inkscape.org/) -->

<svg
   xmlns:dc="http://purl.org/dc/elements/1.1/"
   xmlns:cc="http://creativecommons.org/ns#"
   xmlns:rdf="http://www.w3.org/1999/02/22-rdf-syntax-ns#"
   xmlns:svg="http://www.w3.org/2000/svg"
   xmlns="http://www.w3.org/2000/svg"
   xmlns:sodipodi="http://sodipodi.sourceforge.net/DTD/sodipodi-0.dtd"
   xmlns:inkscape="http://www.inkscape.org/namespaces/inkscape"
   width="30.664062"
   height="29.082031"
   id="svg2"
   sodipodi:version="0.32"
   inkscape:version="0.48.4 r9939"
   version="1.0"
   sodipodi:docname="planet_lilith.svg">
  <defs
     id="defs4" />
  <sodipodi:namedview
     id="base"
     pagecolor="#ffffff"
     bordercolor="#666666"
     borderopacity="1.0"
     gridtolerance="10000"
     guidetolerance="10"
     objecttolerance="10"
     inkscape:pageopacity="0.0"
     inkscape:pageshadow="2"
     inkscape:zoom="1.979899"
     inkscape:cx="319.03964"
     inkscape:cy="-90.209124"
     inkscape:document-units="px"
     inkscape:current-layer="layer1"
     inkscape:window-width="1920"
     inkscape:window-height="1021"
     inkscape:window-x="0"
     inkscape:window-y="27"
     showgrid="false"
     fit-margin-top="0"
     fit-margin-left="0"
     fit-margin-right="0"
     fit-margin-bottom="0"
     inkscape:window-maximized="1" />
  <metadata
     id="metadata7">
    <rdf:RDF>
      <cc:Work
         rdf:about="">
        <dc:format>image/svg+xml</dc:format>
        <dc:type
           rdf:resource="http://purl.org/dc/dcmitype/StillImage" />
        <dc:title></dc:title>
      </cc:Work>
    </rdf:RDF>
  </metadata>
  <g
     inkscape:label="Layer 1"
     inkscape:groupmode="layer"
     id="layer1"
     transform="translate(-267.82622,-375.77324)">
    <g
       transform="translate(258.5991,387.1767)"
       style="font-size:40px;font-style:normal;font-variant:normal;font-weight:normal;font-stretch:normal;line-height:125%;letter-spacing:0px;word-spacing:0px;fill:#000000;fill-opacity:1;stroke:none;font-family:Cantarell;-inkscape-font-specification:Cantarell"
       id="text2990">
      <path
         d="M 36.238839,9.1434155 C 35.574748,8.4663413 34.760947,8.1278 33.797433,8.1277905 c -0.963568,9.5e-6 -1.783879,0.3385508 -2.460938,1.015625 -0.664086,0.6640703 -0.996117,1.4778715 -0.996093,2.4414065 -2.4e-5,0.950526 0.332007,1.764327 0.996093,2.441406 0.677059,0.664065 1.49737,0.996096 2.460938,0.996094 0.950493,2e-6 1.764294,-0.332029 2.441406,-0.996094 0.677053,-0.677079 1.015595,-1.49088 1.015625,-2.441406 -3e-5,-0.963535 -0.338572,-1.7773362 -1.015625,-2.4414065 m -20.9375,-1.015625 c -0.950528,9.5e-6 -1.76433,0.3385508 -2.441406,1.015625 -0.677089,0.6640703 -1.01563,1.4778715 -1.015625,2.4414065 -5e-6,0.950526 0.338536,1.764327 1.015625,2.441406 0.677076,0.677086 1.490878,1.015628 2.441406,1.015625 0.963532,3e-6 1.777334,-0.338539 2.441406,-1.015625 0.677072,-0.677079 1.015613,-1.49088 1.015625,-2.441406 C 18.758358,10.621287 18.419817,9.8074858 17.742745,9.1434155 17.078673,8.4663413 16.264871,8.1278 15.301339,8.1277905 M 37.19587,6.4676342 c 0.32549,0.2213652 0.63148,0.4752712 0.917969,0.7617188 1.184863,1.1979259 1.777311,2.6432369 1.777344,4.335937 -3.3e-5,1.679692 -0.592481,3.118493 -1.777344,4.316407 -1.184926,1.184896 -2.623726,1.777343 -4.316406,1.777343 -1.679713,0 -3.112003,-0.592447 -4.296875,-1.777343 -1.184917,-1.197914 -1.777365,-2.636715 -1.777344,-4.316407 -2.1e-5,-1.6927001 0.585916,-3.1380111 1.757813,-4.335937 1.054663,-1.054676 2.304662,-1.640613 3.75,-1.7578125 1.575492,-1.4973822 2.363252,-3.2421721 2.363281,-5.23437505 -2.9e-5,-2.34373025 -1.093778,-4.33591575 -3.28125,-5.97656245 -2.174503,-1.6536208 -4.82424,-2.4804429 -7.949219,-2.4804688 -3.125014,2.59e-5 -5.781262,0.826848 -7.96875,2.4804688 -2.174486,1.6406467 -3.261725,3.6328322 -3.261719,5.97656245 -6e-6,1.99220295 0.787754,3.73048245 2.363282,5.21484375 1.627593,0.052096 3.0078,0.6445428 4.140625,1.7773438 1.171861,1.1979259 1.757798,2.6432369 1.757812,4.335937 -1.4e-5,1.692713 -0.592462,3.138024 -1.777344,4.335938 -1.184907,1.184896 -2.623708,1.777344 -4.316406,1.777344 -1.666673,0 -3.098964,-0.592448 -4.296875,-1.777344 C 9.8195653,14.703314 9.227118,13.258003 9.2271204,11.56529 9.227118,9.8725899 9.8195653,8.4272789 11.004464,7.229353 11.238835,7.0080095 11.47972,6.7996763 11.72712,6.604353 10.138575,4.7554075 9.3443053,2.6460347 9.3443079,0.27622795 9.3443053,-2.9529181 10.802637,-5.7068216 13.719308,-7.9854908 c 2.916657,-2.2786182 6.46483,-3.4179392 10.644531,-3.4179692 4.218728,3e-5 7.786433,1.139351 10.703125,3.4179692 2.916636,2.2786692 4.374967,5.0325727 4.375,8.26171875 -3.3e-5,2.30470255 -0.74873,4.36850265 -2.246094,6.19140625"
         style="font-family:Cantarell;-inkscape-font-specification:Cantarell"
         id="path3443" />
    </g>
  </g>
</svg>
