<?xml version="1.0" encoding="UTF-8" standalone="no"?>
<!-- Created with Inkscape (http://www.inkscape.org/) -->

<svg
   xmlns:dc="http://purl.org/dc/elements/1.1/"
   xmlns:cc="http://creativecommons.org/ns#"
   xmlns:rdf="http://www.w3.org/1999/02/22-rdf-syntax-ns#"
   xmlns:svg="http://www.w3.org/2000/svg"
   xmlns="http://www.w3.org/2000/svg"
   xmlns:sodipodi="http://sodipodi.sourceforge.net/DTD/sodipodi-0.dtd"
   xmlns:inkscape="http://www.inkscape.org/namespaces/inkscape"
   width="30.664062"
   height="29.082031"
   id="svg2"
   sodipodi:version="0.32"
   inkscape:version="0.48.4 r9939"
   version="1.0"
   sodipodi:docname="planet_asc_node.svg">
  <defs
     id="defs4" />
  <sodipodi:namedview
     id="base"
     pagecolor="#ffffff"
     bordercolor="#666666"
     borderopacity="1.0"
     gridtolerance="10000"
     guidetolerance="10"
     objecttolerance="10"
     inkscape:pageopacity="0.0"
     inkscape:pageshadow="2"
     inkscape:zoom="1.979899"
     inkscape:cx="319.03964"
     inkscape:cy="-90.209124"
     inkscape:document-units="px"
     inkscape:current-layer="layer1"
     inkscape:window-width="1920"
     inkscape:window-height="1021"
     inkscape:window-x="0"
     inkscape:window-y="27"
     showgrid="false"
     fit-margin-top="0"
     fit-margin-left="0"
     fit-margin-right="0"
     fit-margin-bottom="0"
     inkscape:window-maximized="1" />
  <metadata
     id="metadata7">
    <rdf:RDF>
      <cc:Work
         rdf:about="">
        <dc:format>image/svg+xml</dc:format>
        <dc:type
           rdf:resource="http://purl.org/dc/dcmitype/StillImage" />
        <dc:title></dc:title>
      </cc:Work>
    </rdf:RDF>
  </metadata>
  <g
     inkscape:label="Layer 1"
     inkscape:groupmode="layer"
     id="layer1">
    <path
       inkscape:connector-curvature="0"
       id="planet_moon_node"
       style="font-size:40px;font-style:normal;font-variant:normal;font-weight:normal;font-stretch:normal;line-height:125%;letter-spacing:0px;word-spacing:0px;fill:#000000;fill-opacity:1;stroke:none;font-family:Cantarell;-inkscape-font-specification:Cantarell"
       d="m 27.01172,20.54688 c -0.66409,-0.67708 -1.47789,-1.01562 -2.44141,-1.01563 -0.96356,1e-5 -1.78388,0.33855 -2.46093,1.01563 -0.66409,0.66407 -0.99612,1.47787 -0.9961,2.4414 -2e-5,0.95053 0.33201,1.76433 0.9961,2.44141 0.67705,0.66406 1.49737,0.99609 2.46093,0.99609 0.9505,0 1.7643,-0.33203 2.44141,-0.99609 0.67705,-0.67708 1.01559,-1.49088 1.01562,-2.44141 -3e-5,-0.96353 -0.33857,-1.77733 -1.01562,-2.4414 m -20.9375,-1.01563 c -0.95053,1e-5 -1.76433,0.33855 -2.44141,1.01563 -0.67709,0.66407 -1.01563,1.47787 -1.01562,2.4414 -10e-6,0.95053 0.33853,1.76433 1.01562,2.44141 0.67708,0.67708 1.49088,1.01563 2.44141,1.01562 0.96353,1e-5 1.77733,-0.33854 2.44141,-1.01562 0.67707,-0.67708 1.01561,-1.49088 1.01562,-2.44141 -10e-6,-0.96353 -0.33855,-1.77733 -1.01562,-2.4414 -0.66408,-0.67708 -1.47788,-1.01562 -2.44141,-1.01563 m 21.89453,-1.66016 c 0.32549,0.22137 0.63148,0.47528 0.91797,0.76172 1.18486,1.19793 1.77731,2.64324 1.77734,4.33594 -3e-5,1.67969 -0.59248,3.11849 -1.77734,4.31641 -1.18493,1.18489 -2.62373,1.77734 -4.31641,1.77734 -1.67971,0 -3.112,-0.59245 -4.29687,-1.77734 -1.18492,-1.19792 -1.77737,-2.63672 -1.77735,-4.31641 -2e-5,-1.6927 0.58592,-3.13801 1.75782,-4.33594 1.05466,-1.05467 2.30466,-1.64061 3.75,-1.75781 1.57549,-1.49738 2.36325,-3.24217 2.36328,-5.23437 -3e-5,-2.34373 -1.09378,-4.33592 -3.28125,-5.97657 -2.1745,-1.65362 -4.82424,-2.48044 -7.94922,-2.48047 -3.12501,3e-5 -5.78126,0.82685 -7.96875,2.48047 -2.17449,1.64065 -3.26173,3.63284 -3.26172,5.97657 -10e-6,1.9922 0.78775,3.73048 2.36328,5.21484 1.62759,0.0521 3.0078,0.64454 4.14063,1.77734 1.17186,1.19793 1.7578,2.64324 1.75781,4.33594 -1e-5,1.69271 -0.59246,3.13802 -1.77734,4.33594 -1.18491,1.18489 -2.62371,1.77734 -4.31641,1.77734 -1.66667,0 -3.09896,-0.59245 -4.29688,-1.77734 -1.18489,-1.19792 -1.77734,-2.64323 -1.77734,-4.33594 0,-1.6927 0.59245,-3.13801 1.77734,-4.33594 0.23438,-0.22134 0.47526,-0.42967 0.72266,-0.625 -1.58854,-1.84894 -2.38281,-3.95832 -2.38281,-6.32812 0,-3.22915 1.45833,-5.98305 4.375,-8.26172 2.91666,-2.27862 6.46483,-3.41794 10.64453,-3.41797 4.21873,3e-5 7.78643,1.13935 10.70312,3.41797 2.91664,2.27867 4.37497,5.03257 4.375,8.26172 -3e-5,2.3047 -0.74873,4.3685 -2.24609,6.1914" />
  </g>
</svg>
