<?xml version="1.0" encoding="UTF-8" standalone="no"?>
<!-- Created with Inkscape (http://www.inkscape.org/) -->

<svg
   xmlns:dc="http://purl.org/dc/elements/1.1/"
   xmlns:cc="http://creativecommons.org/ns#"
   xmlns:rdf="http://www.w3.org/1999/02/22-rdf-syntax-ns#"
   xmlns:svg="http://www.w3.org/2000/svg"
   xmlns="http://www.w3.org/2000/svg"
   xmlns:sodipodi="http://sodipodi.sourceforge.net/DTD/sodipodi-0.dtd"
   xmlns:inkscape="http://www.inkscape.org/namespaces/inkscape"
   width="16.015625"
   height="32.558594"
   id="svg2"
   sodipodi:version="0.32"
   inkscape:version="0.48.4 r9939"
   version="1.0"
   sodipodi:docname="planet_pluto.svg">
  <defs
     id="defs4" />
  <sodipodi:namedview
     id="base"
     pagecolor="#ffffff"
     bordercolor="#666666"
     borderopacity="1.0"
     gridtolerance="10000"
     guidetolerance="10"
     objecttolerance="10"
     inkscape:pageopacity="0.0"
     inkscape:pageshadow="2"
     inkscape:zoom="1.979899"
     inkscape:cx="313.70761"
     inkscape:cy="-80.814602"
     inkscape:document-units="px"
     inkscape:current-layer="layer1"
     inkscape:window-width="1920"
     inkscape:window-height="1021"
     inkscape:window-x="0"
     inkscape:window-y="27"
     showgrid="false"
     fit-margin-top="0"
     fit-margin-left="0"
     fit-margin-right="0"
     fit-margin-bottom="0"
     inkscape:window-maximized="1" />
  <metadata
     id="metadata7">
    <rdf:RDF>
      <cc:Work
         rdf:about="">
        <dc:format>image/svg+xml</dc:format>
        <dc:type
           rdf:resource="http://purl.org/dc/dcmitype/StillImage" />
        <dc:title></dc:title>
      </cc:Work>
    </rdf:RDF>
  </metadata>
  <g
     inkscape:label="Layer 1"
     inkscape:groupmode="layer"
     id="layer1"
     transform="translate(-273.15825,-376.4373)">
    <g
       transform="translate(258.5991,387.1767)"
       style="font-size:40px;font-style:normal;font-variant:normal;font-weight:normal;font-stretch:normal;line-height:125%;letter-spacing:0px;word-spacing:0px;fill:#000000;fill-opacity:1;stroke:none;font-family:Cantarell;-inkscape-font-specification:Cantarell"
       id="text2990">
      <path
         d="m 18.660714,12.209822 c -0.755219,0.768234 -1.132823,1.692712 -1.132812,2.773437 -1.1e-5,1.080731 0.377593,1.998699 1.132812,2.753906 0.768217,0.768229 1.692695,1.152343 2.773438,1.152344 1.080713,-1e-6 1.998681,-0.384115 2.753906,-1.152344 0.768211,-0.755207 1.152325,-1.673175 1.152344,-2.753906 -1.9e-5,-1.080725 -0.384133,-2.005203 -1.152344,-2.773437 -0.755225,-0.768223 -1.673193,-1.152337 -2.753906,-1.152344 -1.080743,7e-6 -2.005221,0.384121 -2.773438,1.152344 m 2.773438,9.609375 c -1.888034,-4e-6 -3.509126,-0.670577 -4.863282,-2.011719 -1.341154,-1.341147 -2.011726,-2.955728 -2.011718,-4.84375 -8e-6,-1.901037 0.677075,-3.522129 2.03125,-4.863281 0.937489,-0.924471 2.011707,-1.5299391 3.222656,-1.8164065 l 0,-19.0234375 3.359375,0 0,5.9765625 5.722656,-3.3789063 1.679688,2.890625 -7.011719,4.0820313 7.011719,4.1015625 -1.679688,2.890625 -5.722656,-3.3984375 0,5.8984375 c 1.158837,0.2864674 2.193992,0.8789147 3.105469,1.777344 1.354145,1.341152 2.031228,2.962244 2.03125,4.863281 -2.2e-5,1.888022 -0.677105,3.502603 -2.03125,4.84375 -1.341164,1.341142 -2.955746,2.011715 -4.84375,2.011719"
         style="font-family:Cantarell;-inkscape-font-specification:Cantarell"
         id="path3390" />
    </g>
  </g>
</svg>
