<?xml version="1.0" encoding="UTF-8" standalone="no"?>
<!-- Created with Inkscape (http://www.inkscape.org/) -->

<svg
   xmlns:dc="http://purl.org/dc/elements/1.1/"
   xmlns:cc="http://creativecommons.org/ns#"
   xmlns:rdf="http://www.w3.org/1999/02/22-rdf-syntax-ns#"
   xmlns:svg="http://www.w3.org/2000/svg"
   xmlns="http://www.w3.org/2000/svg"
   xmlns:sodipodi="http://sodipodi.sourceforge.net/DTD/sodipodi-0.dtd"
   xmlns:inkscape="http://www.inkscape.org/namespaces/inkscape"
   width="22.460938"
   height="34.277344"
   id="svg2"
   sodipodi:version="0.32"
   inkscape:version="0.48.4 r9939"
   version="1.0"
   sodipodi:docname="planet_mercury.svg">
  <defs
     id="defs4" />
  <sodipodi:namedview
     id="base"
     pagecolor="#ffffff"
     bordercolor="#666666"
     borderopacity="1.0"
     gridtolerance="10000"
     guidetolerance="10"
     objecttolerance="10"
     inkscape:pageopacity="0.0"
     inkscape:pageshadow="2"
     inkscape:zoom="1.979899"
     inkscape:cx="125.12639"
     inkscape:cy="-35.63885"
     inkscape:document-units="px"
     inkscape:current-layer="layer1"
     inkscape:window-width="1920"
     inkscape:window-height="1021"
     inkscape:window-x="0"
     inkscape:window-y="27"
     showgrid="false"
     fit-margin-top="0"
     fit-margin-left="0"
     fit-margin-right="0"
     fit-margin-bottom="0"
     inkscape:window-maximized="1" />
  <metadata
     id="metadata7">
    <rdf:RDF>
      <cc:Work
         rdf:about="">
        <dc:format>image/svg+xml</dc:format>
        <dc:type
           rdf:resource="http://purl.org/dc/dcmitype/StillImage" />
        <dc:title></dc:title>
      </cc:Work>
    </rdf:RDF>
  </metadata>
  <g
     inkscape:label="Layer 1"
     inkscape:groupmode="layer"
     id="layer1"
     transform="translate(-268.80278,-375.59746)">
    <g
       transform="translate(258.5991,387.1767)"
       style="font-size:40px;font-style:normal;font-variant:normal;font-weight:normal;font-stretch:normal;line-height:125%;letter-spacing:0px;word-spacing:0px;fill:#000000;fill-opacity:1;stroke:none;font-family:Cantarell;-inkscape-font-specification:Cantarell"
       id="text2990">
      <path
         d="m 21.434152,-8.083147 c -2.13543,2.57e-5 -3.958344,0.7422125 -5.46875,2.2265625 -1.497404,1.484397 -2.246101,3.294291 -2.246094,5.42968745 -7e-6,2.12241185 0.74869,3.88673295 2.246094,5.29296875 1.510406,1.4062614 3.33332,2.1093857 5.46875,2.109375 2.096337,1.07e-5 3.906231,-0.7031136 5.429687,-2.109375 1.523416,-1.4062358 2.285134,-3.1705569 2.285156,-5.29296875 -2.2e-5,-2.13539645 -0.76174,-3.94529045 -2.285156,-5.42968745 -1.523456,-1.48435 -3.33335,-2.2265368 -5.429687,-2.2265625 M 13.504464,7.2879467 c -2.200525,-2.0442584 -3.300785,-4.6158704 -3.300781,-7.71484375 -4e-6,-3.11195795 1.093745,-5.74867405 3.28125,-7.91015625 2.187491,-2.1614297 4.837228,-3.2421587 7.949219,-3.2421877 3.072899,2.9e-5 5.709615,1.080758 7.910156,3.2421877 2.213517,2.1614822 3.320287,4.7981983 3.320312,7.91015625 -2.5e-5,3.11199415 -1.100285,5.68360615 -3.300781,7.71484375 -1.770854,1.6406338 -3.828144,2.5781328 -6.171875,2.8125003 l 0,5.15625 5.3125,0 0,2.421875 -5.3125,0 0,5.019531 -3.515625,0 0,-5.019531 -5.3125,0 0,-2.421875 5.3125,0 0,-5.175782 C 17.319558,9.8595691 15.262268,8.9285805 13.504464,7.2879467"
         style="font-family:Cantarell;-inkscape-font-specification:Cantarell"
         id="path3180" />
    </g>
  </g>
</svg>
