<?xml version="1.0" encoding="UTF-8" standalone="no"?>
<!-- Created with Inkscape (http://www.inkscape.org/) -->

<svg
   xmlns:dc="http://purl.org/dc/elements/1.1/"
   xmlns:cc="http://creativecommons.org/ns#"
   xmlns:rdf="http://www.w3.org/1999/02/22-rdf-syntax-ns#"
   xmlns:svg="http://www.w3.org/2000/svg"
   xmlns="http://www.w3.org/2000/svg"
   xmlns:sodipodi="http://sodipodi.sourceforge.net/DTD/sodipodi-0.dtd"
   xmlns:inkscape="http://www.inkscape.org/namespaces/inkscape"
   width="30.664062"
   height="28.925781"
   id="svg2"
   sodipodi:version="0.32"
   inkscape:version="0.48.4 r9939"
   version="1.0"
   sodipodi:docname="planet_asc_node.svg">
  <defs
     id="defs4" />
  <sodipodi:namedview
     id="base"
     pagecolor="#ffffff"
     bordercolor="#666666"
     borderopacity="1.0"
     gridtolerance="10000"
     guidetolerance="10"
     objecttolerance="10"
     inkscape:pageopacity="0.0"
     inkscape:pageshadow="2"
     inkscape:zoom="1.979899"
     inkscape:cx="319.03964"
     inkscape:cy="-97.416151"
     inkscape:document-units="px"
     inkscape:current-layer="layer1"
     inkscape:window-width="1920"
     inkscape:window-height="1021"
     inkscape:window-x="0"
     inkscape:window-y="27"
     showgrid="false"
     fit-margin-top="0"
     fit-margin-left="0"
     fit-margin-right="0"
     fit-margin-bottom="0"
     inkscape:window-maximized="1" />
  <metadata
     id="metadata7">
    <rdf:RDF>
      <cc:Work
         rdf:about="">
        <dc:format>image/svg+xml</dc:format>
        <dc:type
           rdf:resource="http://purl.org/dc/dcmitype/StillImage" />
        <dc:title></dc:title>
      </cc:Work>
    </rdf:RDF>
  </metadata>
  <g
     inkscape:label="Layer 1"
     inkscape:groupmode="layer"
     id="layer1"
     transform="translate(-267.82622,-375.92949)">
    <g
       transform="translate(258.5991,387.1767)"
       style="font-size:40px;font-style:normal;font-variant:normal;font-weight:normal;font-stretch:normal;line-height:125%;letter-spacing:0px;word-spacing:0px;fill:#000000;fill-opacity:1;stroke:none;font-family:Cantarell;-inkscape-font-specification:Cantarell"
       id="text2990">
      <path
         d="m 37.254464,-5.1534595 c -3e-5,-0.9504971 -0.338572,-1.7642984 -1.015625,-2.4414063 -0.677112,-0.6770574 -1.490913,-1.0155987 -2.441406,-1.015625 -0.963568,2.63e-5 -1.783879,0.3385676 -2.460938,1.015625 -0.664086,0.6771079 -0.996117,1.4909092 -0.996093,2.4414063 -2.4e-5,0.9635635 0.332007,1.7838752 0.996093,2.4609375 0.677059,0.6640822 1.49737,0.9961131 2.460938,0.9960937 0.963514,1.94e-5 1.777315,-0.3320115 2.441406,-0.9960937 0.677053,-0.6770623 1.015595,-1.497374 1.015625,-2.4609375 m -18.496094,0 c -1.2e-5,-0.9635179 -0.338553,-1.7773192 -1.015625,-2.4414063 -0.664072,-0.6770574 -1.477874,-1.0155987 -2.441406,-1.015625 -0.950528,2.63e-5 -1.76433,0.3385676 -2.441406,1.015625 -0.677089,0.6640871 -1.01563,1.4778884 -1.015625,2.4414063 -5e-6,0.9505427 0.338536,1.7643439 1.015625,2.4414062 0.677076,0.6640822 1.490878,0.9961131 2.441406,0.9960938 0.963532,1.93e-5 1.777334,-0.3320116 2.441406,-0.9960938 0.677072,-0.6770623 1.015613,-1.4908635 1.015625,-2.4414062 M 39.441964,6.0379467 c -3.3e-5,3.2161543 -1.458364,5.9635473 -4.375,8.2421873 -2.916692,2.265626 -6.484397,3.398438 -10.703125,3.398438 -4.179701,0 -7.727874,-1.132812 -10.644531,-3.398438 C 10.802637,12.001494 9.3443053,9.254101 9.3443079,6.0379467 9.3443053,3.6942107 10.138575,1.604369 11.72712,-0.23158455 11.47972,-0.42687894 11.238835,-0.64172248 11.004464,-0.8761158 9.8195653,-2.0609919 9.227118,-3.4932821 9.2271204,-5.1729908 c -2.4e-6,-1.679663 0.5924449,-3.1119532 1.7773436,-4.296875 1.197911,-1.1848672 2.630202,-1.7773152 4.296875,-1.7773442 1.692698,2.9e-5 3.131499,0.592477 4.316406,1.7773442 1.184882,1.1849218 1.77733,2.617212 1.777344,4.296875 -1.4e-5,1.6797087 -0.585951,3.1119989 -1.757812,4.296875 -1.132825,1.14585074 -2.513032,1.73829807 -4.140625,1.77734375 -1.575528,1.48439025 -2.363288,3.20964895 -2.363282,5.17578125 -6e-6,2.3437593 1.087233,4.3359448 3.261719,5.9765628 2.187488,1.627608 4.843736,2.441409 7.96875,2.441406 3.124979,3e-6 5.774716,-0.813798 7.949219,-2.441406 2.187472,-1.640618 3.281221,-3.6328035 3.28125,-5.9765628 -2.9e-5,-1.9791531 -0.787789,-3.7044118 -2.363281,-5.17578125 -1.445338,-0.1171706 -2.695337,-0.70310752 -3.75,-1.7578125 -1.171897,-1.19789695 -1.757834,-2.63669755 -1.757813,-4.31640625 -2.1e-5,-1.679663 0.592427,-3.1119532 1.777344,-4.296875 1.184872,-1.1848672 2.617162,-1.7773152 4.296875,-1.7773442 1.69268,2.9e-5 3.13148,0.592477 4.316406,1.7773442 1.184863,1.1849218 1.777311,2.617212 1.777344,4.296875 -3.3e-5,1.6797087 -0.592481,3.1185093 -1.777344,4.31640625 -0.286489,0.28647658 -0.592479,0.54038258 -0.917969,0.76171875 1.497364,1.8099118 2.246061,3.8541806 2.246094,6.1328125"
         style="font-family:Cantarell;-inkscape-font-specification:Cantarell"
         id="path3473" />
    </g>
  </g>
</svg>
