<?xml version="1.0" encoding="UTF-8" standalone="no"?>
<!-- Created with Inkscape (http://www.inkscape.org/) -->

<svg
   xmlns:dc="http://purl.org/dc/elements/1.1/"
   xmlns:cc="http://creativecommons.org/ns#"
   xmlns:rdf="http://www.w3.org/1999/02/22-rdf-syntax-ns#"
   xmlns:svg="http://www.w3.org/2000/svg"
   xmlns="http://www.w3.org/2000/svg"
   xmlns:sodipodi="http://sodipodi.sourceforge.net/DTD/sodipodi-0.dtd"
   xmlns:inkscape="http://www.inkscape.org/namespaces/inkscape"
   width="22.460938"
   height="34.277344"
   id="svg2"
   sodipodi:version="0.32"
   inkscape:version="0.48.4 r9939"
   version="1.0"
   sodipodi:docname="planet_venus.svg">
  <defs
     id="defs4" />
  <sodipodi:namedview
     id="base"
     pagecolor="#ffffff"
     bordercolor="#666666"
     borderopacity="1.0"
     gridtolerance="10000"
     guidetolerance="10"
     objecttolerance="10"
     inkscape:pageopacity="0.0"
     inkscape:pageshadow="2"
     inkscape:zoom="1.979899"
     inkscape:cx="125.12639"
     inkscape:cy="-35.63885"
     inkscape:document-units="px"
     inkscape:current-layer="layer1"
     inkscape:window-width="1920"
     inkscape:window-height="1021"
     inkscape:window-x="0"
     inkscape:window-y="27"
     showgrid="false"
     fit-margin-top="0"
     fit-margin-left="0"
     fit-margin-right="0"
     fit-margin-bottom="0"
     inkscape:window-maximized="1" />
  <metadata
     id="metadata7">
    <rdf:RDF>
      <cc:Work
         rdf:about="">
        <dc:format>image/svg+xml</dc:format>
        <dc:type
           rdf:resource="http://purl.org/dc/dcmitype/StillImage" />
        <dc:title></dc:title>
      </cc:Work>
    </rdf:RDF>
  </metadata>
  <g
     inkscape:label="Layer 1"
     inkscape:groupmode="layer"
     id="layer1">
    <path
       inkscape:connector-curvature="0"
       id="planet_venus"
       style="font-size:40px;font-style:normal;font-variant:normal;font-weight:normal;font-stretch:normal;line-height:125%;letter-spacing:0px;word-spacing:0px;fill:#000000;fill-opacity:1;stroke:none;font-family:Cantarell;-inkscape-font-specification:Cantarell"
       d="m 11.23047,3.49609 c -2.13543,3e-5 -3.95834,0.74222 -5.46875,2.22657 -1.4974,1.48439 -2.2461,3.29429 -2.24609,5.42968 -10e-6,2.12241 0.74869,3.88674 2.24609,5.29297 1.51041,1.40626 3.33332,2.10939 5.46875,2.10938 2.09634,10e-6 3.90623,-0.70312 5.42969,-2.10938 1.52341,-1.40623 2.28513,-3.17056 2.28516,-5.29297 -3e-5,-2.13539 -0.76175,-3.94529 -2.28516,-5.42968 -1.52346,-1.48435 -3.33335,-2.22654 -5.42969,-2.22657 m -7.92969,15.3711 c -2.20052,-2.04426 -3.30078,-4.61587 -3.30078,-7.71485 0,-3.11196 1.09375,-5.74867 3.28125,-7.91015 2.18749,-2.16143 4.83723,-3.24216 7.94922,-3.24219 3.0729,3e-5 5.70962,1.08076 7.91016,3.24219 2.21351,2.16148 3.32029,4.79819 3.32031,7.91015 -2e-5,3.112 -1.10028,5.68361 -3.30078,7.71485 -1.77085,1.64063 -3.82815,2.57813 -6.17188,2.8125 l 0,5.15625 5.3125,0 0,2.42187 -5.3125,0 0,5.01953 -3.51562,0 0,-5.01953 -5.3125,0 0,-2.42187 5.3125,0 0,-5.17579 c -2.35678,-0.22134 -4.41407,-1.15233 -6.17188,-2.79296" />
  </g>
</svg>
