<?xml version="1.0" encoding="UTF-8" standalone="no"?>
<!-- Created with Inkscape (http://www.inkscape.org/) -->

<svg
   xmlns:dc="http://purl.org/dc/elements/1.1/"
   xmlns:cc="http://creativecommons.org/ns#"
   xmlns:rdf="http://www.w3.org/1999/02/22-rdf-syntax-ns#"
   xmlns:svg="http://www.w3.org/2000/svg"
   xmlns="http://www.w3.org/2000/svg"
   xmlns:sodipodi="http://sodipodi.sourceforge.net/DTD/sodipodi-0.dtd"
   xmlns:inkscape="http://www.inkscape.org/namespaces/inkscape"
   width="25.683594"
   height="29.21875"
   id="svg2"
   sodipodi:version="0.32"
   inkscape:version="0.48.4 r9939"
   version="1.0"
   sodipodi:docname="planet_uranus.svg">
  <defs
     id="defs4" />
  <sodipodi:namedview
     id="base"
     pagecolor="#ffffff"
     bordercolor="#666666"
     borderopacity="1.0"
     gridtolerance="10000"
     guidetolerance="10"
     objecttolerance="10"
     inkscape:pageopacity="0.0"
     inkscape:pageshadow="2"
     inkscape:zoom="1.979899"
     inkscape:cx="231.04399"
     inkscape:cy="-70.541172"
     inkscape:document-units="px"
     inkscape:current-layer="layer1"
     inkscape:window-width="1920"
     inkscape:window-height="1021"
     inkscape:window-x="0"
     inkscape:window-y="27"
     showgrid="false"
     fit-margin-top="0"
     fit-margin-left="0"
     fit-margin-right="0"
     fit-margin-bottom="0"
     inkscape:window-maximized="1" />
  <metadata
     id="metadata7">
    <rdf:RDF>
      <cc:Work
         rdf:about="">
        <dc:format>image/svg+xml</dc:format>
        <dc:type
           rdf:resource="http://purl.org/dc/dcmitype/StillImage" />
        <dc:title></dc:title>
      </cc:Work>
    </rdf:RDF>
  </metadata>
  <g
     inkscape:label="Layer 1"
     inkscape:groupmode="layer"
     id="layer1"
     transform="translate(-270.46294,-375.63652)">
    <g
       transform="translate(258.5991,387.1767)"
       style="font-size:40px;font-style:normal;font-variant:normal;font-weight:normal;font-stretch:normal;line-height:125%;letter-spacing:0px;word-spacing:0px;fill:#000000;fill-opacity:1;stroke:none;font-family:Cantarell;-inkscape-font-specification:Cantarell"
       id="text2990">
      <path
         d="m 26.199777,14.026228 0,3.652344 -2.949219,0 0,-3.652344 -3.4375,0 0,-2.949219 3.4375,0 0,-2.7148435 C 21.102106,8.0757167 19.233618,7.1382177 17.645089,5.5496655 15.691955,3.5965545 14.708883,1.2202548 14.69587,-1.5792408 l 0,-1.640625 -2.8125,2.7734375 -0.01953,-2.734375 2.832031,-2.9882812 2.96875,0 2.8125,2.9882812 0,2.734375 -2.8125,-2.7734375 0,1.640625 0.03906,0 0,0.039063 -0.03906,0 c 0.01301,1.96616309 0.696603,3.6263177 2.050782,4.9804688 1.015611,1.028659 2.193995,1.6731896 3.535156,1.9335937 l 0,-13.9453125 -2.832031,2.7539063 -0.01953,-2.7148438 2.851563,-3.0078122 2.949219,0 2.832031,3.0078122 0,2.7148438 -2.832031,-2.7539063 0,13.9257813 c 1.315083,-0.2604041 2.473936,-0.8984243 3.476562,-1.9140625 1.380184,-1.3801928 2.070288,-3.04685776 2.070313,-5 l 0,-0.019531 0.01953,0 0,-1.7382812 -2.8125,2.77343745 -0.01953,-2.73437495 2.832031,-2.9882813 2.96875,0 2.8125,2.9882813 0,2.73437495 -2.8125,-2.77343745 0,1.7382812 0.01953,0 0,0.078125 c -0.01305,2.7474123 -0.996121,5.0976703 -2.949219,7.0507813 -1.588565,1.5755313 -3.457052,2.5130304 -5.605468,2.8125 l 0,2.7148435 3.417968,0 0,2.949219 -3.417968,0"
         style="font-family:Cantarell;-inkscape-font-specification:Cantarell"
         id="path3330" />
    </g>
  </g>
</svg>
