<?xml version="1.0" encoding="UTF-8" standalone="no"?>
<!-- Created with Inkscape (http://www.inkscape.org/) -->

<svg
   xmlns:dc="http://purl.org/dc/elements/1.1/"
   xmlns:cc="http://creativecommons.org/ns#"
   xmlns:rdf="http://www.w3.org/1999/02/22-rdf-syntax-ns#"
   xmlns:svg="http://www.w3.org/2000/svg"
   xmlns="http://www.w3.org/2000/svg"
   xmlns:sodipodi="http://sodipodi.sourceforge.net/DTD/sodipodi-0.dtd"
   xmlns:inkscape="http://www.inkscape.org/namespaces/inkscape"
   width="43.417969"
   height="41.933594"
   id="svg2"
   version="1.1"
   inkscape:version="0.48.4 r9939"
   sodipodi:docname="28 - Vénusz.svg">
  <defs
     id="defs4" />
  <sodipodi:namedview
     id="base"
     pagecolor="#ffffff"
     bordercolor="#666666"
     borderopacity="1.0"
     inkscape:pageopacity="0.0"
     inkscape:pageshadow="2"
     inkscape:zoom="0.7810999"
     inkscape:cx="59.482802"
     inkscape:cy="165.94898"
     inkscape:document-units="px"
     inkscape:current-layer="text3055"
     showgrid="false"
     fit-margin-top="0"
     fit-margin-left="0"
     fit-margin-right="0"
     fit-margin-bottom="0"
     inkscape:window-width="1920"
     inkscape:window-height="1021"
     inkscape:window-x="0"
     inkscape:window-y="27"
     inkscape:window-maximized="1" />
  <metadata
     id="metadata7">
    <rdf:RDF>
      <cc:Work
         rdf:about="">
        <dc:format>image/svg+xml</dc:format>
        <dc:type
           rdf:resource="http://purl.org/dc/dcmitype/StillImage" />
        <dc:title></dc:title>
      </cc:Work>
    </rdf:RDF>
  </metadata>
  <g
     inkscape:label="1. réteg"
     inkscape:groupmode="layer"
     id="layer1"
     transform="translate(-90.441762,-733.30227)">
    <g
       transform="translate(4.1941991,642.27564)"
       style="font-size:40px;font-style:normal;font-variant:normal;font-weight:normal;font-stretch:normal;line-height:125%;letter-spacing:0px;word-spacing:0px;fill:#000000;fill-opacity:1;stroke:none;font-family:Placidus Symbols;-inkscape-font-specification:Placidus Symbols"
       id="text3055">
      <g
         transform="translate(90.146894,97.16202)"
         style="line-height:125%;fill:#000000;font-family:Placidus Symbols;-inkscape-font-specification:Placidus Symbols"
         id="text3783">
        <path
           d="m 13.893637,28.923208 c 0.716128,-0.716147 1.276023,-1.536459 1.679688,-2.460937 0.416647,-0.937499 0.62498,-1.933592 0.625,-2.988282 -2e-5,-1.054683 -0.188822,-2.031244 -0.566407,-2.929687 -0.364602,-0.911451 -0.944029,-1.744784 -1.738281,-2.5 -0.664079,-0.690095 -1.484391,-1.24348 -2.460937,-1.660156 -0.963556,-0.429677 -1.9661595,-0.644521 -3.0078128,-0.644532 -1.0416779,1.1e-5 -2.0182394,0.214855 -2.9296875,0.644532 -0.8724043,0.338551 -1.6666744,0.859384 -2.3828125,1.5625 -0.7161521,0.703133 -1.2890682,1.549486 -1.71875,2.539062 -0.3125049,0.820318 -0.46875479,1.738286 -0.46875002,2.753906 -4.77e-6,1.21094 0.22785962,2.350262 0.68359372,3.417969 0.3775984,0.924478 0.8723895,1.699217 1.484375,2.324219 0.6249925,0.638018 1.4062417,1.15234 2.34375,1.542969 0.9505106,0.39062 1.9466034,0.585933 2.9882813,0.585937 1.0025909,-4e-6 1.9791528,-0.182296 2.9296878,-0.546875 0.950504,-0.364587 1.796858,-0.911461 2.539062,-1.640625 M 15.749106,13.473989 31.198325,-1.4283543 20.788168,-4.2799168 39.518637,-6.1353855 36.940512,11.149771 34.420981,1.8919582 18.854575,16.579458 l 0.15625,0.234375 c 0.611955,0.820322 1.061174,1.790373 1.347656,2.910156 0.286434,1.106777 0.429663,2.356776 0.429687,3.75 -2.4e-5,1.601564 -0.273461,3.085938 -0.820312,4.453125 -0.585961,1.484373 -1.516949,2.903642 -2.792969,4.257813 -1.041686,1.04166 -2.278664,1.881503 -3.710937,2.519531 -1.62762,0.729158 -3.287775,1.093741 -4.9804691,1.09375 -2.0833435,-9e-6 -3.9257896,-0.377613 -5.5273437,-1.132812 -1.9140674,-0.898445 -3.47656584,-2.350267 -4.6875,-4.355469 -0.6510431,-0.846357 -1.1653655,-1.829429 -1.5429688,-2.949219 -0.4166668,-1.210937 -0.6249999,-2.467446 -0.625,-3.769531 10e-8,-0.84635 0.097656,-1.712235 0.2929688,-2.597656 0.3385411,-1.679681 0.8919259,-3.131502 1.6601562,-4.355469 0.8723931,-1.393218 2.05728775,-2.565092 3.5546875,-3.515625 0.9505145,-0.664048 1.9986905,-1.15884 3.1445313,-1.484375 1.1588444,-0.325506 2.4023327,-0.488266 3.7304687,-0.488281 1.2239448,1.5e-5 2.3893081,0.156265 3.4960941,0.46875 1.276024,0.364598 2.447898,0.924493 3.515625,1.679687 l 0.253906,0.175781"
           id="path3788"
           inkscape:connector-curvature="0" />
      </g>
    </g>
  </g>
</svg>
