<?xml version="1.0" encoding="UTF-8" standalone="no"?>
<!-- Created with Inkscape (http://www.inkscape.org/) -->

<svg
   xmlns:dc="http://purl.org/dc/elements/1.1/"
   xmlns:cc="http://creativecommons.org/ns#"
   xmlns:rdf="http://www.w3.org/1999/02/22-rdf-syntax-ns#"
   xmlns:svg="http://www.w3.org/2000/svg"
   xmlns="http://www.w3.org/2000/svg"
   xmlns:sodipodi="http://sodipodi.sourceforge.net/DTD/sodipodi-0.dtd"
   xmlns:inkscape="http://www.inkscape.org/namespaces/inkscape"
   width="25.683594"
   height="29.21875"
   id="svg2"
   sodipodi:version="0.32"
   inkscape:version="0.48.4 r9939"
   version="1.0"
   sodipodi:docname="planet_neptune.svg">
  <defs
     id="defs4" />
  <sodipodi:namedview
     id="base"
     pagecolor="#ffffff"
     bordercolor="#666666"
     borderopacity="1.0"
     gridtolerance="10000"
     guidetolerance="10"
     objecttolerance="10"
     inkscape:pageopacity="0.0"
     inkscape:pageshadow="2"
     inkscape:zoom="1.979899"
     inkscape:cx="231.04399"
     inkscape:cy="-70.541172"
     inkscape:document-units="px"
     inkscape:current-layer="layer1"
     inkscape:window-width="1920"
     inkscape:window-height="1021"
     inkscape:window-x="0"
     inkscape:window-y="27"
     showgrid="false"
     fit-margin-top="0"
     fit-margin-left="0"
     fit-margin-right="0"
     fit-margin-bottom="0"
     inkscape:window-maximized="1" />
  <metadata
     id="metadata7">
    <rdf:RDF>
      <cc:Work
         rdf:about="">
        <dc:format>image/svg+xml</dc:format>
        <dc:type
           rdf:resource="http://purl.org/dc/dcmitype/StillImage" />
        <dc:title></dc:title>
      </cc:Work>
    </rdf:RDF>
  </metadata>
  <g
     inkscape:label="Layer 1"
     inkscape:groupmode="layer"
     id="layer1">
    <path
       inkscape:connector-curvature="0"
       id="planet_neptune"
       style="font-size:40px;font-style:normal;font-variant:normal;font-weight:normal;font-stretch:normal;line-height:125%;letter-spacing:0px;word-spacing:0px;fill:#000000;fill-opacity:1;stroke:none;font-family:Cantarell;-inkscape-font-specification:Cantarell"
       d="m 14.33594,25.56641 0,3.65234 -2.94922,0 0,-3.65234 -3.4375,0 0,-2.94922 3.4375,0 0,-2.71484 c -2.14845,-0.28645 -4.01694,-1.22395 -5.60547,-2.8125 -1.95313,-1.95312 -2.93621,-4.32942 -2.94922,-7.12891 l 0,-1.64063 -2.8125,2.77344 -0.0195,-2.73437 2.83203,-2.98828 2.96875,0 2.8125,2.98828 0,2.73437 -2.8125,-2.77344 0,1.64063 0.0391,0 0,0.0391 -0.0391,0 c 0.013,1.96617 0.6966,3.62632 2.05078,4.98047 1.01561,1.02866 2.194,1.67319 3.53516,1.93359 l 0,-13.94531 -2.83203,2.75391 -0.0195,-2.71485 2.85156,-3.00781 2.94922,0 2.83203,3.00781 0,2.71485 -2.83203,-2.75391 0,13.92578 c 1.31508,-0.2604 2.47394,-0.89842 3.47656,-1.91406 1.38019,-1.38019 2.07029,-3.04686 2.07031,-5 l 0,-0.0195 0.0195,0 0,-1.73828 -2.8125,2.77344 -0.0195,-2.73438 2.83204,-2.98828 2.96875,0 2.8125,2.98828 0,2.73438 -2.8125,-2.77344 0,1.73828 0.0195,0 0,0.0781 c -0.013,2.74742 -0.99612,5.09768 -2.94922,7.05079 -1.58857,1.57553 -3.45705,2.51303 -5.60547,2.8125 l 0,2.71484 3.41797,0 0,2.94922 -3.41797,0" />
  </g>
</svg>
