<?xml version="1.0" encoding="UTF-8" standalone="no"?>
<!-- Created with Inkscape (http://www.inkscape.org/) -->

<svg
   xmlns:dc="http://purl.org/dc/elements/1.1/"
   xmlns:cc="http://creativecommons.org/ns#"
   xmlns:rdf="http://www.w3.org/1999/02/22-rdf-syntax-ns#"
   xmlns:svg="http://www.w3.org/2000/svg"
   xmlns="http://www.w3.org/2000/svg"
   xmlns:sodipodi="http://sodipodi.sourceforge.net/DTD/sodipodi-0.dtd"
   xmlns:inkscape="http://www.inkscape.org/namespaces/inkscape"
   width="17.714844"
   height="33.339844"
   id="svg2"
   sodipodi:version="0.32"
   inkscape:version="0.48.4 r9939"
   version="1.0"
   sodipodi:docname="planet_mercury.svg">
  <defs
     id="defs4" />
  <sodipodi:namedview
     id="base"
     pagecolor="#ffffff"
     bordercolor="#666666"
     borderopacity="1.0"
     gridtolerance="10000"
     guidetolerance="10"
     objecttolerance="10"
     inkscape:pageopacity="0.0"
     inkscape:pageshadow="2"
     inkscape:zoom="1.979899"
     inkscape:cx="140.56382"
     inkscape:cy="-33.451354"
     inkscape:document-units="px"
     inkscape:current-layer="layer1"
     inkscape:window-width="1920"
     inkscape:window-height="1021"
     inkscape:window-x="0"
     inkscape:window-y="27"
     showgrid="false"
     fit-margin-top="0"
     fit-margin-left="0"
     fit-margin-right="0"
     fit-margin-bottom="0"
     inkscape:window-maximized="1" />
  <metadata
     id="metadata7">
    <rdf:RDF>
      <cc:Work
         rdf:about="">
        <dc:format>image/svg+xml</dc:format>
        <dc:type
           rdf:resource="http://purl.org/dc/dcmitype/StillImage" />
        <dc:title></dc:title>
      </cc:Work>
    </rdf:RDF>
  </metadata>
  <g
     inkscape:label="Layer 1"
     inkscape:groupmode="layer"
     id="layer1">
    <path
       inkscape:connector-curvature="0"
       id="planet_mercury"
       style="font-size:40px;font-style:normal;font-variant:normal;font-weight:normal;font-stretch:normal;line-height:125%;letter-spacing:0px;word-spacing:0px;fill:#000000;fill-opacity:1;stroke:none;font-family:Cantarell;-inkscape-font-specification:Cantarell"
       d="m 13.63282,7.59765 c 0.52081,0.33857 1.0156,0.74221 1.48437,1.21094 1.73175,1.70575 2.59764,3.78908 2.59766,6.25 -2e-5,2.44793 -0.8594,4.47918 -2.57813,6.09375 -1.40627,1.30209 -3.04038,2.04428 -4.90234,2.22656 l 0,4.08203 4.21875,-0.0391 0,1.95313 -4.29688,0.0195 0.0195,3.94531 -2.51953,0 -0.0195,-3.96484 -3.94531,0 0,-1.91406 3.94531,0 -0.0391,-4.08204 c -1.91407,-0.16926 -3.58073,-0.91145 -5,-2.22656 -1.73177,-1.61457 -2.59766,-3.64582 -2.59765,-6.09375 -1e-5,-2.46092 0.86588,-4.54425 2.59765,-6.25 0.46875,-0.46873 0.96354,-0.87237 1.48438,-1.21093 -0.52084,-0.3255 -1.01563,-0.72915 -1.48438,-1.21094 -1.73177,-1.70571 -2.59766,-3.78253 -2.59765,-6.23047 l 0,-0.15625 2.77343,0 0,0.19531 c 0,1.69274 0.59245,3.12503 1.77735,4.29688 1.10676,1.08075 2.42186,1.66669 3.94531,1.75781 l 0.74219,0 c 1.5104,-0.0911 2.81899,-0.67706 3.92578,-1.75781 1.18488,-1.17185 1.77732,-2.60414 1.77734,-4.29688 l 0,-0.19531 2.77344,0 0,0.15625 c -2e-5,2.44794 -0.86591,4.52476 -2.59766,6.23047 -0.46876,0.48179 -0.96356,0.88544 -1.48437,1.21094 m -4.39453,1.36718 -0.74219,0 c -1.52345,0.0781 -2.83855,0.66408 -3.94531,1.75782 -1.1849,1.15887 -1.77735,2.58465 -1.77735,4.27734 0,1.69272 0.59245,3.09246 1.77735,4.19922 1.19791,1.10678 2.64322,1.66016 4.33593,1.66015 1.65364,1e-5 3.07291,-0.55337 4.25782,-1.66015 1.1979,-1.10676 1.79685,-2.5065 1.79687,-4.19922 -2e-5,-1.69269 -0.59246,-3.11847 -1.77734,-4.27734 -1.10679,-1.09374 -2.41538,-1.67967 -3.92578,-1.75782" />
  </g>
</svg>
