<?xml version="1.0" encoding="UTF-8" standalone="no"?>
<!-- Created with Inkscape (http://www.inkscape.org/) -->

<svg
   xmlns:dc="http://purl.org/dc/elements/1.1/"
   xmlns:cc="http://creativecommons.org/ns#"
   xmlns:rdf="http://www.w3.org/1999/02/22-rdf-syntax-ns#"
   xmlns:svg="http://www.w3.org/2000/svg"
   xmlns="http://www.w3.org/2000/svg"
   xmlns:sodipodi="http://sodipodi.sourceforge.net/DTD/sodipodi-0.dtd"
   xmlns:inkscape="http://www.inkscape.org/namespaces/inkscape"
   width="24.628906"
   height="43.125"
   id="svg2"
   version="1.1"
   inkscape:version="0.48.4 r9939"
   sodipodi:docname="27 - Merkúr.svg">
  <defs
     id="defs4" />
  <sodipodi:namedview
     id="base"
     pagecolor="#ffffff"
     bordercolor="#666666"
     borderopacity="1.0"
     inkscape:pageopacity="0.0"
     inkscape:pageshadow="2"
     inkscape:zoom="0.7810999"
     inkscape:cx="55.58347"
     inkscape:cy="173.27578"
     inkscape:document-units="px"
     inkscape:current-layer="text3055"
     showgrid="false"
     fit-margin-top="0"
     fit-margin-left="0"
     fit-margin-right="0"
     fit-margin-bottom="0"
     inkscape:window-width="1920"
     inkscape:window-height="1021"
     inkscape:window-x="0"
     inkscape:window-y="27"
     inkscape:window-maximized="1" />
  <metadata
     id="metadata7">
    <rdf:RDF>
      <cc:Work
         rdf:about="">
        <dc:format>image/svg+xml</dc:format>
        <dc:type
           rdf:resource="http://purl.org/dc/dcmitype/StillImage" />
        <dc:title></dc:title>
      </cc:Work>
    </rdf:RDF>
  </metadata>
  <g
     inkscape:label="1. réteg"
     inkscape:groupmode="layer"
     id="layer1"
     transform="translate(-94.341093,-739.43766)">
    <g
       transform="translate(4.1941991,642.27564)"
       style="font-size:40px;font-style:normal;font-variant:normal;font-weight:normal;font-stretch:normal;line-height:125%;letter-spacing:0px;word-spacing:0px;fill:#000000;fill-opacity:1;stroke:none;font-family:Placidus Symbols;-inkscape-font-specification:Placidus Symbols"
       id="text3055">
      <g
         transform="translate(86.306156,82.06247)"
         style="line-height:125%;fill:#000000;font-family:Placidus Symbols;-inkscape-font-specification:Placidus Symbols"
         id="text3757">
        <path
           d="m 16.164957,35.294865 c 2.096339,1.5e-5 3.899723,-0.755193 5.410156,-2.265625 0.729148,-0.729149 1.295554,-1.549461 1.699219,-2.460938 0.403626,-0.924458 0.605448,-1.920551 0.605468,-2.988281 -2e-5,-1.028622 -0.195332,-2.011694 -0.585937,-2.949219 -0.390644,-0.937473 -0.96356,-1.757785 -1.71875,-2.460937 -0.66408,-0.716117 -1.46486,-1.276012 -2.402344,-1.679688 -0.924494,-0.416636 -1.927097,-0.624969 -3.007812,-0.625 -0.559908,3.1e-5 -1.07423,0.05211 -1.542969,0.15625 -0.46876,0.09118 -0.950531,0.253937 -1.445313,0.488281 -1.302091,0.46878 -2.382819,1.302112 -3.2421872,2.5 -0.9635468,1.328152 -1.4453171,2.851587 -1.4453125,4.570313 -4.6e-6,0.533876 0.045568,1.048199 0.1367188,1.542969 0.091141,0.481791 0.2408804,0.957051 0.4492187,1.425781 0.5598901,1.367206 1.4322852,2.480486 2.6171872,3.339844 1.289054,0.937515 2.779938,1.406265 4.472657,1.40625 m 2.265625,4.238281 0.03906,7.148437 6.953125,0 0,4.589844 -6.953125,0 0,6.953125 -4.628906,0 0,-6.953125 -6.9140627,0 0,-4.589844 6.9140627,0 0.01953,-7.148437 -0.175781,-0.03906 C 12.095938,39.155553 10.683179,38.589147 9.4462066,37.794865 8.0920357,36.922482 6.9266722,35.763629 5.9501128,34.318302 5.2990697,33.39384 4.7847473,32.345664 4.4071441,31.173771 4.0295397,30.001916 3.8407378,28.745407 3.8407378,27.40424 c 0,-1.236955 0.1692707,-2.434871 0.5078125,-3.59375 0.3385408,-1.158827 0.8723945,-2.246065 1.6015625,-3.261719 1.1588509,-1.614552 2.5520787,-2.890592 4.1796872,-3.828125 1.861971,-1.080694 3.873688,-1.621058 6.035157,-1.621094 1.549465,3.6e-5 2.994776,0.260452 4.335937,0.78125 1.53644,0.598992 2.988262,1.556023 4.355469,2.871094 1.106749,1.028676 1.985654,2.298206 2.636719,3.808594 0.651017,1.497422 0.976537,3.112004 0.976562,4.84375 -2.5e-5,1.276063 -0.143254,2.428406 -0.429687,3.457031 -0.338566,1.197935 -0.891951,2.363298 -1.660157,3.496094 -0.768251,1.119806 -1.738302,2.096368 -2.910156,2.929687 -1.367206,0.976575 -2.975277,1.712251 -4.824219,2.207031 l -0.214843,0.03906"
           id="path3762"
           inkscape:connector-curvature="0" />
      </g>
    </g>
  </g>
</svg>
