<?xml version="1.0" encoding="UTF-8" standalone="no"?>
<!-- Created with Inkscape (http://www.inkscape.org/) -->

<svg
   xmlns:dc="http://purl.org/dc/elements/1.1/"
   xmlns:cc="http://creativecommons.org/ns#"
   xmlns:rdf="http://www.w3.org/1999/02/22-rdf-syntax-ns#"
   xmlns:svg="http://www.w3.org/2000/svg"
   xmlns="http://www.w3.org/2000/svg"
   xmlns:sodipodi="http://sodipodi.sourceforge.net/DTD/sodipodi-0.dtd"
   xmlns:inkscape="http://www.inkscape.org/namespaces/inkscape"
   width="22.578125"
   height="29.21875"
   id="svg2"
   sodipodi:version="0.32"
   inkscape:version="0.48.4 r9939"
   version="1.0"
   sodipodi:docname="planet_mars.svg">
  <defs
     id="defs4" />
  <sodipodi:namedview
     id="base"
     pagecolor="#ffffff"
     bordercolor="#666666"
     borderopacity="1.0"
     gridtolerance="10000"
     guidetolerance="10"
     objecttolerance="10"
     inkscape:pageopacity="0.0"
     inkscape:pageshadow="2"
     inkscape:zoom="1.979899"
     inkscape:cx="209.29797"
     inkscape:cy="-49.486498"
     inkscape:document-units="px"
     inkscape:current-layer="layer1"
     inkscape:window-width="1920"
     inkscape:window-height="1021"
     inkscape:window-x="0"
     inkscape:window-y="27"
     showgrid="false"
     fit-margin-top="0"
     fit-margin-left="0"
     fit-margin-right="0"
     fit-margin-bottom="0"
     inkscape:window-maximized="1" />
  <metadata
     id="metadata7">
    <rdf:RDF>
      <cc:Work
         rdf:about="">
        <dc:format>image/svg+xml</dc:format>
        <dc:type
           rdf:resource="http://purl.org/dc/dcmitype/StillImage" />
        <dc:title></dc:title>
      </cc:Work>
    </rdf:RDF>
  </metadata>
  <g
     inkscape:label="Layer 1"
     inkscape:groupmode="layer"
     id="layer1"
     transform="translate(-272.00591,-375.63652)">
    <g
       transform="translate(258.5991,387.1767)"
       style="font-size:40px;font-style:normal;font-variant:normal;font-weight:normal;font-stretch:normal;line-height:125%;letter-spacing:0px;word-spacing:0px;fill:#000000;fill-opacity:1;stroke:none;font-family:Cantarell;-inkscape-font-specification:Cantarell"
       id="text2990">
      <path
         d="m 22.03962,7.307478 0,-0.019531 c 1.588525,1.04e-5 2.93618,-0.5533745 4.042969,-1.6601562 1.106751,-1.1197785 1.660135,-2.4674334 1.660156,-4.0429688 -2.1e-5,-1.57550316 -0.553405,-2.9166477 -1.660156,-4.0234375 -1.093768,-1.1197704 -2.441423,-1.6796657 -4.042969,-1.6796875 -1.575534,2.18e-5 -2.923189,0.5599171 -4.042968,1.6796875 -1.106781,1.1067898 -1.660166,2.44793434 -1.660157,4.0234375 l 0,0.039063 -2.929687,0 c -7e-6,-2.4088357 0.839836,-4.4596149 2.519531,-6.1523437 1.679677,-1.6926845 3.717435,-2.5390378 6.113281,-2.5390625 2.434879,2.47e-5 4.492168,0.846378 6.171875,2.5390625 1.679665,1.6927288 2.519508,3.743508 2.519532,6.1523437 -2.4e-5,2.1875139 -0.709659,4.0820432 -2.128907,5.6835938 l 4.433594,0 0,-18.847656 2.949219,0 0,29.21875 -2.949219,0 0,-7.421875 -19.628906,0 0,-2.949219 8.632812,0"
         style="font-family:Cantarell;-inkscape-font-specification:Cantarell"
         id="path3240" />
    </g>
  </g>
</svg>
