<?xml version="1.0" encoding="UTF-8" standalone="no"?>
<!-- Created with Inkscape (http://www.inkscape.org/) -->

<svg
   xmlns:dc="http://purl.org/dc/elements/1.1/"
   xmlns:cc="http://creativecommons.org/ns#"
   xmlns:rdf="http://www.w3.org/1999/02/22-rdf-syntax-ns#"
   xmlns:svg="http://www.w3.org/2000/svg"
   xmlns="http://www.w3.org/2000/svg"
   xmlns:sodipodi="http://sodipodi.sourceforge.net/DTD/sodipodi-0.dtd"
   xmlns:inkscape="http://www.inkscape.org/namespaces/inkscape"
   width="39.375004"
   height="46.230469"
   id="svg2"
   version="1.1"
   inkscape:version="0.48.4 r9939"
   sodipodi:docname="35 - Felszálló Holdcsomópont.svg">
  <defs
     id="defs4" />
  <sodipodi:namedview
     id="base"
     pagecolor="#ffffff"
     bordercolor="#666666"
     borderopacity="1.0"
     inkscape:pageopacity="0.0"
     inkscape:pageshadow="2"
     inkscape:zoom="0.7810999"
     inkscape:cx="-7.3438927"
     inkscape:cy="-21.598381"
     inkscape:document-units="px"
     inkscape:current-layer="text3055"
     showgrid="false"
     fit-margin-top="0"
     fit-margin-left="0"
     fit-margin-right="0"
     fit-margin-bottom="0"
     inkscape:window-width="1920"
     inkscape:window-height="1021"
     inkscape:window-x="0"
     inkscape:window-y="27"
     inkscape:window-maximized="1" />
  <metadata
     id="metadata7">
    <rdf:RDF>
      <cc:Work
         rdf:about="">
        <dc:format>image/svg+xml</dc:format>
        <dc:type
           rdf:resource="http://purl.org/dc/dcmitype/StillImage" />
        <dc:title></dc:title>
      </cc:Work>
    </rdf:RDF>
  </metadata>
  <g
     inkscape:label="1. réteg"
     inkscape:groupmode="layer"
     id="layer1"
     transform="translate(-157.26845,-541.45803)">
    <g
       transform="translate(4.1941991,642.27564)"
       style="font-size:40px;font-style:normal;font-variant:normal;font-weight:normal;font-stretch:normal;line-height:125%;letter-spacing:0px;word-spacing:0px;fill:#000000;fill-opacity:1;stroke:none;font-family:Placidus Symbols;-inkscape-font-specification:Placidus Symbols"
       id="text3055">
      <g
         transform="translate(145.39278,-112.65545)"
         style="line-height:125%;fill:#000000;font-family:Placidus Symbols;-inkscape-font-specification:Placidus Symbols"
         id="text3965">
        <path
           d="m 47.056476,20.802681 c -0.15629,1.875026 -0.527383,3.424504 -1.113282,4.648437 -0.494829,1.041689 -1.165401,1.894553 -2.011718,2.558594 -0.625036,0.481791 -1.399775,0.891947 -2.324219,1.230469 0.976527,1.236997 1.861943,3.515641 2.65625,6.835937 0.807254,3.307302 1.2109,6.360684 1.210937,9.160157 -3.7e-5,3.476562 -1.334671,6.30208 -4.003906,8.476562 -2.00524,1.627598 -4.667998,2.825513 -7.988281,3.59375 -2.200545,0.507804 -4.179709,0.76171 -5.9375,0.761719 -2.265643,-9e-6 -4.726578,-0.475269 -7.382813,-1.425781 -2.955738,-1.054695 -5.351569,-2.434902 -7.1875,-4.140625 -2.161461,-2.00521 -3.2421892,-4.212239 -3.2421871,-6.621094 -2.1e-6,-0.325518 0.019529,-0.657549 0.058594,-0.996094 0.3645801,-3.138014 0.8268201,-5.657542 1.3867181,-7.558594 0.377601,-1.289049 0.924475,-2.649725 1.640625,-4.082031 0.833328,-1.67967 1.406244,-2.95571 1.71875,-3.828125 -2.447921,-0.455709 -4.257815,-1.601541 -5.4296868,-3.4375 -0.9505213,-1.48435 -1.4257813,-3.287734 -1.4257813,-5.410156 0,-2.174449 0.5013016,-3.958301 1.5039063,-5.351563 0.8463518,-1.184861 2.0312458,-2.070276 3.5546868,-2.65625 1.249994,-0.481734 2.61067,-0.722619 4.082032,-0.722656 2.408842,3.7e-5 4.368476,0.638057 5.878906,1.914063 1.158838,0.976596 2.005191,2.278678 2.539062,3.90625 0.364566,1.106801 0.546857,2.154977 0.546875,3.144531 -1.8e-5,2.057318 -0.377622,3.645858 -1.132812,4.765625 -0.533871,0.794293 -1.386734,1.497418 -2.558594,2.109375 -1.432305,0.755229 -2.31121,1.276061 -2.636719,1.5625 -1.1e-5,0.768248 -0.377615,2.148455 -1.132812,4.140625 -1.171885,3.072929 -1.875009,4.98699 -2.109375,5.742187 -0.768237,2.408862 -1.152351,4.44662 -1.152344,6.113282 -7e-6,1.861981 0.833325,3.535156 2.5,5.019531 1.393218,1.236976 3.190091,2.226559 5.390625,2.96875 1.927066,0.651037 3.632794,0.976557 5.117188,0.976562 1.497374,-5e-6 3.209611,-0.449223 5.136718,-1.347656 1.940077,-0.89844 3.606742,-2.011721 5,-3.339844 1.523406,-1.458332 2.38929,-2.890622 2.597657,-4.296875 0.05205,-0.611975 0.07809,-1.041662 0.07813,-1.289062 0.01299,-0.260412 0.0195,-0.468745 0.01953,-0.625 -3.3e-5,-1.66666 -0.182325,-3.352856 -0.546875,-5.058594 -0.351595,-1.718738 -0.807324,-3.359361 -1.367188,-4.921875 -0.45576,-1.276025 -0.989613,-2.519513 -1.601562,-3.730469 -2.552111,-0.377584 -4.589869,-1.523416 -6.113281,-3.4375 -1.341168,-1.692684 -2.011741,-3.554661 -2.011719,-5.585937 -2.2e-5,-2.148407 0.533832,-3.912728 1.601562,-5.292969 0.898414,-1.158819 2.135392,-2.018193 3.710938,-2.578125 1.289034,-0.455692 2.695283,-0.683557 4.21875,-0.683594 2.096321,3.7e-5 3.815069,0.52087 5.15625,1.5625 1.106733,0.846389 1.927045,2.018263 2.460937,3.515625 0.429649,1.184927 0.644492,2.421905 0.644532,3.710938 m -3.964844,-0.234375 c -3.6e-5,-1.367158 -0.436233,-2.480438 -1.308594,-3.339844 -0.872429,-0.859342 -1.966178,-1.289029 -3.28125,-1.289062 -1.588571,3.3e-5 -2.799507,0.520865 -3.632812,1.5625 -0.67711,0.846384 -1.015652,1.868519 -1.015625,3.066406 -2.7e-5,1.380235 0.494765,2.513047 1.484375,3.398437 0.898409,0.807316 1.953095,1.210962 3.164062,1.210938 1.380176,2.4e-5 2.506477,-0.475236 3.378906,-1.425781 0.807257,-0.885391 1.210902,-1.946588 1.210938,-3.183594 m -21.5625,0 c -1.4e-5,-1.3932 -0.462253,-2.526011 -1.386719,-3.398438 -0.872407,-0.82028 -1.940115,-1.230435 -3.203125,-1.230468 -1.536466,3.3e-5 -2.70834,0.514355 -3.515625,1.542968 -0.664067,0.846385 -0.996098,1.894561 -0.996094,3.144532 0.143225,1.523464 0.677078,2.688827 1.601563,3.496093 0.807284,0.703149 1.777336,1.054712 2.910156,1.054688 1.341135,2.4e-5 2.454416,-0.475236 3.339844,-1.425781 0.83332,-0.898412 1.249986,-1.959609 1.25,-3.183594"
           id="path3970"
           inkscape:connector-curvature="0" />
      </g>
    </g>
  </g>
</svg>
