<?xml version="1.0" encoding="UTF-8" standalone="no"?>
<!-- Created with Inkscape (http://www.inkscape.org/) -->

<svg
   xmlns:dc="http://purl.org/dc/elements/1.1/"
   xmlns:cc="http://creativecommons.org/ns#"
   xmlns:rdf="http://www.w3.org/1999/02/22-rdf-syntax-ns#"
   xmlns:svg="http://www.w3.org/2000/svg"
   xmlns="http://www.w3.org/2000/svg"
   xmlns:sodipodi="http://sodipodi.sourceforge.net/DTD/sodipodi-0.dtd"
   xmlns:inkscape="http://www.inkscape.org/namespaces/inkscape"
   width="18.242188"
   height="29.21875"
   id="svg2"
   sodipodi:version="0.32"
   inkscape:version="0.48.4 r9939"
   version="1.0"
   sodipodi:docname="planet_moon.svg">
  <defs
     id="defs4" />
  <sodipodi:namedview
     id="base"
     pagecolor="#ffffff"
     bordercolor="#666666"
     borderopacity="1.0"
     gridtolerance="10000"
     guidetolerance="10"
     objecttolerance="10"
     inkscape:pageopacity="0.0"
     inkscape:pageshadow="2"
     inkscape:zoom="1.979899"
     inkscape:cx="192.3957"
     inkscape:cy="-30.306827"
     inkscape:document-units="px"
     inkscape:current-layer="layer1"
     inkscape:window-width="1920"
     inkscape:window-height="1021"
     inkscape:window-x="0"
     inkscape:window-y="27"
     showgrid="false"
     fit-margin-top="0"
     fit-margin-left="0"
     fit-margin-right="0"
     fit-margin-bottom="0"
     inkscape:window-maximized="1" />
  <metadata
     id="metadata7">
    <rdf:RDF>
      <cc:Work
         rdf:about="">
        <dc:format>image/svg+xml</dc:format>
        <dc:type
           rdf:resource="http://purl.org/dc/dcmitype/StillImage" />
        <dc:title></dc:title>
      </cc:Work>
    </rdf:RDF>
  </metadata>
  <g
     inkscape:label="Layer 1"
     inkscape:groupmode="layer"
     id="layer1">
    <path
       inkscape:connector-curvature="0"
       id="planet_moon"
       style="font-size:40px;font-style:normal;font-variant:normal;font-weight:normal;font-stretch:normal;line-height:125%;letter-spacing:0px;word-spacing:0px;fill:#000000;fill-opacity:1;stroke:none;font-family:Cantarell;-inkscape-font-specification:Cantarell"
       d="m 3.14453,29.21875 c 5.14324,0 9.49219,-2.45442 13.04687,-7.36328 1.36719,-2.25259 2.05079,-4.66796 2.05078,-7.24609 10e-6,-5.10415 -2.57812,-9.32941 -7.73437,-12.67578 -2.33072,-1.28904 -4.64842,-1.93357 -6.95313,-1.9336 l -0.95703,0 c -0.59894,3e-5 -1.41925,0.0977 -2.46094,0.29297 l 0,0.13672 c 3.59377,1.02867 6.21096,2.69534 7.85157,5 2.00522,2.64325 3.00782,5.70314 3.00781,9.17969 1e-5,5.20834 -2.17447,9.27735 -6.52344,12.20703 -1.77081,1.02864 -3.2617,1.64713 -4.47265,1.85547 l 0,0.0781 c 2e-5,0.1302 0.97007,0.28645 2.91015,0.46875 l 0.23438,0 m 0.54687,-1.21094 0,-0.0586 c 5.95053,-2.5651 8.92579,-7.05728 8.92578,-13.47656 10e-6,-5.22134 -2.18749,-9.34243 -6.5625,-12.36328 l -0.85937,-0.46875 0,-0.0586 0.11719,0 c 1.1198,3e-5 2.71485,0.54039 4.78515,1.6211 3.02084,1.95314 5.07162,4.52476 6.15235,7.71484 0.36458,1.19793 0.54688,2.40887 0.54687,3.63281 l 0,0.17578 c 10e-6,4.14064 -2.2526,7.90366 -6.75781,11.28907 -2.13541,1.32812 -4.23176,1.99218 -6.28906,1.99218 l -0.0586,0" />
  </g>
</svg>
