<?xml version="1.0" encoding="UTF-8" standalone="no"?>
<!-- Created with Inkscape (http://www.inkscape.org/) -->

<svg
   xmlns:dc="http://purl.org/dc/elements/1.1/"
   xmlns:cc="http://creativecommons.org/ns#"
   xmlns:rdf="http://www.w3.org/1999/02/22-rdf-syntax-ns#"
   xmlns:svg="http://www.w3.org/2000/svg"
   xmlns="http://www.w3.org/2000/svg"
   xmlns:sodipodi="http://sodipodi.sourceforge.net/DTD/sodipodi-0.dtd"
   xmlns:inkscape="http://www.inkscape.org/namespaces/inkscape"
   width="16.621094"
   height="29.21875"
   id="svg2"
   sodipodi:version="0.32"
   inkscape:version="0.48.4 r9939"
   version="1.0"
   sodipodi:docname="planet_neptune.svg">
  <defs
     id="defs4" />
  <sodipodi:namedview
     id="base"
     pagecolor="#ffffff"
     bordercolor="#666666"
     borderopacity="1.0"
     gridtolerance="10000"
     guidetolerance="10"
     objecttolerance="10"
     inkscape:pageopacity="0.0"
     inkscape:pageshadow="2"
     inkscape:zoom="1.979899"
     inkscape:cx="210.85642"
     inkscape:cy="-77.748199"
     inkscape:document-units="px"
     inkscape:current-layer="layer1"
     inkscape:window-width="1920"
     inkscape:window-height="1021"
     inkscape:window-x="0"
     inkscape:window-y="27"
     showgrid="false"
     fit-margin-top="0"
     fit-margin-left="0"
     fit-margin-right="0"
     fit-margin-bottom="0"
     inkscape:window-maximized="1" />
  <metadata
     id="metadata7">
    <rdf:RDF>
      <cc:Work
         rdf:about="">
        <dc:format>image/svg+xml</dc:format>
        <dc:type
           rdf:resource="http://purl.org/dc/dcmitype/StillImage" />
        <dc:title></dc:title>
      </cc:Work>
    </rdf:RDF>
  </metadata>
  <g
     inkscape:label="Layer 1"
     inkscape:groupmode="layer"
     id="layer1"
     transform="translate(-274.99419,-375.63652)">
    <g
       transform="translate(258.5991,387.1767)"
       style="font-size:40px;font-style:normal;font-variant:normal;font-weight:normal;font-stretch:normal;line-height:125%;letter-spacing:0px;word-spacing:0px;fill:#000000;fill-opacity:1;stroke:none;font-family:Cantarell;-inkscape-font-specification:Cantarell"
       id="text2990">
      <path
         d="m 16.551339,-11.540178 7.988281,0 c 3.93227,2.9e-5 6.549455,1.354194 7.851563,4.0624997 0.416641,1.0026283 0.624974,2.1224189 0.625,3.359375 -2.6e-5,3.46356 -1.634139,5.7942868 -4.902344,6.9921875 -0.76825,0.2213688 -1.503926,0.3320457 -2.207031,0.3320313 l -6.679688,0 0,11.6210935 12.382813,0 0.15625,0.15625 0,2.539063 -0.15625,0.15625 -15.058594,0 -0.15625,-0.15625 0,-28.886719 0.15625,-0.175781 m 2.675781,2.7343747 0,9.296875 6.367188,0 c 1.692688,1.719e-5 3.007791,-0.84633613 3.945312,-2.5390625 0.208311,-0.3385216 0.364561,-1.0286251 0.46875,-2.0703125 -2.3e-5,-2.1353927 -1.054709,-3.5937246 -3.164062,-4.375 -0.481791,-0.208307 -1.250019,-0.3124735 -2.304688,-0.3125 l -5.3125,0"
         style="font-family:Cantarell;-inkscape-font-specification:Cantarell"
         id="path3360" />
    </g>
  </g>
</svg>
