<?xml version="1.0" encoding="UTF-8" standalone="no"?>
<!-- Created with Inkscape (http://www.inkscape.org/) -->

<svg
   xmlns:dc="http://purl.org/dc/elements/1.1/"
   xmlns:cc="http://creativecommons.org/ns#"
   xmlns:rdf="http://www.w3.org/1999/02/22-rdf-syntax-ns#"
   xmlns:svg="http://www.w3.org/2000/svg"
   xmlns="http://www.w3.org/2000/svg"
   xmlns:sodipodi="http://sodipodi.sourceforge.net/DTD/sodipodi-0.dtd"
   xmlns:inkscape="http://www.inkscape.org/namespaces/inkscape"
   width="46.210938"
   height="46.210938"
   id="svg2"
   version="1.1"
   inkscape:version="0.48.4 r9939"
   sodipodi:docname="24 - Halak 2.svg">
  <defs
     id="defs4" />
  <sodipodi:namedview
     id="base"
     pagecolor="#ffffff"
     bordercolor="#666666"
     borderopacity="1.0"
     inkscape:pageopacity="0.0"
     inkscape:pageshadow="2"
     inkscape:zoom="0.7810999"
     inkscape:cx="68.913274"
     inkscape:cy="149.30211"
     inkscape:document-units="px"
     inkscape:current-layer="text3055"
     showgrid="false"
     fit-margin-top="0"
     fit-margin-left="0"
     fit-margin-right="0"
     fit-margin-bottom="0"
     inkscape:window-width="1920"
     inkscape:window-height="1021"
     inkscape:window-x="0"
     inkscape:window-y="27"
     inkscape:window-maximized="1" />
  <metadata
     id="metadata7">
    <rdf:RDF>
      <cc:Work
         rdf:about="">
        <dc:format>image/svg+xml</dc:format>
        <dc:type
           rdf:resource="http://purl.org/dc/dcmitype/StillImage" />
        <dc:title></dc:title>
      </cc:Work>
    </rdf:RDF>
  </metadata>
  <g
     inkscape:label="1. réteg"
     inkscape:groupmode="layer"
     id="layer1"
     transform="translate(-81.011289,-712.37807)">
    <g
       transform="translate(4.1941991,642.27564)"
       style="font-size:40px;font-style:normal;font-variant:normal;font-weight:normal;font-stretch:normal;line-height:125%;letter-spacing:0px;word-spacing:0px;fill:#000000;fill-opacity:1;stroke:none;font-family:Placidus Symbols;-inkscape-font-specification:Placidus Symbols"
       id="text3055">
      <g
         transform="translate(76.81709,62.82989)"
         style="line-height:125%;fill:#000000;font-family:Placidus Symbols;-inkscape-font-specification:Placidus Symbols"
         id="text3679">
        <path
           d="m 23.085937,48.854576 c 2.460912,-5e-6 4.791639,-0.436202 6.992188,-1.308594 2.343718,-0.937502 4.361945,-2.304688 6.054687,-4.101562 1.653609,-1.614581 2.94267,-3.450517 3.867188,-5.507813 1.054646,-2.343741 1.58199,-4.86978 1.582031,-7.578125 -4.1e-5,-1.770817 -0.312541,-3.574201 -0.9375,-5.410156 -0.612019,-1.848937 -1.503945,-3.64581 -2.675781,-5.390625 -1.588578,-2.408827 -3.496128,-4.244763 -5.722656,-5.507812 -2.565134,-1.458302 -5.618516,-2.187468 -9.160157,-2.1875 -2.903666,3.2e-5 -5.611996,0.644563 -8.124999,1.933593 -2.682304,1.380238 -5.0846458,3.457059 -7.2070318,6.230469 -0.98959,1.601585 -1.7317768,3.138042 -2.2265625,4.609375 -0.6250049,1.835955 -0.9375045,3.743505 -0.9375,5.722656 -4.5e-6,2.421887 0.4296825,4.707041 1.2890625,6.855469 C 6.7903578,39.492602 8.1640543,41.569422 10,43.44442 c 1.614572,1.614582 3.417955,2.877602 5.410156,3.789062 2.369774,1.080725 4.928365,1.621089 7.675781,1.621094 m 0,4.628906 c -3.059915,-9e-6 -5.98309,-0.566415 -8.769531,-1.699218 C 11.542957,50.651445 9.0299389,48.958738 6.7773437,46.706139 4.746089,44.609784 3.1575489,42.285568 2.0117188,39.733482 0.67057225,36.76474 0,33.639743 0,30.358482 c 0,-4.66144 1.3281237,-8.95831 3.984375,-12.890625 2.0052023,-3.046845 4.5768144,-5.462207 7.714844,-7.246093 3.450505,-1.9661103 7.246075,-2.9491822 11.386718,-2.9492191 3.072891,3.69e-5 5.957003,0.5338905 8.652344,1.6015625 2.903611,1.1458676 5.455692,2.8841466 7.65625,5.2148436 2.05725,1.940132 3.684853,4.264349 4.882813,6.972656 1.289017,2.929708 1.933547,6.028663 1.933593,9.296875 -4.6e-5,3.697927 -0.820357,7.148445 -2.460937,10.351563 -1.744834,3.411458 -4.322956,6.341143 -7.734375,8.789062 -1.862013,1.249994 -3.815136,2.207024 -5.859375,2.871094 -2.265653,0.742179 -4.622421,1.113272 -7.070313,1.113281 m 0,-18.496093 c -1.197938,9e-6 -2.278666,-0.45572 -3.242187,-1.367188 -0.403665,-0.403635 -0.729186,-0.878895 -0.976563,-1.425781 -0.247414,-0.559883 -0.371112,-1.171862 -0.371093,-1.835938 -1.9e-5,-1.223943 0.4492,-2.304671 1.347656,-3.242187 0.429667,-0.42967 0.911438,-0.761701 1.445312,-0.996094 0.533833,-0.234357 1.132791,-0.351544 1.796875,-0.351562 1.197893,1.8e-5 2.233048,0.423195 3.105469,1.269531 0.88539,0.84637 1.393202,1.95314 1.523438,3.320312 -2.8e-5,1.263034 -0.455757,2.350272 -1.367188,3.261719 -0.794296,0.755218 -1.881535,1.210947 -3.261719,1.367188"
           id="path3684"
           inkscape:connector-curvature="0" />
      </g>
    </g>
  </g>
</svg>
