<?xml version="1.0" encoding="UTF-8" standalone="no"?>
<!-- Created with Inkscape (http://www.inkscape.org/) -->

<svg
   xmlns:dc="http://purl.org/dc/elements/1.1/"
   xmlns:cc="http://creativecommons.org/ns#"
   xmlns:rdf="http://www.w3.org/1999/02/22-rdf-syntax-ns#"
   xmlns:svg="http://www.w3.org/2000/svg"
   xmlns="http://www.w3.org/2000/svg"
   xmlns:sodipodi="http://sodipodi.sourceforge.net/DTD/sodipodi-0.dtd"
   xmlns:inkscape="http://www.inkscape.org/namespaces/inkscape"
   width="37.34375"
   height="45.351562"
   id="svg2"
   version="1.1"
   inkscape:version="0.48.4 r9939"
   sodipodi:docname="05 - Oroszlán.svg">
  <defs
     id="defs4" />
  <sodipodi:namedview
     id="base"
     pagecolor="#ffffff"
     bordercolor="#666666"
     borderopacity="1.0"
     inkscape:pageopacity="0.0"
     inkscape:pageshadow="2"
     inkscape:zoom="0.7810999"
     inkscape:cx="60.832243"
     inkscape:cy="89.420203"
     inkscape:document-units="px"
     inkscape:current-layer="text3055"
     showgrid="false"
     fit-margin-top="0"
     fit-margin-left="0"
     fit-margin-right="0"
     fit-margin-bottom="0"
     inkscape:window-width="1920"
     inkscape:window-height="1021"
     inkscape:window-x="0"
     inkscape:window-y="27"
     inkscape:window-maximized="1" />
  <metadata
     id="metadata7">
    <rdf:RDF>
      <cc:Work
         rdf:about="">
        <dc:format>image/svg+xml</dc:format>
        <dc:type
           rdf:resource="http://purl.org/dc/dcmitype/StillImage" />
        <dc:title></dc:title>
      </cc:Work>
    </rdf:RDF>
  </metadata>
  <g
     inkscape:label="1. réteg"
     inkscape:groupmode="layer"
     id="layer1"
     transform="translate(-89.092324,-653.35554)">
    <g
       transform="translate(4.1941991,642.27564)"
       style="font-size:40px;font-style:normal;font-variant:normal;font-weight:normal;font-stretch:normal;line-height:125%;letter-spacing:0px;word-spacing:0px;fill:#000000;fill-opacity:1;stroke:none;font-family:Placidus Symbols;-inkscape-font-specification:Placidus Symbols"
       id="text3055">
      <g
         transform="translate(76.936293,35.90235)"
         style="line-height:125%;fill:#000000;font-family:Placidus Symbols;-inkscape-font-specification:Placidus Symbols"
         id="text3185">
        <path
           d="m 14.407144,-11.013851 0,22.128906 -3.535156,0 0,-25.625 c -7e-6,-3.554658 -0.9700583,-6.777311 -2.9101564,-9.667969 l 3.7304684,0 c 1.302074,1.80993 2.207022,4.134146 2.714844,6.972657 1.197905,-2.916636 2.584622,-5.240852 4.160156,-6.972657 l 3.457032,-0.644531 c 1.575501,2.057326 2.578104,4.759146 3.007812,8.105469 0.768207,-2.49997 2.207008,-4.986947 4.316406,-7.460938 l 3.398438,-0.644531 c 1.914031,2.669304 2.871062,5.605499 2.871094,8.808594 l 0,6.7187498 c 0.468717,-1.3541448 0.943977,-2.5390398 1.425781,-3.5546878 0.494758,-1.028621 1.022101,-1.959609 1.582031,-2.792968 l 2.929688,-1.074219 c 2.499959,3.932315 3.749958,8.0273634 3.75,12.2851561 -4.2e-5,1.705743 -0.188844,3.3593872 -0.566407,4.96093748 -0.364624,1.58855062 -0.924519,3.12500742 -1.679687,4.60937502 -1.484413,2.9817738 -3.737015,5.7682294 -6.757813,8.3593754 0.273405,2.031245 1.490852,4.374993 3.652344,7.03125 l -4.160156,0 c -0.976594,-1.223967 -1.86852,-2.910163 -2.675781,-5.058594 -2.174507,1.249994 -4.869817,2.13541 -8.085938,2.65625 l 0,-3.027344 c 2.929663,-0.585941 5.397109,-1.471357 7.402344,-2.65625 C 32.317272,11.687971 32.226126,10.926253 32.16105,10.158024 32.09592,9.3897964 32.06337,8.621568 32.06339,7.8533363 l 0,-21.4648433 c -2.8e-5,-1.757786 -0.123726,-3.287733 -0.371094,-4.589844 -0.247423,-1.315074 -0.631537,-2.428354 -1.152343,-3.339844 -1.237005,1.341177 -2.317733,2.962269 -3.242188,4.863281 -0.911481,1.888047 -1.666688,4.056014 -2.265625,6.503907 l 0,21.289062 -3.574219,0 0,-23.554687 c -1.7e-5,-4.387993 -0.51434,-7.421844 -1.542968,-9.101563 -2.447931,2.838572 -4.283866,6.347683 -5.507813,10.527344 m 21.210938,21.210937 c 2.044237,-2.1223925 3.580693,-4.3880152 4.609375,-6.7968747 1.041629,-2.40884401 1.562462,-4.9609248 1.5625,-7.65625 -3.8e-5,-2.7864401 -0.625038,-5.5273228 -1.875,-8.2226563 -1.718785,2.135438 -3.151075,5.0195499 -4.296875,8.6523438 l 0,14.0234372"
           id="path3190"
           inkscape:connector-curvature="0" />
      </g>
    </g>
  </g>
</svg>
