<?xml version="1.0" encoding="UTF-8" standalone="no"?>
<!-- Created with Inkscape (http://www.inkscape.org/) -->

<svg
   xmlns:dc="http://purl.org/dc/elements/1.1/"
   xmlns:cc="http://creativecommons.org/ns#"
   xmlns:rdf="http://www.w3.org/1999/02/22-rdf-syntax-ns#"
   xmlns:svg="http://www.w3.org/2000/svg"
   xmlns="http://www.w3.org/2000/svg"
   xmlns:sodipodi="http://sodipodi.sourceforge.net/DTD/sodipodi-0.dtd"
   xmlns:inkscape="http://www.inkscape.org/namespaces/inkscape"
   width="37.734375"
   height="48.242188"
   id="svg2"
   version="1.1"
   inkscape:version="0.48.4 r9939"
   sodipodi:docname="04 - Rák 1.svg">
  <defs
     id="defs4" />
  <sodipodi:namedview
     id="base"
     pagecolor="#ffffff"
     bordercolor="#666666"
     borderopacity="1.0"
     inkscape:pageopacity="0.0"
     inkscape:pageshadow="2"
     inkscape:zoom="0.7810999"
     inkscape:cx="-256.3884"
     inkscape:cy="-95.387557"
     inkscape:document-units="px"
     inkscape:current-layer="text3055"
     showgrid="false"
     fit-margin-top="0"
     fit-margin-left="0"
     fit-margin-right="0"
     fit-margin-bottom="0"
     inkscape:window-width="1920"
     inkscape:window-height="1021"
     inkscape:window-x="0"
     inkscape:window-y="27"
     inkscape:window-maximized="1" />
  <metadata
     id="metadata7">
    <rdf:RDF>
      <cc:Work
         rdf:about="">
        <dc:format>image/svg+xml</dc:format>
        <dc:type
           rdf:resource="http://purl.org/dc/dcmitype/StillImage" />
        <dc:title></dc:title>
      </cc:Work>
    </rdf:RDF>
  </metadata>
  <g
     inkscape:label="1. réteg"
     inkscape:groupmode="layer"
     id="layer1"
     transform="translate(-81.130492,-678.17799)">
    <g
       transform="translate(4.1941991,642.27564)"
       style="font-size:40px;font-style:normal;font-variant:normal;font-weight:normal;font-stretch:normal;line-height:125%;letter-spacing:0px;word-spacing:0px;fill:#000000;fill-opacity:1;stroke:none;font-family:Placidus Symbols;-inkscape-font-specification:Placidus Symbols"
       id="text3055">
      <g
         transform="translate(68.974461,70.83819)"
         style="line-height:125%;fill:#000000;font-family:Placidus Symbols;-inkscape-font-specification:Placidus Symbols"
         id="text3159">
        <path
           d="M 45.696207,9.5172884 C 42.935751,12.043321 40.299035,13.306341 37.78605,13.306351 35.572477,13.306341 33.72352,12.583685 32.239175,11.138382 30.767794,9.6930633 30.032118,7.8896797 30.032144,5.7282259 30.032118,2.9027055 31.523002,-1.6871336 34.5048,-8.0413053 l 2.285157,-4.8828127 c 1.770798,-3.736959 2.656214,-6.783831 2.65625,-9.140625 -3.6e-5,-2.981742 -0.865921,-5.377573 -2.597657,-7.1875 -1.731802,-1.822882 -4.042997,-2.73434 -6.933593,-2.734375 -2.656274,3.5e-5 -4.81773,0.807326 -6.484375,2.421875 -1.666685,1.601594 -2.500018,3.723988 -2.5,6.367188 -1.8e-5,1.210962 0.188784,2.519555 0.566406,3.925781 0.390607,1.406271 0.976544,2.923197 1.757812,4.550781 l 0.9375,1.933594 c 1.549458,3.2422003 2.324196,5.5924584 2.324219,7.0507812 -2.3e-5,2.4088608 -0.924501,4.5182337 -2.773437,6.328125 -1.835956,1.8098967 -4.003923,2.7148437 -6.503907,2.7148437 -2.578136,0 -4.772144,-0.904947 -6.582031,-2.7148437 -1.7968799,-1.8098913 -2.6953166,-4.0104099 -2.6953124,-6.6015625 -4.2e-6,-2.4869674 0.8854116,-4.6419127 2.6562504,-6.4648437 1.783845,-1.822899 3.912749,-2.734357 6.386718,-2.734375 0.950507,1.8e-5 1.933579,0.162779 2.949219,0.488281 -1.718764,-3.281228 -2.578138,-6.191382 -2.578125,-8.730469 -1.3e-5,-3.28122 1.191392,-6.015592 3.574219,-8.203125 2.382793,-2.187462 5.364561,-3.281211 8.945312,-3.28125 3.945283,3.9e-5 7.109342,1.152381 9.492188,3.457032 2.395795,2.30472 3.593711,5.377633 3.59375,9.21875 -3.9e-5,1.914086 -0.195352,3.56122 -0.585938,4.941406 -0.390663,1.380228 -1.334672,3.658871 -2.832031,6.835937 l -1.640625,3.5742192 c -1.445345,3.1380279 -2.539094,5.742192 -3.28125,7.8125 -0.742217,2.0703128 -1.113311,3.5677072 -1.113281,4.4921875 -3e-5,1.3411424 0.410126,2.4544225 1.230469,3.3398437 0.82028,0.8984312 1.868456,1.3476496 3.144531,1.3476566 1.692672,-7e-6 3.593712,-0.950527 5.703125,-2.8515628 l 2.089844,2.2851562 M 10.618082,-5.9905241 c -7e-6,1.8750075 0.618482,3.4570371 1.855468,4.7460938 1.24999,1.27604494 2.792958,1.91406513 4.628907,1.9140625 1.744776,2.63e-6 3.255191,-0.64452797 4.53125,-1.9335938 1.289043,-1.3020774 1.933574,-2.8645759 1.933593,-4.6875 -1.9e-5,-1.8489472 -0.625019,-3.4114456 -1.875,-4.6875004 -1.250016,-1.289047 -2.792983,-1.933577 -4.628906,-1.933593 -1.757824,1.6e-5 -3.28126,0.644546 -4.570312,1.933593 -0.638029,0.6640762 -1.113289,1.3737109 -1.425782,2.1289067 -0.299486,0.7552194 -0.449225,1.5950623 -0.449218,2.5195312"
           id="path3164"
           inkscape:connector-curvature="0" />
      </g>
    </g>
  </g>
</svg>
