<?xml version="1.0" encoding="UTF-8" standalone="no"?>
<!-- Created with Inkscape (http://www.inkscape.org/) -->

<svg
   xmlns:dc="http://purl.org/dc/elements/1.1/"
   xmlns:cc="http://creativecommons.org/ns#"
   xmlns:rdf="http://www.w3.org/1999/02/22-rdf-syntax-ns#"
   xmlns:svg="http://www.w3.org/2000/svg"
   xmlns="http://www.w3.org/2000/svg"
   xmlns:sodipodi="http://sodipodi.sourceforge.net/DTD/sodipodi-0.dtd"
   xmlns:inkscape="http://www.inkscape.org/namespaces/inkscape"
   width="45.039062"
   height="35.3125"
   id="svg2"
   version="1.1"
   inkscape:version="0.48.4 r9939"
   sodipodi:docname="03 - Ikrek 1.svg">
  <defs
     id="defs4" />
  <sodipodi:namedview
     id="base"
     pagecolor="#ffffff"
     bordercolor="#666666"
     borderopacity="1.0"
     inkscape:pageopacity="0.0"
     inkscape:pageshadow="2"
     inkscape:zoom="0.7810999"
     inkscape:cx="-248.42657"
     inkscape:cy="-73.381408"
     inkscape:document-units="px"
     inkscape:current-layer="text3055"
     showgrid="false"
     fit-margin-top="0"
     fit-margin-left="0"
     fit-margin-right="0"
     fit-margin-bottom="0"
     inkscape:window-width="1920"
     inkscape:window-height="1021"
     inkscape:window-x="0"
     inkscape:window-y="27"
     inkscape:window-maximized="1" />
  <metadata
     id="metadata7">
    <rdf:RDF>
      <cc:Work
         rdf:about="">
        <dc:format>image/svg+xml</dc:format>
        <dc:type
           rdf:resource="http://purl.org/dc/dcmitype/StillImage" />
        <dc:title></dc:title>
      </cc:Work>
    </rdf:RDF>
  </metadata>
  <g
     inkscape:label="1. réteg"
     inkscape:groupmode="layer"
     id="layer1"
     transform="translate(-73.16866,-713.11383)">
    <g
       transform="translate(4.1941991,642.27564)"
       style="font-size:40px;font-style:normal;font-variant:normal;font-weight:normal;font-stretch:normal;line-height:125%;letter-spacing:0px;word-spacing:0px;fill:#000000;fill-opacity:1;stroke:none;font-family:Placidus Symbols;-inkscape-font-specification:Placidus Symbols"
       id="text3055">
      <g
         transform="translate(64.853367,88.02514)"
         style="line-height:125%;fill:#000000;font-family:Placidus Symbols;-inkscape-font-specification:Placidus Symbols"
         id="text3133">
        <path
           d="m 4.1210937,13.379456 0,-3.8476567 c 3.7109297,1.6927117 7.3437383,2.9622417 10.8984373,3.8085937 3.554669,0.846354 7.070291,1.269531 10.546875,1.269531 4.53122,0 8.203091,-0.592447 11.015625,-1.777343 -1.770868,-0.911456 -3.112012,-2.063799 -4.023437,-3.4570317 -0.91149,-1.3932229 -1.367219,-3.0338462 -1.367188,-4.921875 -3.1e-5,-2.4479044 0.885385,-4.55727729 2.65625,-6.328125 1.783819,-1.7838362 3.912723,-2.6757624 6.386719,-2.6757812 1.236938,1.88e-5 2.369749,0.2148623 3.398437,0.6445312 1.028602,0.4297053 1.998653,1.1002775 2.910157,2.0117188 1.744743,1.74480604 2.617138,3.8476685 2.617187,6.3085937 -4.9e-5,3.9322976 -2.40239,7.2005232 -7.207031,9.8046872 -4.791704,2.604164 -10.807323,3.906246 -18.046875,3.90625 -3.138042,-4e-6 -6.347674,-0.390628 -9.628906,-1.171875 C 11.009104,16.172422 7.6236903,14.981017 4.1210937,13.379456 M 33.554687,4.4732056 c -3.3e-5,1.796883 0.651008,3.3463606 1.953125,4.6484375 1.315068,1.2890659 2.890587,1.9335969 4.726563,1.9335939 1.835895,3e-6 3.385373,-0.631507 4.648437,-1.8945314 1.275996,-1.2630145 1.914016,-2.8059817 1.914063,-4.6289063 -4.7e-5,-1.8489467 -0.644577,-3.4309764 -1.933594,-4.74609373 -1.289106,-1.31508837 -2.845094,-1.97263977 -4.667969,-1.97265627 -1.835975,1.65e-5 -3.404984,0.6510575 -4.707031,1.95312502 C 34.199185,1.0682708 33.554654,2.6372797 33.554687,4.4732056 m 15.605469,-16.8945316 0,3.8476566 C 41.75126,-11.972081 34.60283,-13.671298 27.714844,-13.671326 c -4.492211,2.8e-5 -8.170593,0.598986 -11.035157,1.796875 1.770815,0.911484 3.11196,2.0638265 4.023438,3.4570316 0.924458,1.3932504 1.386697,3.0273634 1.386719,4.9023437 -2.2e-5,2.447932 -0.891949,4.5638153 -2.675782,6.3476563 -1.77085,1.770843 -3.893244,2.6562587 -6.367187,2.65625 C 10.585927,5.4888393 8.476554,4.6164444 6.71875,2.8716431 5.8593691,2.0122803 5.2083281,1.05525 4.765625,5.4931641e-4 4.3359332,-1.0671437 4.1210896,-2.2259967 4.1210937,-3.4760132 c -4.1e-6,-3.93227 2.3958269,-7.2004958 7.1875003,-9.8046878 4.79165,-2.604136 10.807269,-3.906218 18.046875,-3.90625 3.16403,3.2e-5 6.380172,0.390656 9.648437,1.171875 3.268187,0.78128 6.6536,1.979195 10.15625,3.59375 m -29.433594,8.8867191 c -1.9e-5,-1.8098763 -0.657571,-3.3528435 -1.972656,-4.6289063 -1.31512,-1.2890388 -2.89064,-1.9335698 -4.726562,-1.9335938 -1.835949,2.4e-5 -3.3854266,0.6250238 -4.6484377,1.8750001 -1.263028,1.2500212 -1.8945378,2.7994988 -1.8945313,4.6484375 -6.5e-6,1.8750159 0.6445241,3.463556 1.9335938,4.765625 1.2890527,1.2890742 2.8385302,1.9336048 4.6484372,1.9335937 1.835923,1.11e-5 3.404932,-0.6510299 4.707031,-1.953125 1.302065,-1.30206893 1.953106,-2.8710778 1.953125,-4.7070312"
           id="path3138"
           inkscape:connector-curvature="0" />
      </g>
    </g>
  </g>
</svg>
