<?xml version="1.0" encoding="UTF-8" standalone="no"?>
<!-- Created with Inkscape (http://www.inkscape.org/) -->

<svg
   xmlns:dc="http://purl.org/dc/elements/1.1/"
   xmlns:cc="http://creativecommons.org/ns#"
   xmlns:rdf="http://www.w3.org/1999/02/22-rdf-syntax-ns#"
   xmlns:svg="http://www.w3.org/2000/svg"
   xmlns="http://www.w3.org/2000/svg"
   xmlns:sodipodi="http://sodipodi.sourceforge.net/DTD/sodipodi-0.dtd"
   xmlns:inkscape="http://www.inkscape.org/namespaces/inkscape"
   width="32.032032"
   height="37"
   id="svg2"
   sodipodi:version="0.32"
   inkscape:version="0.48.4 r9939"
   version="1.0"
   sodipodi:docname="sign_virgo_purepath.svg">
  <defs
     id="defs4" />
  <sodipodi:namedview
     id="base"
     pagecolor="#ffffff"
     bordercolor="#666666"
     borderopacity="1.0"
     gridtolerance="10000"
     guidetolerance="10"
     objecttolerance="10"
     inkscape:pageopacity="0.0"
     inkscape:pageshadow="2"
     inkscape:zoom="11.2"
     inkscape:cx="-8.0058515"
     inkscape:cy="18.621592"
     inkscape:document-units="px"
     inkscape:current-layer="layer1"
     inkscape:window-width="1680"
     inkscape:window-height="991"
     inkscape:window-x="0"
     inkscape:window-y="27"
     showgrid="false"
     fit-margin-top="0"
     fit-margin-left="0"
     fit-margin-right="0"
     fit-margin-bottom="0"
     inkscape:window-maximized="1" />
  <metadata
     id="metadata7">
    <rdf:RDF>
      <cc:Work
         rdf:about="">
        <dc:format>image/svg+xml</dc:format>
        <dc:type
           rdf:resource="http://purl.org/dc/dcmitype/StillImage" />
        <dc:title />
      </cc:Work>
    </rdf:RDF>
  </metadata>
  <g
     inkscape:label="Layer 1"
     inkscape:groupmode="layer"
     id="layer1">
    <g
       style="font-size:40px;font-style:normal;font-variant:normal;font-weight:normal;font-stretch:normal;line-height:125%;letter-spacing:0px;word-spacing:0px;fill:none;stroke:#000000;stroke-opacity:1;font-family:Cantarell;-inkscape-font-specification:Cantarell"
       id="text2990" />
    <path
       style="fill:none;stroke:#000000;stroke-width:1;stroke-linecap:square;stroke-linejoin:miter;stroke-opacity:1;stroke-miterlimit:4;stroke-dasharray:none"
       d="m 259.33919,387.93367 c 0,0 3.02245,2.49937 2.9532,8.66907 0.0221,8.5053 -0.0953,20.1008 -0.0953,20.1008 0,0 0.0953,-7.61301 0.0953,-18.00498 1.18431,-4.69809 3.96673,-9.9815 6.28746,-10.57436 2.26911,-0.57967 3.42952,6.76378 3.42952,6.76378 l 0,21.7203 0,-18.10025 c 0,0 2.45886,-8.85656 6.57324,-10.47909 3.17455,-1.2519 2.66741,9.33592 2.66741,9.33592 0,0 0,13.83328 0,21.52977 0,1.81864 2.28635,4.95375 2.28635,4.95375 0,0 -2.38161,-2.98808 -2.38161,-4.76323 0,-6.12662 0.0953,-15.43284 0.0953,-15.43284 0,0 3.13951,-7.34101 5.52534,-8.00221 2.75837,-0.76445 3.30647,4.91456 3.33426,7.71642 0.0466,4.69959 -2.09798,9.6437 -5.33481,13.05123 -3.98509,4.19525 -10.1933,6.00166 -10.1933,6.00166"
       id="path13425"
       inkscape:connector-curvature="0"
       sodipodi:nodetypes="ccccscccscscscsssc" />
  </g>
</svg>
