<?xml version="1.0" encoding="UTF-8" standalone="no"?>
<!-- Created with Inkscape (http://www.inkscape.org/) -->

<svg
   xmlns:dc="http://purl.org/dc/elements/1.1/"
   xmlns:cc="http://creativecommons.org/ns#"
   xmlns:rdf="http://www.w3.org/1999/02/22-rdf-syntax-ns#"
   xmlns:svg="http://www.w3.org/2000/svg"
   xmlns="http://www.w3.org/2000/svg"
   xmlns:sodipodi="http://sodipodi.sourceforge.net/DTD/sodipodi-0.dtd"
   xmlns:inkscape="http://www.inkscape.org/namespaces/inkscape"
   width="29.179688"
   height="24.023438"
   id="svg2"
   sodipodi:version="0.32"
   inkscape:version="0.48.4 r9939"
   version="1.0"
   sodipodi:docname="sign_libra.svg">
  <defs
     id="defs4" />
  <sodipodi:namedview
     id="base"
     pagecolor="#ffffff"
     bordercolor="#666666"
     borderopacity="1.0"
     gridtolerance="10000"
     guidetolerance="10"
     objecttolerance="10"
     inkscape:pageopacity="0.0"
     inkscape:pageshadow="2"
     inkscape:zoom="1.979899"
     inkscape:cx="318.1412"
     inkscape:cy="-160.26766"
     inkscape:document-units="px"
     inkscape:current-layer="layer1"
     inkscape:window-width="1920"
     inkscape:window-height="1021"
     inkscape:window-x="0"
     inkscape:window-y="27"
     showgrid="false"
     fit-margin-top="0"
     fit-margin-left="0"
     fit-margin-right="0"
     fit-margin-bottom="0"
     inkscape:window-maximized="1" />
  <metadata
     id="metadata7">
    <rdf:RDF>
      <cc:Work
         rdf:about="">
        <dc:format>image/svg+xml</dc:format>
        <dc:type
           rdf:resource="http://purl.org/dc/dcmitype/StillImage" />
        <dc:title></dc:title>
      </cc:Work>
    </rdf:RDF>
  </metadata>
  <g
     inkscape:label="Layer 1"
     inkscape:groupmode="layer"
     id="layer1">
    <path
       inkscape:connector-curvature="0"
       id="sign_libra"
       style="font-size:40px;font-style:normal;font-variant:normal;font-weight:normal;font-stretch:normal;line-height:125%;letter-spacing:0px;word-spacing:0px;fill:#000000;fill-opacity:1;stroke:none;font-family:Cantarell;-inkscape-font-specification:Cantarell"
       d="m 0,21.05469 29.17969,0 0,2.96875 -29.17969,0 0,-2.96875 m 10.8789,-4.82422 -10.8789,0 0,-2.96875 6.91406,0 c -0.8724,-1.35415 -1.3086,-2.8841 -1.30859,-4.58984 -10e-6,-2.40884 0.83332,-4.45311 2.5,-6.13282 1.67967,-1.69268 3.72394,-2.53903 6.13281,-2.53906 2.42185,3e-5 4.47263,0.84638 6.15234,2.53906 1.69269,1.67971 2.53904,3.72398 2.53907,6.13282 -3e-5,1.70574 -0.44274,3.23569 -1.32813,4.58984 l 7.57813,0 0,2.96875 -11.58204,0 0,-2.96875 -0.0195,0 c 0.23436,-0.16926 0.46222,-0.36457 0.6836,-0.58594 1.11977,-1.10675 1.67966,-2.4479 1.67968,-4.02344 -2e-5,-1.58852 -0.5534,-2.93617 -1.66015,-4.04296 -1.10679,-1.10675 -2.45445,-1.66014 -4.04297,-1.66016 -1.58856,2e-5 -2.93621,0.55341 -4.04297,1.66016 -1.10678,1.10679 -1.66017,2.45444 -1.66016,4.04296 -1e-5,1.57554 0.55338,2.91669 1.66016,4.02344 0.20832,0.22137 0.43618,0.41668 0.68359,0.58594 l 0,2.96875" />
  </g>
</svg>
