<?xml version="1.0" encoding="UTF-8" standalone="no"?>
<!-- Created with Inkscape (http://www.inkscape.org/) -->

<svg
   xmlns:dc="http://purl.org/dc/elements/1.1/"
   xmlns:cc="http://creativecommons.org/ns#"
   xmlns:rdf="http://www.w3.org/1999/02/22-rdf-syntax-ns#"
   xmlns:svg="http://www.w3.org/2000/svg"
   xmlns="http://www.w3.org/2000/svg"
   xmlns:sodipodi="http://sodipodi.sourceforge.net/DTD/sodipodi-0.dtd"
   xmlns:inkscape="http://www.inkscape.org/namespaces/inkscape"
   width="43.222656"
   height="45.292969"
   id="svg2"
   version="1.1"
   inkscape:version="0.48.4 r9939"
   sodipodi:docname="kos1.svg">
  <defs
     id="defs4" />
  <sodipodi:namedview
     id="base"
     pagecolor="#ffffff"
     bordercolor="#666666"
     borderopacity="1.0"
     inkscape:pageopacity="0.0"
     inkscape:pageshadow="2"
     inkscape:zoom="0.7810999"
     inkscape:cx="81.797479"
     inkscape:cy="-15.450247"
     inkscape:document-units="px"
     inkscape:current-layer="text3055"
     showgrid="false"
     fit-margin-top="0"
     fit-margin-left="0"
     fit-margin-right="0"
     fit-margin-bottom="0"
     inkscape:window-width="1920"
     inkscape:window-height="1021"
     inkscape:window-x="0"
     inkscape:window-y="27"
     inkscape:window-maximized="1" />
  <metadata
     id="metadata7">
    <rdf:RDF>
      <cc:Work
         rdf:about="">
        <dc:format>image/svg+xml</dc:format>
        <dc:type
           rdf:resource="http://purl.org/dc/dcmitype/StillImage" />
        <dc:title></dc:title>
      </cc:Work>
    </rdf:RDF>
  </metadata>
  <g
     inkscape:label="1. réteg"
     inkscape:groupmode="layer"
     id="layer1"
     transform="translate(-58.525242,-761.06452)">
    <g
       transform="translate(4.1941991,642.27564)"
       style="font-size:40px;font-style:normal;font-variant:normal;font-weight:normal;font-stretch:normal;line-height:125%;letter-spacing:0px;word-spacing:0px;fill:#000000;fill-opacity:1;stroke:none;font-family:Placidus Symbols;-inkscape-font-specification:Placidus Symbols"
       id="text3055">
      <g
         transform="translate(37.40749,137.90251)"
         style="line-height:125%;fill:#000000;font-family:Placidus Symbols;-inkscape-font-specification:Placidus Symbols"
         id="text3081">
        <path
           d="M 31.86496,-2.3167515 C 30.341505,-2.9287115 29.071975,-3.7164712 28.056366,-4.6800327 27.57458,-5.174803 27.066768,-5.8063128 26.532928,-6.574564 25.999061,-7.3427696 25.439166,-8.2477166 24.853241,-9.2894077 l -1.40625,-2.5195313 c -1.718759,-3.111948 -3.678392,-4.667936 -5.878906,-4.667969 l -0.644532,0 0,-2.636718 1.738282,0 c 3.085928,3.5e-5 5.898425,2.174512 8.4375,6.523437 l 1.933593,3.3789063 c 1.289045,2.200544 2.6367,3.7500216 4.042969,4.6484375 1.419249,0.8854365 3.248675,1.3281444 5.488281,1.328125 2.265597,1.94e-5 4.088512,-0.4361781 5.46875,-1.3085938 1.393197,-0.8723742 2.747362,-2.4283622 4.0625,-4.6679687 l 1.933594,-3.3789063 c 2.512981,-4.348925 5.305947,-6.523402 8.378906,-6.523437 l 1.738282,0 0,2.636718 -0.585938,0 c -2.200565,3.3e-5 -4.173219,1.556021 -5.917969,4.667969 l -1.386718,2.5195313 c -1.158893,2.057315 -2.23311,3.580751 -3.222657,4.5703125 -0.976597,0.9765824 -2.239617,1.7773628 -3.789062,2.4023437 2.695277,1.45835039 4.778609,3.372411 6.25,5.7421875 1.471314,2.3567813 2.20699,4.9349037 2.207031,7.734375 -4.1e-5,4.036459 -1.510456,7.54557 -4.53125,10.527344 -3.020866,2.994783 -6.556019,4.492177 -10.605469,4.492187 -4.0495,-10e-6 -7.591164,-1.497404 -10.625,-4.492187 -3.033866,-2.981774 -4.550791,-6.490885 -4.550781,-10.527344 -10e-6,-2.7994713 0.729156,-5.3645729 2.1875,-7.6953125 1.458319,-2.3307141 3.554671,-4.25779551 6.289063,-5.78125 m 6.699218,24.9609375 c 3.177055,-6e-6 5.904917,-1.119797 8.183594,-3.359375 2.27861,-2.226563 3.417932,-4.915363 3.417969,-8.066406 -3.7e-5,-3.2031171 -1.126338,-5.9244685 -3.378906,-8.1640627 -2.239615,-2.239568 -4.980498,-3.35935855 -8.222657,-3.35937503 -3.24221,1.648e-5 -5.996113,1.12631744 -8.261718,3.37890623 -2.25262,2.2395942 -3.378921,4.9544353 -3.378907,8.1445315 -1.4e-5,3.164064 1.139308,5.846353 3.417969,8.046875 2.239564,2.252599 4.980446,3.3789 8.222656,3.378906"
           id="path3086"
           inkscape:connector-curvature="0" />
      </g>
    </g>
  </g>
</svg>
