<?xml version="1.0" encoding="UTF-8" standalone="no"?>
<!-- Created with Inkscape (http://www.inkscape.org/) -->

<svg
   xmlns:dc="http://purl.org/dc/elements/1.1/"
   xmlns:cc="http://creativecommons.org/ns#"
   xmlns:rdf="http://www.w3.org/1999/02/22-rdf-syntax-ns#"
   xmlns:svg="http://www.w3.org/2000/svg"
   xmlns="http://www.w3.org/2000/svg"
   xmlns:sodipodi="http://sodipodi.sourceforge.net/DTD/sodipodi-0.dtd"
   xmlns:inkscape="http://www.inkscape.org/namespaces/inkscape"
   width="23.300781"
   height="29.21875"
   id="svg2"
   sodipodi:version="0.32"
   inkscape:version="0.48.4 r9939"
   version="1.0"
   sodipodi:docname="sign_pisces.svg">
  <defs
     id="defs4" />
  <sodipodi:namedview
     id="base"
     pagecolor="#ffffff"
     bordercolor="#666666"
     borderopacity="1.0"
     gridtolerance="10000"
     guidetolerance="10"
     objecttolerance="10"
     inkscape:pageopacity="0.0"
     inkscape:pageshadow="2"
     inkscape:zoom="1.979899"
     inkscape:cx="193.46588"
     inkscape:cy="-137.95927"
     inkscape:document-units="px"
     inkscape:current-layer="layer1"
     inkscape:window-width="1920"
     inkscape:window-height="1021"
     inkscape:window-x="0"
     inkscape:window-y="27"
     showgrid="false"
     fit-margin-top="0"
     fit-margin-left="0"
     fit-margin-right="0"
     fit-margin-bottom="0"
     inkscape:window-maximized="1" />
  <metadata
     id="metadata7">
    <rdf:RDF>
      <cc:Work
         rdf:about="">
        <dc:format>image/svg+xml</dc:format>
        <dc:type
           rdf:resource="http://purl.org/dc/dcmitype/StillImage" />
        <dc:title></dc:title>
      </cc:Work>
    </rdf:RDF>
  </metadata>
  <g
     inkscape:label="Layer 1"
     inkscape:groupmode="layer"
     id="layer1"
     transform="translate(-271.65435,-375.63652)">
    <path
       inkscape:connector-curvature="0"
       id="sign_pisces"
       style="font-size:40px;font-style:normal;font-variant:normal;font-weight:normal;font-stretch:normal;line-height:125%;letter-spacing:0px;word-spacing:0px;fill:#000000;fill-opacity:1;stroke:none;font-family:Cantarell;-inkscape-font-specification:Cantarell"
       d="m 14.0039,16.23047 -4.70703,0.0586 c -0.41668,4.40105 -2.43491,8.69141 -6.05469,12.8711 l -3.22265,0.0586 c 3.99738,-4.57031 6.17186,-8.8802 6.52343,-12.92969 l -5.78125,0 0,-3.35937 5.78125,0 c -0.36459,-4.03644 -2.54558,-8.34633 -6.54296,-12.92969 l 3.24218,0.0586 c 3.61978,4.16669 5.63801,8.45705 6.05469,12.87109 l 4.72656,0 c 0.40363,-4.41404 2.42186,-8.7044 6.05469,-12.87109 l 3.22266,-0.0586 c -3.99742,4.58336 -6.1719,8.89325 -6.52344,12.92969 l 5.76172,0 -0.0195,3.35937 -5.78125,0 c 0.37758,4.04949 2.56508,8.35938 6.5625,12.92969 l -3.24219,-0.0586 c -3.63284,-4.17969 -5.65106,-8.47005 -6.05469,-12.8711 l 0,-0.0586" />
  </g>
</svg>
