<?xml version="1.0" encoding="UTF-8" standalone="no"?>
<!-- Created with Inkscape (http://www.inkscape.org/) -->

<svg
   xmlns:dc="http://purl.org/dc/elements/1.1/"
   xmlns:cc="http://creativecommons.org/ns#"
   xmlns:rdf="http://www.w3.org/1999/02/22-rdf-syntax-ns#"
   xmlns:svg="http://www.w3.org/2000/svg"
   xmlns="http://www.w3.org/2000/svg"
   xmlns:sodipodi="http://sodipodi.sourceforge.net/DTD/sodipodi-0.dtd"
   xmlns:inkscape="http://www.inkscape.org/namespaces/inkscape"
   width="31.582031"
   height="36.425781"
   id="svg2"
   sodipodi:version="0.32"
   inkscape:version="0.48.4 r9939"
   version="1.0"
   sodipodi:docname="sign_virgo.svg">
  <defs
     id="defs4" />
  <sodipodi:namedview
     id="base"
     pagecolor="#ffffff"
     bordercolor="#666666"
     borderopacity="1.0"
     gridtolerance="10000"
     guidetolerance="10"
     objecttolerance="10"
     inkscape:pageopacity="0.0"
     inkscape:pageshadow="2"
     inkscape:zoom="11.2"
     inkscape:cx="8.7706071"
     inkscape:cy="18.683893"
     inkscape:document-units="px"
     inkscape:current-layer="layer1"
     inkscape:window-width="1680"
     inkscape:window-height="991"
     inkscape:window-x="0"
     inkscape:window-y="27"
     showgrid="false"
     fit-margin-top="0"
     fit-margin-left="0"
     fit-margin-right="0"
     fit-margin-bottom="0"
     inkscape:window-maximized="1" />
  <metadata
     id="metadata7">
    <rdf:RDF>
      <cc:Work
         rdf:about="">
        <dc:format>image/svg+xml</dc:format>
        <dc:type
           rdf:resource="http://purl.org/dc/dcmitype/StillImage" />
        <dc:title></dc:title>
      </cc:Work>
    </rdf:RDF>
  </metadata>
  <g
     inkscape:label="Layer 1"
     inkscape:groupmode="layer"
     id="layer1"
     transform="translate(-267.51372,-375.63652)">
    <g
       transform="translate(258.5991,387.1767)"
       style="font-size:40px;font-style:normal;font-variant:normal;font-weight:normal;font-stretch:normal;line-height:125%;letter-spacing:0px;word-spacing:0px;fill:none;fill-opacity:1;stroke:#000000;font-family:Cantarell;-inkscape-font-specification:Cantarell;stroke-opacity:1"
       id="text2990">
      <path
         d="m 20.066964,-11.540178 c 0.820299,2.9e-5 1.614569,0.64456 2.382813,1.9335935 0.781233,1.2890884 1.171858,2.7669516 1.171875,4.4335937 0.520816,-1.5494548 1.425763,-2.9947658 2.714843,-4.3359375 1.289042,-1.3541377 2.421853,-2.0312207 3.398438,-2.0312497 0.807268,2.9e-5 1.47784,0.546903 2.011719,1.6406247 0.533828,1.0807557 0.800755,3.0468995 0.800781,5.8984375 l 0,3.9453125 c 0.624974,-1.6275848 1.36065,-2.8255003 2.207031,-3.59375 0.859346,-0.7812279 1.731741,-1.1718525 2.617188,-1.171875 0.781218,2.25e-5 1.497363,0.7552301 2.148437,2.265625 0.651008,1.5104354 0.976529,4.0429849 0.976563,7.5976563 -3.4e-5,5.312507 -2.4805,10.058596 -7.441407,14.238281 0.013,1.223956 0.970025,3.092443 2.871094,5.605469 l -3.28125,0 c -0.598983,-0.533861 -1.380233,-1.848964 -2.34375,-3.945313 -2.1745,1.3151 -4.401061,2.018224 -6.679687,2.109375 l 0,-2.265625 c 2.486959,-0.364586 4.537739,-1.113283 6.152343,-2.246093 l -0.175781,-4.238282 0,-16.6992183 c -2.3e-5,-0.2343547 -2.3e-5,-0.462219 0,-0.6835937 -2.3e-5,-3.6588298 -0.299502,-5.4947655 -0.898437,-5.5078125 -0.75523,0.013047 -1.569031,0.7291922 -2.441407,2.1484375 -0.859393,1.4062727 -1.699236,3.411479 -2.519531,6.01562495 l 0,18.10546905 -2.949219,0 0,-18.0078128 c -1.4e-5,-4.1796653 -0.10418,-6.6145587 -0.3125,-7.3046875 -0.195326,-0.6900782 -0.520846,-1.0351299 -0.976562,-1.0351562 l -0.01953,0 -0.01953,0 c -0.533866,2.63e-5 -1.38673,0.7357026 -2.558593,2.2070312 -1.158863,1.4713768 -1.861988,3.6067914 -2.109375,6.40625 l 0,17.7343753 -2.910157,0 0,-21.2695315 c -5e-6,-2.4739346 -0.989587,-4.9544009 -2.9687496,-7.4414065 l 2.7734376,0 c 1.536452,1.028674 2.539055,2.6888283 3.007812,4.980469 0.299471,-1.2109126 1.041658,-2.4283593 2.226563,-3.6523438 1.197905,-1.2239302 2.246081,-1.8359082 3.144531,-1.8359372 m 12.480469,17.1484372 0,10.9374998 c 3.359346,-3.255204 5.195281,-7.0833249 5.507812,-11.4843748 -3.1e-5,-2.5130057 -0.14977,-4.21873316 -0.449218,-5.1171875 -0.286489,-0.91143969 -0.61201,-1.3671684 -0.976563,-1.3671875 l -0.07813,0 c -0.390654,1.91e-5 -1.054716,0.67059135 -1.992187,2.01171875 C 33.634646,1.9298895 32.964073,3.6030649 32.547433,5.6082592"
         style="font-family:Cantarell;-inkscape-font-specification:Cantarell;fill:none;stroke:#000000;stroke-opacity:1"
         id="path3762" />
    </g>
    <path
       style="fill:none;stroke:#ff0000;stroke-width:1px;stroke-linecap:butt;stroke-linejoin:miter;stroke-opacity:1"
       d="m 1.7857143,1.24721 c 0,0 2.8327585,2.3425103 2.7678571,8.125 0.020686,7.971508 -0.089286,18.839286 -0.089286,18.839286 0,0 0,-7.581649 0,-17.321429 3.4181168,-8.9049029 5.0354018,-9.5539481 6.6964286,-9.4642855 2.4202,0.1306429 2.5,6.3392856 2.5,6.3392856 l 0,20.3571429 0,-18.4821429 6.607143,-8.5714285 2.053571,9.0178574 0,20.178571 2.142858,4.642857 -2.232143,-4.464286 0,-15.714285 5.714285,-6.607143 2.678572,7.589286 -5,12.232142 -9.464286,5.178572"
       id="path13425"
       inkscape:connector-curvature="0"
       transform="translate(267.51372,375.63652)"
       sodipodi:nodetypes="ccccsccccccccccccc" />
  </g>
</svg>
