<?xml version="1.0" encoding="UTF-8" standalone="no"?>
<!-- Created with Inkscape (http://www.inkscape.org/) -->

<svg
   xmlns:dc="http://purl.org/dc/elements/1.1/"
   xmlns:cc="http://creativecommons.org/ns#"
   xmlns:rdf="http://www.w3.org/1999/02/22-rdf-syntax-ns#"
   xmlns:svg="http://www.w3.org/2000/svg"
   xmlns="http://www.w3.org/2000/svg"
   xmlns:sodipodi="http://sodipodi.sourceforge.net/DTD/sodipodi-0.dtd"
   xmlns:inkscape="http://www.inkscape.org/namespaces/inkscape"
   width="24.667969"
   height="29.21875"
   id="svg2"
   sodipodi:version="0.32"
   inkscape:version="0.48.4 r9939"
   version="1.0"
   sodipodi:docname="sign_leo.svg">
  <defs
     id="defs4" />
  <sodipodi:namedview
     id="base"
     pagecolor="#ffffff"
     bordercolor="#666666"
     borderopacity="1.0"
     gridtolerance="10000"
     guidetolerance="10"
     objecttolerance="10"
     inkscape:pageopacity="0.0"
     inkscape:pageshadow="2"
     inkscape:zoom="1.979899"
     inkscape:cx="315.89511"
     inkscape:cy="-150.9708"
     inkscape:document-units="px"
     inkscape:current-layer="layer1"
     inkscape:window-width="1920"
     inkscape:window-height="1021"
     inkscape:window-x="0"
     inkscape:window-y="27"
     showgrid="false"
     fit-margin-top="0"
     fit-margin-left="0"
     fit-margin-right="0"
     fit-margin-bottom="0"
     inkscape:window-maximized="1" />
  <metadata
     id="metadata7">
    <rdf:RDF>
      <cc:Work
         rdf:about="">
        <dc:format>image/svg+xml</dc:format>
        <dc:type
           rdf:resource="http://purl.org/dc/dcmitype/StillImage" />
        <dc:title></dc:title>
      </cc:Work>
    </rdf:RDF>
  </metadata>
  <g
     inkscape:label="Layer 1"
     inkscape:groupmode="layer"
     id="layer1">
    <path
       d="m 7.304689,21.4843767 c 0.976549,-0.3775961 1.62759,-0.9309809 1.953125,-1.6601562 0.325506,-0.7421774 0.488266,-1.3671768 0.488281,-1.875 C 22.11773,5.953323 22.026584,5.4975943 21.844308,5.041853 21.466689,4.0653041 20.906794,3.414263 20.16462,3.088728 19.435441,2.763222 18.816952,2.6004618 18.309152,2.6004467 c -0.468761,1.51e-5 -0.931001,0.091161 -1.386719,0.2734375 -0.976572,0.3906394 -1.627613,0.9505347 -1.953125,1.6796875 -0.312508,0.7161582 -0.468758,1.3281368 -0.46875,1.8359375 -8e-6,0.45574 0.09114,0.9179791 0.273437,1.3867188 0.390617,0.9895922 0.944002,1.6471436 1.660157,1.9726562 0.729156,0.3125078 1.347645,0.4687578 1.855468,0.4687498 0.455718,8e-6 0.917957,-0.09114 1.386719,-0.2734373 m 0.234375,-14.4140625 c -1.3e-5,-2.0963299 0.722643,-3.795547 2.167969,-5.0976562 1.458316,-1.315076 3.359356,-1.972627 5.703125,-1.972656 2.23956,2.9e-5 4.068985,0.722684 5.488281,2.1679685 1.419243,1.4323172 2.128878,3.2942945 2.128906,5.5859375 -2.8e-5,2.4349148 -0.944038,5.2864745 -2.832031,8.5546875 -1.888045,3.2682388 -2.832054,6.0742255 -2.832031,8.4179685 0.05206,1.614586 0.950497,2.441409 2.695312,2.480469 0.924453,2e-6 2.037733,-0.572914 3.339844,-1.71875 l 1.269531,1.40625 c -1.653674,1.54948 -3.203152,2.324219 -4.648437,2.324219 -1.289087,0 -2.402367,-0.390625 -3.339844,-1.171875 -0.937521,-0.794269 -1.406271,-1.91406 -1.40625,-3.359375 -2.1e-5,-2.591139 0.930968,-5.4492091 2.792969,-8.574219 1.874974,-3.1380046 2.812473,-5.9700331 2.8125,-8.4960938 -2.7e-5,-1.7447683 -0.53388,-3.1510169 -1.601563,-4.21875 -1.067732,-1.0807023 -2.46096,-1.6210663 -4.179687,-1.6210937 -1.653665,2.74e-5 -2.968768,0.5078394 -3.945313,1.5234375 -0.976578,1.002629 -1.464859,2.3437735 -1.464843,4.0234375 -1.6e-5,0.7812711 0.149724,1.6471556 0.449218,2.5976562 0.299464,0.93751836 0.611963,1.80991332 0.9375,2.6171875 0.481754,1.2760571 0.748681,2.3307435 0.800782,3.1640625 0.06509,0.833346 0.09764,1.3606892 0.09766,1.5820313 -1.8e-5,1.1328233 -0.208351,2.1419368 -0.625,3.0273437 -0.664079,1.4974033 -1.751317,2.5390693 -3.261719,3.1250003 -0.729179,0.286464 -1.458345,0.429693 -2.1875,0.429687 -0.781261,6e-6 -1.738291,-0.24088 -2.871094,-0.722656 -1.119799,-0.494785 -1.985683,-1.52343 -2.597656,-3.0859375 -0.286464,-0.7031152 -0.429693,-1.4192603 -0.429687,-2.1484375 -6e-6,-0.781238 0.175775,-1.5624872 0.527343,-2.34375 0.664056,-1.4843599 1.757805,-2.5260255 3.28125,-3.12500005 0.716136,-0.27342045 1.432281,-0.41013906 2.148438,-0.41015625 0.989571,1.719e-5 1.966132,0.266944 2.929687,0.8007813 0.104152,1.63e-5 0.156236,-0.084619 0.15625,-0.2539063 -1.4e-5,-0.33852469 -0.25392,-1.10675308 -0.761718,-2.3046875 -0.494805,-1.1978965 -0.742201,-2.2656038 -0.742188,-3.203125"
       style="font-size:40px;font-style:normal;font-variant:normal;font-weight:normal;font-stretch:normal;line-height:125%;letter-spacing:0px;word-spacing:0px;fill:#000000;fill-opacity:1;stroke:none;font-family:Cantarell;font-family:Cantarell;-inkscape-font-specification:Cantarell"
       id="sign_leo" />
  </g>
</svg>
