<?xml version="1.0" encoding="UTF-8" standalone="no"?>
<!-- Created with Inkscape (http://www.inkscape.org/) -->

<svg
   xmlns:dc="http://purl.org/dc/elements/1.1/"
   xmlns:cc="http://creativecommons.org/ns#"
   xmlns:rdf="http://www.w3.org/1999/02/22-rdf-syntax-ns#"
   xmlns:svg="http://www.w3.org/2000/svg"
   xmlns="http://www.w3.org/2000/svg"
   xmlns:sodipodi="http://sodipodi.sourceforge.net/DTD/sodipodi-0.dtd"
   xmlns:inkscape="http://www.inkscape.org/namespaces/inkscape"
   width="26.835938"
   height="25.917969"
   id="svg2"
   sodipodi:version="0.32"
   inkscape:version="0.48.4 r9939"
   version="1.0"
   sodipodi:docname="sign_cancer.svg">
  <defs
     id="defs4" />
  <sodipodi:namedview
     id="base"
     pagecolor="#ffffff"
     bordercolor="#666666"
     borderopacity="1.0"
     gridtolerance="10000"
     guidetolerance="10"
     objecttolerance="10"
     inkscape:pageopacity="0.0"
     inkscape:pageshadow="2"
     inkscape:zoom="1.979899"
     inkscape:cx="316.96933"
     inkscape:cy="-143.76377"
     inkscape:document-units="px"
     inkscape:current-layer="layer1"
     inkscape:window-width="1920"
     inkscape:window-height="1021"
     inkscape:window-x="0"
     inkscape:window-y="27"
     showgrid="false"
     fit-margin-top="0"
     fit-margin-left="0"
     fit-margin-right="0"
     fit-margin-bottom="0"
     inkscape:window-maximized="1" />
  <metadata
     id="metadata7">
    <rdf:RDF>
      <cc:Work
         rdf:about="">
        <dc:format>image/svg+xml</dc:format>
        <dc:type
           rdf:resource="http://purl.org/dc/dcmitype/StillImage" />
        <dc:title></dc:title>
      </cc:Work>
    </rdf:RDF>
  </metadata>
  <g
     inkscape:label="Layer 1"
     inkscape:groupmode="layer"
     id="layer1">
    <path
       inkscape:connector-curvature="0"
       id="sign_cancer"
       style="font-size:40px;font-style:normal;font-variant:normal;font-weight:normal;font-stretch:normal;line-height:125%;letter-spacing:0px;word-spacing:0px;fill:#000000;fill-opacity:1;stroke:none;font-family:Cantarell;-inkscape-font-specification:Cantarell"
       d="m 23.06641,14,86328 c -0.8594,-0.85936 -1.90758,-1.28904 -3.14453,-1.28906 -1.237,2e-5 -2.28518,0.4297 -3.14453,1.28906 -0.8594,0.85939 -1.28909,1.90757 -1.28907,3.14454 -2e-5,1.23698 0.42967,2.29167 1.28907,3.16406 0.85935,0.85938 1.90753,1.28906 3.14453,1.28906 1.22393,0 2.2656,-0.42968 3.125,-1.28906 0.87237,-0.87239 1.30856,-1.92708 1.30859,-3.16406 -3e-5,-1.23697 -0.42971,-2.28515 -1.28906,-3.14454 m -6.875,11.05469 c -4.06252,-0.026 -7.27866,-0.16927 -9.64844,-0.42969 -2.3698,-0.26041 -4.55079,-0.67057 -6.54297,-1.23047 l 0,-2.42187 c 3.29427,1.09375 6.12629,1.71224 8.4961,1.85547 2.36977,0.14323 3.93878,0.21485 4.70703,0.21484 1.69269,1e-5 2.48696,-0.16926 2.38281,-0.50781 -1.70575,-1.40624 -2.55861,-3.19661 -2.55859,-5.37109 -2e-5,-1.91405 0.66404,-3.54166 1.99218,-4.88282 1.34113,-1.35415 2.96873,-2.03123 4.88282,-2.03125 1.94007,2e-5 3.5807,0.6771 4.92187,2.03125 1.34112,1.34116 2.01169,2.96877 2.01172,4.88282 -3e-5,1.91407 -0.67711,3.54167 -2.03125,4.88281 -0.95055,1.00261 -2.22659,1.7513 -3.82812,2.24609 -1.60159,0.4948 -3.19664,0.7487 -4.78516,0.76172 m -9.27734,-13.57422 c 1.22394,2e-5 2.26561,-0.42967 3.125,-1.28906 0.87238,-0.85936 1.30857,-1.90753 1.30859,-3.14453 -2e-5,-1.23696 -0.43621,-2.28514 -1.30859,-3.14453 -0.85939,-0.85935 -1.90106,-1.28904 -3.125,-1.28906 -1.22397,2e-5 -2.27215,0.42971 -3.14454,1.28906 -0.8724,0.85939 -1.3086,1.90757 -1.30859,3.14453 -10e-6,1.237 0.42968,2.28517 1.28906,3.14453 0.87239,0.85939 1.92708,1.28908 3.16407,1.28906 m 3.71093,-12.34375 c 4.0755,0.0261 7.29816,0.17581 9.66797,0.44922 2.36977,0.26044 4.55075,0.6706 6.54297,1.23047 l 0,2.40234 c -3.2943,-1.09372 -6.11982,-1.7057 -8.47656,-1.83593 -2.35679,-0.14321 -3.91278,-0.21482 -4.66797,-0.21485 -1.73179,3e-5 -2.54559,0.1693 -2.44141,0.50782 1.70572,1.40627 2.55858,3.19012 2.5586,5.35156 -2e-5,1.9271 -0.67059,3.56772 -2.01172,4.92187 -1.32814,1.34116 -2.94923,2.01173 -4.86328,2.01172 -1.94012,10e-6 -3.58074,-0.67056 -4.92188,-2.01172 -1.34115,-1.35415 -2.01172,-2.99477 -2.01172,-4.92187 0,-1.90102 0.67708,-3.52211 2.03125,-4.86328 0.95052,-1.00258 2.22005,-1.75128 3.8086,-2.2461 1.60155,-0.50778 3.1966,-0.7682 4.78515,-0.78125" />
  </g>
</svg>
