<?xml version="1.0" encoding="UTF-8" standalone="no"?>
<!-- Created with Inkscape (http://www.inkscape.org/) -->

<svg
   xmlns:dc="http://purl.org/dc/elements/1.1/"
   xmlns:cc="http://creativecommons.org/ns#"
   xmlns:rdf="http://www.w3.org/1999/02/22-rdf-syntax-ns#"
   xmlns:svg="http://www.w3.org/2000/svg"
   xmlns="http://www.w3.org/2000/svg"
   xmlns:sodipodi="http://sodipodi.sourceforge.net/DTD/sodipodi-0.dtd"
   xmlns:inkscape="http://www.inkscape.org/namespaces/inkscape"
   width="48.261719"
   height="45.625"
   id="svg2"
   version="1.1"
   inkscape:version="0.48.4 r9939"
   sodipodi:docname="Új dokumentum 1">
  <defs
     id="defs4" />
  <sodipodi:namedview
     id="base"
     pagecolor="#ffffff"
     bordercolor="#666666"
     borderopacity="1.0"
     inkscape:pageopacity="0.0"
     inkscape:pageshadow="2"
     inkscape:zoom="0.7810999"
     inkscape:cx="330.44555"
     inkscape:cy="-198.28345"
     inkscape:document-units="px"
     inkscape:current-layer="text3055"
     showgrid="false"
     fit-margin-top="0"
     fit-margin-left="0"
     fit-margin-right="0"
     fit-margin-bottom="0"
     inkscape:window-width="1920"
     inkscape:window-height="1021"
     inkscape:window-x="0"
     inkscape:window-y="27"
     inkscape:window-maximized="1" />
  <metadata
     id="metadata7">
    <rdf:RDF>
      <cc:Work
         rdf:about="">
        <dc:format>image/svg+xml</dc:format>
        <dc:type
           rdf:resource="http://purl.org/dc/dcmitype/StillImage" />
        <dc:title></dc:title>
      </cc:Work>
    </rdf:RDF>
  </metadata>
  <g
     inkscape:label="1. réteg"
     inkscape:groupmode="layer"
     id="layer1"
     transform="translate(-41.601689,-780.17815)">
    <g
       transform="translate(4.1941991,642.27564)"
       style="font-size:40px;font-style:normal;font-variant:normal;font-weight:normal;font-stretch:normal;line-height:125%;letter-spacing:0px;word-spacing:0px;fill:#000000;fill-opacity:1;stroke:none;font-family:Placidus Symbols;-inkscape-font-specification:Placidus Symbols"
       id="text3055">
      <path
         d="m 59.770771,183.52751 0,-2.34375 c -2.6e-5,-4.47917 -0.449245,-9.49869 -1.347656,-15.05859 -0.898462,-5.57291 -1.998721,-10.09113 -3.300781,-13.55469 -2.851582,-7.60414 -5.924496,-11.40622 -9.21875,-11.40625 -1.458345,3e-5 -2.64975,0.64456 -3.574219,1.93359 -0.468759,0.63806 -0.820321,1.36722 -1.054688,2.1875 -0.221362,0.82034 -0.332039,1.75133 -0.332031,2.79297 -8e-6,1.35419 0.214836,2.72789 0.644531,4.1211 0.429679,1.38023 1.08723,2.80601 1.972657,4.27734 l -3.574219,0 c -1.718755,-3.12498 -2.578129,-6.04815 -2.578125,-8.76953 -4e-6,-2.76039 0.813797,-5.0846 2.441406,-6.97266 1.627596,-1.88798 3.658844,-2.83199 6.09375,-2.83203 3.932275,4e-5 7.291647,2.6628 10.078125,7.98828 1.00258,1.90107 1.861955,3.8607 2.578125,5.87891 0.820286,2.31773 1.451796,4.68752 1.894531,7.10937 0.494764,2.74741 0.74216,5.53387 0.742188,8.35938 l 0.605469,0 c -2.9e-5,-2.83853 0.227835,-5.56639 0.683593,-8.18359 0.416637,-2.39582 1.028616,-4.75259 1.835938,-7.07032 0.703093,-2.0182 1.568978,-4.01039 2.597656,-5.97656 2.825484,-5.40361 6.217408,-8.10543 10.175781,-8.10547 2.447871,4e-5 4.479119,0.92452 6.09375,2.77344 1.627553,1.83597 2.441354,4.16018 2.441407,6.97266 -5.3e-5,2.72137 -0.852917,5.66408 -2.558594,8.82812 l -3.613281,0 c 1.744743,-3.138 2.617138,-6.00258 2.617187,-8.59375 -4.9e-5,-2.09633 -0.449267,-3.78903 -1.347656,-5.07812 -0.898484,-1.28903 -2.10291,-1.93357 -3.613281,-1.9336 -3.151083,3e-5 -6.113319,3.5417 -8.886719,10.625 -0.677118,1.75783 -1.308628,3.8021 -1.894531,6.13281 -0.58597,2.33075 -1.132845,4.95444 -1.640625,7.8711 -0.455761,2.78646 -0.807323,5.53386 -1.054688,8.24219 -0.247426,2.70833 -0.371124,5.23437 -0.371094,7.57812 l 0,2.20703 -3.535156,0"
         id="path3060"
         inkscape:connector-curvature="0" />
    </g>
  </g>
</svg>
