<?xml version="1.0" encoding="UTF-8" standalone="no"?>
<!-- Created with Inkscape (http://www.inkscape.org/) -->

<svg
   xmlns:dc="http://purl.org/dc/elements/1.1/"
   xmlns:cc="http://creativecommons.org/ns#"
   xmlns:rdf="http://www.w3.org/1999/02/22-rdf-syntax-ns#"
   xmlns:svg="http://www.w3.org/2000/svg"
   xmlns="http://www.w3.org/2000/svg"
   xmlns:sodipodi="http://sodipodi.sourceforge.net/DTD/sodipodi-0.dtd"
   xmlns:inkscape="http://www.inkscape.org/namespaces/inkscape"
   width="28.964844"
   height="17.050781"
   id="svg2"
   sodipodi:version="0.32"
   inkscape:version="0.48.4 r9939"
   version="1.0"
   sodipodi:docname="sign_capricorn.svg">
  <defs
     id="defs4" />
  <sodipodi:namedview
     id="base"
     pagecolor="#ffffff"
     bordercolor="#666666"
     borderopacity="1.0"
     gridtolerance="10000"
     guidetolerance="10"
     objecttolerance="10"
     inkscape:pageopacity="0.0"
     inkscape:pageshadow="2"
     inkscape:zoom="1.979899"
     inkscape:cx="196.41509"
     inkscape:cy="-130.75224"
     inkscape:document-units="px"
     inkscape:current-layer="layer1"
     inkscape:window-width="1920"
     inkscape:window-height="1021"
     inkscape:window-x="0"
     inkscape:window-y="27"
     showgrid="false"
     fit-margin-top="0"
     fit-margin-left="0"
     fit-margin-right="0"
     fit-margin-bottom="0"
     inkscape:window-maximized="1" />
  <metadata
     id="metadata7">
    <rdf:RDF>
      <cc:Work
         rdf:about="">
        <dc:format>image/svg+xml</dc:format>
        <dc:type
           rdf:resource="http://purl.org/dc/dcmitype/StillImage" />
        <dc:title></dc:title>
      </cc:Work>
    </rdf:RDF>
  </metadata>
  <g
     inkscape:label="Layer 1"
     inkscape:groupmode="layer"
     id="layer1"
     transform="translate(-268.82231,-381.69121)">
    <g
       transform="translate(258.5991,387.1767)"
       style="font-size:40px;font-style:normal;font-variant:normal;font-weight:normal;font-stretch:normal;line-height:125%;letter-spacing:0px;word-spacing:0px;fill:#000000;fill-opacity:1;stroke:none;font-family:Cantarell;-inkscape-font-specification:Cantarell"
       id="text2990">
      <path
         d="m 10.223214,9.6121655 c 4.231763,-3.5286343 7.096344,-5.2929554 8.59375,-5.2929688 0.585925,1.34e-5 0.963529,0.2604298 1.132813,0.78125 0.312486,0.9244908 0.833319,1.3867299 1.5625,1.3867188 0.729151,1.11e-5 1.653629,-0.462228 2.773437,-1.3867188 1.119773,-0.9244657 2.044251,-1.3867048 2.773438,-1.3867187 0.703104,1.39e-5 1.210916,0.462253 1.523437,1.3867187 0.33852,0.9244908 0.878884,1.3867299 1.621094,1.3867188 0.742163,1.11e-5 1.673152,-0.462228 2.792969,-1.3867188 0.559869,-0.468737 1.106743,-0.7031117 1.640625,-0.703125 1.614554,1.33e-5 3.131479,2.0573029 4.550781,6.1718753 L 37.35212,11.56529 C 36.531778,9.1564448 35.503133,7.9520189 34.266183,7.9520092 c -0.664089,9.7e-6 -1.386745,0.3450615 -2.167969,1.0351563 -1.119816,0.989591 -2.044294,1.4843825 -2.773437,1.4843745 -0.729189,8e-6 -1.256532,-0.4882731 -1.582032,-1.4648433 -0.364604,-1.0156153 -0.931009,-1.5234273 -1.699218,-1.5234375 -0.716165,1.02e-5 -1.614601,0.4362077 -2.695313,1.3085938 -1.132828,0.9244871 -2.057306,1.386726 -2.773437,1.386719 -0.72918,7e-6 -1.256523,-0.4687423 -1.582032,-1.4062503 -0.312511,-0.9114485 -0.820323,-1.3671772 -1.523437,-1.3671875 -0.716156,1.03e-5 -1.914071,0.6966242 -3.59375,2.0898438 -1.679693,1.380215 -2.552088,2.070319 -2.617188,2.070312 l -1.035156,-1.914062 0,-0.039063 m 0,-9.1992188 c 4.218742,-3.5025834 7.083323,-5.2538837 8.59375,-5.2539062 0.572904,2.25e-5 0.950508,0.2539285 1.132813,0.7617187 0.312486,0.9114792 0.833319,1.3672079 1.5625,1.3671875 0.71613,2.04e-5 1.634098,-0.4557083 2.753906,-1.3671875 1.132794,-0.9374773 2.057272,-1.4062268 2.773437,-1.40625 0.716125,2.32e-5 1.223937,0.4687727 1.523438,1.40625 0.35154,0.9114792 0.891904,1.3672079 1.621094,1.3671875 0.742163,2.04e-5 1.673152,-0.4557083 2.792968,-1.3671875 0.559869,-0.455707 1.106744,-0.6835713 1.640625,-0.6835937 1.627575,2.24e-5 3.151011,2.0508016 4.570313,6.1523437 L 37.35212,2.3660717 c -0.820342,-2.40883644 -1.848987,-3.6132623 -3.085937,-3.6132812 -0.664089,1.89e-5 -1.386745,0.35158103 -2.167969,1.05468745 -1.132837,1.00262104 -2.057315,1.50392265 -2.773437,1.50390625 -0.729189,1.64e-5 -1.263042,-0.4947748 -1.601563,-1.484375 -0.351583,-1.0156061 -0.911478,-1.5234181 -1.679687,-1.5234375 -0.716165,1.94e-5 -1.621112,0.4427273 -2.714844,1.328125 -1.119807,0.92449629 -2.044285,1.3867354 -2.773438,1.3867188 -0.716158,1.66e-5 -1.236991,-0.46873292 -1.5625,-1.40625005 -0.312511,-0.93748095 -0.826834,-1.40623055 -1.542968,-1.40624995 -0.716156,1.94e-5 -1.914072,0.6966333 -3.59375,2.0898437 C 12.189355,1.6759835 11.32347,2.366087 11.25837,2.3660717 l -1.035156,-1.89453125 0,-0.0585938"
         style="font-family:Cantarell;-inkscape-font-specification:Cantarell"
         id="path3904" />
    </g>
  </g>
</svg>
