<?xml version="1.0" encoding="UTF-8" standalone="no"?>
<!-- Created with Inkscape (http://www.inkscape.org/) -->

<svg
   xmlns:dc="http://purl.org/dc/elements/1.1/"
   xmlns:cc="http://creativecommons.org/ns#"
   xmlns:rdf="http://www.w3.org/1999/02/22-rdf-syntax-ns#"
   xmlns:svg="http://www.w3.org/2000/svg"
   xmlns="http://www.w3.org/2000/svg"
   xmlns:sodipodi="http://sodipodi.sourceforge.net/DTD/sodipodi-0.dtd"
   xmlns:inkscape="http://www.inkscape.org/namespaces/inkscape"
   width="32.207031"
   height="29.257812"
   id="svg2"
   sodipodi:version="0.32"
   inkscape:version="0.48.4 r9939"
   version="1.0"
   sodipodi:docname="comet_vesta.svg">
  <defs
     id="defs4" />
  <sodipodi:namedview
     id="base"
     pagecolor="#ffffff"
     bordercolor="#666666"
     borderopacity="1.0"
     gridtolerance="10000"
     guidetolerance="10"
     objecttolerance="10"
     inkscape:pageopacity="0.0"
     inkscape:pageshadow="2"
     inkscape:zoom="1.979899"
     inkscape:cx="319.66464"
     inkscape:cy="-120.89269"
     inkscape:document-units="px"
     inkscape:current-layer="layer1"
     inkscape:window-width="1920"
     inkscape:window-height="1021"
     inkscape:window-x="0"
     inkscape:window-y="27"
     showgrid="false"
     fit-margin-top="0"
     fit-margin-left="0"
     fit-margin-right="0"
     fit-margin-bottom="0"
     inkscape:window-maximized="1" />
  <metadata
     id="metadata7">
    <rdf:RDF>
      <cc:Work
         rdf:about="">
        <dc:format>image/svg+xml</dc:format>
        <dc:type
           rdf:resource="http://purl.org/dc/dcmitype/StillImage" />
        <dc:title></dc:title>
      </cc:Work>
    </rdf:RDF>
  </metadata>
  <g
     inkscape:label="Layer 1"
     inkscape:groupmode="layer"
     id="layer1"
     transform="translate(-267.20122,-375.59746)">
    <g
       transform="translate(258.5991,387.1767)"
       style="font-size:40px;font-style:normal;font-variant:normal;font-weight:normal;font-stretch:normal;line-height:125%;letter-spacing:0px;word-spacing:0px;fill:#000000;fill-opacity:1;stroke:none;font-family:Cantarell;-inkscape-font-specification:Cantarell"
       id="text2990">
      <path
         d="m 23.465402,17.678572 c -1.7e-5,-7.8124925 -0.931006,-14.2317569 -2.792969,-19.2578128 -1.861991,-5.0390382 -3.893239,-7.5585669 -6.09375,-7.5585937 -1.679694,2.68e-5 -2.630214,0.6445574 -2.851563,1.9335937 -0.221358,1.2760653 -0.332035,2.1354394 -0.332031,2.578125 -4e-6,1.6666873 0.54687,3.3333523 1.640625,5 l -2.617187,0 C 9.2075867,-1.3448468 8.6021186,-3.252397 8.6021204,-5.348772 c -1.8e-6,-1.7187253 0.5273414,-3.1835676 1.5820316,-4.3945313 1.067704,-1.2239297 2.552077,-1.8359087 4.453125,-1.8359377 4.843737,2.9e-5 8.118473,5.0325765 9.824218,15.0976565 0.104149,0.6380343 0.188785,1.2174608 0.253907,1.7382812 0.05206,-0.5208204 0.13019,-1.1002469 0.234375,-1.7382812 1.71873,-10.06508 4.993466,-15.0976275 9.824218,-15.0976565 1.914033,2.9e-5 3.398407,0.612008 4.453125,1.8359377 1.054654,1.2109637 1.581998,2.675806 1.582032,4.3945313 -3.4e-5,2.096375 -0.605503,4.0039252 -1.816407,5.7226562 l -2.617187,0 c 1.10674,-1.6666477 1.660125,-3.3398231 1.660156,-5.0195312 -3.1e-5,-0.4426856 -0.110708,-1.3020598 -0.332031,-2.578125 -0.221385,-1.2760155 -1.178415,-1.9140357 -2.871094,-1.9140625 -2.187526,2.68e-5 -4.212263,2.5195555 -6.074219,7.5585937 -1.861999,5.0260559 -2.792988,11.4453203 -2.792968,19.2578128 l -2.5,0"
         style="font-family:Cantarell;-inkscape-font-specification:Cantarell"
         id="path3613" />
    </g>
  </g>
</svg>
