<?xml version="1.0" encoding="UTF-8" standalone="no"?>
<!-- Created with Inkscape (http://www.inkscape.org/) -->

<svg
   xmlns:dc="http://purl.org/dc/elements/1.1/"
   xmlns:cc="http://creativecommons.org/ns#"
   xmlns:rdf="http://www.w3.org/1999/02/22-rdf-syntax-ns#"
   xmlns:svg="http://www.w3.org/2000/svg"
   xmlns="http://www.w3.org/2000/svg"
   xmlns:sodipodi="http://sodipodi.sourceforge.net/DTD/sodipodi-0.dtd"
   xmlns:inkscape="http://www.inkscape.org/namespaces/inkscape"
   width="28.710938"
   height="29.21875"
   id="svg2"
   sodipodi:version="0.32"
   inkscape:version="0.48.4 r9939"
   version="1.0"
   sodipodi:docname="sign_aries.svg">
  <defs
     id="defs4" />
  <sodipodi:namedview
     id="base"
     pagecolor="#ffffff"
     bordercolor="#666666"
     borderopacity="1.0"
     gridtolerance="10000"
     guidetolerance="10"
     objecttolerance="10"
     inkscape:pageopacity="0.0"
     inkscape:pageshadow="2"
     inkscape:zoom="1.979899"
     inkscape:cx="317.90683"
     inkscape:cy="-128.09972"
     inkscape:document-units="px"
     inkscape:current-layer="layer1"
     inkscape:window-width="1920"
     inkscape:window-height="1021"
     inkscape:window-x="0"
     inkscape:window-y="27"
     showgrid="false"
     fit-margin-top="0"
     fit-margin-left="0"
     fit-margin-right="0"
     fit-margin-bottom="0"
     inkscape:window-maximized="1" />
  <metadata
     id="metadata7">
    <rdf:RDF>
      <cc:Work
         rdf:about="">
        <dc:format>image/svg+xml</dc:format>
        <dc:type
           rdf:resource="http://purl.org/dc/dcmitype/StillImage" />
        <dc:title></dc:title>
      </cc:Work>
    </rdf:RDF>
  </metadata>
  <g
     inkscape:label="Layer 1"
     inkscape:groupmode="layer"
     id="layer1"
     transform="translate(-268.95903,-375.63652)">
    <g
       transform="translate(258.5991,387.1767)"
       style="font-size:40px;font-style:normal;font-variant:normal;font-weight:normal;font-stretch:normal;line-height:125%;letter-spacing:0px;word-spacing:0px;fill:#000000;fill-opacity:1;stroke:none;font-family:Cantarell;-inkscape-font-specification:Cantarell"
       id="text2990">
      <path
         d="m 24.69587,0.8816967 c -1.914078,1.68e-5 -3.541681,0.6770995 -4.882812,2.03125 -1.341158,1.3411593 -2.01173,2.9687618 -2.011719,4.8828125 -1.1e-5,1.9140705 0.670561,3.5416728 2.011719,4.8828128 1.341131,1.341149 2.968734,2.011721 4.882812,2.011718 1.914043,3e-6 3.541646,-0.670569 4.882813,-2.011718 1.354142,-1.34114 2.031225,-2.9687423 2.03125,-4.8828128 C 31.609908,5.8817085 30.939336,4.254106 29.598214,2.9129467 28.270068,1.5587962 26.635955,0.8817135 24.69587,0.8816967 m 0,-2.9296875 c 1.70571,-0.065084 3.053365,-0.4947714 4.042969,-1.2890625 1.119769,-0.8593531 1.992164,-1.8749771 2.617188,-3.046875 0.637995,-1.1718498 1.477838,-2.3241924 2.519531,-3.4570312 1.054659,-1.1327835 2.786428,-1.6991895 5.195312,-1.6992185 l 0,2.1093747 c -1.601593,2.71e-5 -2.949248,1.0156511 -4.042968,3.046875 -1.080757,2.031272 -2.473984,3.7500203 -4.179688,5.15625 -0.273461,0.24741449 -0.559919,0.46876844 -0.859375,0.6640625 0.598935,0.39064285 1.178361,0.85288197 1.738281,1.38671875 1.901015,1.94011905 2.851535,4.27735635 2.851563,7.01171875 -2.8e-5,2.7213613 -0.963569,5.0455773 -2.890625,6.9726563 -1.914086,1.914063 -4.244812,2.871094 -6.992188,2.871094 -2.708348,0 -5.026054,-0.957031 -6.953125,-2.871094 -1.927092,-1.927079 -2.890633,-4.251295 -2.890625,-6.9726563 -8e-6,-2.7343624 0.963533,-5.0715997 2.890625,-7.01171875 0.533843,-0.5468576 1.11327,-1.01560713 1.738282,-1.40625 -0.312513,-0.18227322 -0.605481,-0.39711676 -0.878907,-0.64453125 -1.679697,-1.4062297 -3.079435,-3.124978 -4.199218,-5.15625 -1.106778,-2.0312239 -2.454433,-3.0468479 -4.042969,-3.046875 l 0,-2.1093747 c 2.408848,2.9e-5 4.218742,0.566435 5.429687,1.6992185 1.210928,1.1328388 2.050771,2.2851814 2.519532,3.4570312 0.468738,1.1718979 1.256497,2.1875219 2.363281,3.046875 1.002589,0.7942911 2.343734,1.2239781 4.023437,1.2890625"
         style="font-family:Cantarell;-inkscape-font-specification:Cantarell"
         id="path3642" />
    </g>
  </g>
</svg>
