<?xml version="1.0" encoding="UTF-8" standalone="no"?>
<!-- Created with Inkscape (http://www.inkscape.org/) -->

<svg
   xmlns:dc="http://purl.org/dc/elements/1.1/"
   xmlns:cc="http://creativecommons.org/ns#"
   xmlns:rdf="http://www.w3.org/1999/02/22-rdf-syntax-ns#"
   xmlns:svg="http://www.w3.org/2000/svg"
   xmlns="http://www.w3.org/2000/svg"
   xmlns:sodipodi="http://sodipodi.sourceforge.net/DTD/sodipodi-0.dtd"
   xmlns:inkscape="http://www.inkscape.org/namespaces/inkscape"
   width="45.3125"
   height="43.28125"
   id="svg2"
   version="1.1"
   inkscape:version="0.48.4 r9939"
   sodipodi:docname="09 - Nyilas 1.svg">
  <defs
     id="defs4" />
  <sodipodi:namedview
     id="base"
     pagecolor="#ffffff"
     bordercolor="#666666"
     borderopacity="1.0"
     inkscape:pageopacity="0.0"
     inkscape:pageshadow="2"
     inkscape:zoom="0.7810999"
     inkscape:cx="45.853674"
     inkscape:cy="43.939263"
     inkscape:document-units="px"
     inkscape:current-layer="text3055"
     showgrid="false"
     fit-margin-top="0"
     fit-margin-left="0"
     fit-margin-right="0"
     fit-margin-bottom="0"
     inkscape:window-width="1920"
     inkscape:window-height="1021"
     inkscape:window-x="0"
     inkscape:window-y="27"
     inkscape:window-maximized="1" />
  <metadata
     id="metadata7">
    <rdf:RDF>
      <cc:Work
         rdf:about="">
        <dc:format>image/svg+xml</dc:format>
        <dc:type
           rdf:resource="http://purl.org/dc/dcmitype/StillImage" />
        <dc:title></dc:title>
      </cc:Work>
    </rdf:RDF>
  </metadata>
  <g
     inkscape:label="1. réteg"
     inkscape:groupmode="layer"
     id="layer1"
     transform="translate(-104.07089,-609.94491)">
    <g
       transform="translate(4.1941991,642.27564)"
       style="font-size:40px;font-style:normal;font-variant:normal;font-weight:normal;font-stretch:normal;line-height:125%;letter-spacing:0px;word-spacing:0px;fill:#000000;fill-opacity:1;stroke:none;font-family:Placidus Symbols;-inkscape-font-specification:Placidus Symbols"
       id="text3055">
      <g
         transform="translate(104.71732,-31.89033)"
         style="line-height:125%;fill:#000000;font-family:Placidus Symbols;-inkscape-font-specification:Placidus Symbols"
         id="text3289">
        <path
           d="m 3.8312473,25.321316 0,-1.230469 C 3.8312345,21.825236 3.4275891,18.596073 2.6203098,14.403347 1.8260282,10.210664 1.0838415,7.4567607 0.39374733,6.1416283 -0.56980273,4.3057222 -2.0932387,3.3877544 -4.1765652,3.387722 l -0.6640625,0 0,-2.91015623 2.65625,0 C 0.25050895,0.47760106 1.9562364,1.4476522 2.9328098,3.387722 4.0395677,5.6533771 5.0682125,9.5205608 6.0187473,14.989285 6.6827942,12.007537 7.56821,9.3057172 8.6749973,6.8838158 9.7947702,4.4619721 11.135915,2.3265575 12.698435,0.47756577 l 4.628906,-0.91796875 c 0.57289,1.25003496 1.100233,2.86461668 1.582031,4.84374998 0.481743,1.9661752 0.91794,4.2448188 1.308594,6.835938 l 0.644531,4.316406 0.410157,3.222656 c 0.299448,2.565119 0.657521,4.511731 1.074218,5.839844 2.265592,-4.348943 5.41012,-6.52342 9.433594,-6.523438 2.382769,1.8e-5 4.427038,0.83335 6.132813,2.5 1.70568,1.66668 2.558544,3.678397 2.558593,6.035157 -4.9e-5,2.500006 -0.859423,4.648442 -2.578125,6.445312 -1.718795,1.796876 -3.808636,2.695313 -6.269531,2.695313 -3.346391,0 -6.276076,-1.302083 -8.789062,-3.90625 -1.783885,4.674478 -3.365914,7.682287 -4.746094,9.023437 -0.67711,0.624994 -1.588567,1.106765 -2.734375,1.445313 -1.132836,0.338534 -2.480491,0.507805 -4.042969,0.507812 l -3.1835937,0 0,-2.949219 1.5039063,0 c 2.9947704,-4e-6 5.0585704,-0.605472 6.1914064,-1.816406 1.145807,-1.197918 2.61065,-4.40755 4.394531,-9.628906 -0.403675,-0.690096 -0.735705,-1.321606 -0.996094,-1.894531 -0.260444,-0.572907 -0.462267,-1.100251 -0.605468,-1.582032 -0.19534,-0.781238 -0.50784,-2.832017 -0.9375,-6.152343 L 16.799997,12.079128 C 16.214035,7.5739481 15.523931,4.5075449 14.729685,2.8799095 12.737476,5.2367109 11.005707,8.4658743 9.5343723,12.56741 8.0630011,16.65597 7.3273248,20.269248 7.3273411,23.407253 l 0,1.914063 -3.4960938,0 m 19.7851567,3.554687 c 2.578089,2.838546 5.162722,4.257815 7.753906,4.257813 1.770791,2e-6 3.242144,-0.611976 4.414062,-1.835938 1.18485,-1.236973 1.777298,-2.77343 1.777344,-4.609375 -4.6e-5,-1.614572 -0.566452,-3.00129 -1.699219,-4.160156 -1.119835,-1.171861 -2.480511,-1.757797 -4.082031,-1.757812 -3.4766,1.5e-5 -6.197951,2.701835 -8.164062,8.105468"
           id="path3294"
           inkscape:connector-curvature="0" />
      </g>
    </g>
  </g>
</svg>
