<?xml version="1.0" encoding="UTF-8" standalone="no"?>
<!-- Created with Inkscape (http://www.inkscape.org/) -->

<svg
   xmlns:dc="http://purl.org/dc/elements/1.1/"
   xmlns:cc="http://creativecommons.org/ns#"
   xmlns:rdf="http://www.w3.org/1999/02/22-rdf-syntax-ns#"
   xmlns:svg="http://www.w3.org/2000/svg"
   xmlns="http://www.w3.org/2000/svg"
   xmlns:sodipodi="http://sodipodi.sourceforge.net/DTD/sodipodi-0.dtd"
   xmlns:inkscape="http://www.inkscape.org/namespaces/inkscape"
   width="28.320312"
   height="29.21875"
   id="svg2"
   sodipodi:version="0.32"
   inkscape:version="0.48.4 r9939"
   version="1.0"
   sodipodi:docname="sign_saggitarius.svg">
  <defs
     id="defs4" />
  <sodipodi:namedview
     id="base"
     pagecolor="#ffffff"
     bordercolor="#666666"
     borderopacity="1.0"
     gridtolerance="10000"
     guidetolerance="10"
     objecttolerance="10"
     inkscape:pageopacity="0.0"
     inkscape:pageshadow="2"
     inkscape:zoom="1.979899"
     inkscape:cx="196.53228"
     inkscape:cy="-117.43194"
     inkscape:document-units="px"
     inkscape:current-layer="layer1"
     inkscape:window-width="1920"
     inkscape:window-height="1021"
     inkscape:window-x="0"
     inkscape:window-y="27"
     showgrid="false"
     fit-margin-top="0"
     fit-margin-left="0"
     fit-margin-right="0"
     fit-margin-bottom="0"
     inkscape:window-maximized="1" />
  <metadata
     id="metadata7">
    <rdf:RDF>
      <cc:Work
         rdf:about="">
        <dc:format>image/svg+xml</dc:format>
        <dc:type
           rdf:resource="http://purl.org/dc/dcmitype/StillImage" />
        <dc:title></dc:title>
      </cc:Work>
    </rdf:RDF>
  </metadata>
  <g
     inkscape:label="Layer 1"
     inkscape:groupmode="layer"
     id="layer1"
     transform="translate(-269.13481,-375.63652)">
    <g
       transform="translate(258.5991,387.1767)"
       style="font-size:40px;font-style:normal;font-variant:normal;font-weight:normal;font-stretch:normal;line-height:125%;letter-spacing:0px;word-spacing:0px;fill:#000000;fill-opacity:1;stroke:none;font-family:Cantarell;-inkscape-font-specification:Cantarell"
       id="text2990">
      <path
         d="m 23.406808,-11.540178 c 1.393211,2.9e-5 2.350241,2.8190365 2.871094,8.457031 0.533834,5.6380359 0.963521,8.4310019 1.289062,8.3789062 1.419249,-2.8775889 3.398413,-4.31638955 5.9375,-4.31640625 1.575493,1.67e-5 2.858043,0.61850565 3.847656,1.85546875 1.002573,1.2369928 1.503875,2.526054 1.503907,3.8671875 -3.2e-5,1.8880299 -0.468782,3.3919348 -1.40625,4.5117188 -0.924509,1.106776 -2.311227,1.660161 -4.160157,1.660156 -2.018253,5e-6 -3.821637,-0.86588 -5.410156,-2.597656 -0.572937,2.083339 -1.269551,3.828129 -2.089844,5.234375 -0.82033,1.39323 -2.128923,2.115885 -3.925781,2.167969 l -3.28125,0 0,-2.304688 3.007813,-0.01953 C 23.178927,15.302272 24.65679,12.828316 26.023995,7.932478 25.372935,7.7241546 24.839082,5.0548864 24.422433,-0.07533455 24.005749,-5.2185408 23.419812,-7.7901528 22.66462,-7.7901783 c -0.468765,2.55e-5 -1.204441,1.5234614 -2.207031,4.5703125 -1.002617,3.03387203 -1.503918,5.8203276 -1.503906,8.359375 -1.2e-5,0.1953248 -1.2e-5,0.3841267 0,0.5664063 l -3.085938,0.039063 c -9e-6,-3.2942557 -0.462248,-6.55597114 -1.386718,-9.7851563 -0.911465,-3.2291417 -2.226568,-4.8827859 -3.945313,-4.9609375 l 0,-1.8945312 c 1.914057,2.9e-5 3.39192,0.722684 4.433594,2.1679687 1.054678,1.4453375 1.842438,3.9583558 2.363281,7.5390625 0.598947,-2.617166 1.191395,-4.4986745 1.777344,-5.6445312 0.533841,-1.1848702 1.197903,-2.2655983 1.992187,-3.242188 0.794256,-0.976533 1.562485,-1.464814 2.304688,-1.464843 m 5.585937,19.2578122 c 1.210914,1.8880289 2.662736,2.8320388 4.355469,2.8320308 2.096326,8e-6 3.203095,-1.2825432 3.320313,-3.8476558 -0.09118,-2.0442578 -1.171904,-3.19009 -3.242188,-3.4375 -1.979191,1.44e-5 -3.457054,1.4843879 -4.433594,4.453125"
         style="font-family:Cantarell;-inkscape-font-specification:Cantarell"
         id="path3874" />
    </g>
  </g>
</svg>
