<?xml version="1.0" encoding="UTF-8" standalone="no"?>
<!-- Created with Inkscape (http://www.inkscape.org/) -->

<svg
   xmlns:dc="http://purl.org/dc/elements/1.1/"
   xmlns:cc="http://creativecommons.org/ns#"
   xmlns:rdf="http://www.w3.org/1999/02/22-rdf-syntax-ns#"
   xmlns:svg="http://www.w3.org/2000/svg"
   xmlns="http://www.w3.org/2000/svg"
   xmlns:sodipodi="http://sodipodi.sourceforge.net/DTD/sodipodi-0.dtd"
   xmlns:inkscape="http://www.inkscape.org/namespaces/inkscape"
   width="32.207031"
   height="29.257812"
   id="svg2"
   sodipodi:version="0.32"
   inkscape:version="0.48.4 r9939"
   version="1.0"
   sodipodi:docname="sign_aries.svg">
  <defs
     id="defs4" />
  <sodipodi:namedview
     id="base"
     pagecolor="#ffffff"
     bordercolor="#666666"
     borderopacity="1.0"
     gridtolerance="10000"
     guidetolerance="10"
     objecttolerance="10"
     inkscape:pageopacity="0.0"
     inkscape:pageshadow="2"
     inkscape:zoom="1.979899"
     inkscape:cx="319.66464"
     inkscape:cy="-120.89269"
     inkscape:document-units="px"
     inkscape:current-layer="layer1"
     inkscape:window-width="1920"
     inkscape:window-height="1021"
     inkscape:window-x="0"
     inkscape:window-y="27"
     showgrid="false"
     fit-margin-top="0"
     fit-margin-left="0"
     fit-margin-right="0"
     fit-margin-bottom="0"
     inkscape:window-maximized="1" />
  <metadata
     id="metadata7">
    <rdf:RDF>
      <cc:Work
         rdf:about="">
        <dc:format>image/svg+xml</dc:format>
        <dc:type
           rdf:resource="http://purl.org/dc/dcmitype/StillImage" />
        <dc:title></dc:title>
      </cc:Work>
    </rdf:RDF>
  </metadata>
  <g
     inkscape:label="Layer 1"
     inkscape:groupmode="layer"
     id="layer1">
    <path
       inkscape:connector-curvature="0"
       id="sign_aries"
       style="fill:#000000;fill-opacity:1;stroke:none"
       d="m 14.86328,29.25781 c -1e-5,-7.81249 -0.931,-14.23175 -2.79297,-19.25781 -1.86199,-5.03904 -3.89324,-7.55857 -6.09375,-7.55859 -1.67969,2e-5 -2.63021,0.64455 -2.85156,1.93359 -0.22136,1.27606 -0.33203,2.13544 -0.33203,2.57812 0,1.66669 0.54687,3.33336 1.64062,5 l -2.61718,0 c -1.21094,-1.71873 -1.81641,-3.62628 -1.81641,-5.72265 0,-1.71873 0.52734,-3.18357 1.58203,-4.39453 1.06771,-1.22393 2.55208,-1.83591 4.45313,-1.83594 4.84373,3e-5 8.11847,5.03258 9.82422,15.09766 0.10414,0.63803 0.18878,1.21746 0.2539,1.73828 0.0521,-0.52082 0.13019,-1.10025 0.23438,-1.73828 1.71873,-10.06508 4.99346,-15.09763 9.82422,-15.09766 1.91403,3e-5 3.3984,0.61201 4.45312,1.83594 1.05465,1.21096 1.582,2.6758 1.58203,4.39453 -3e-5,2.09637 -0.6055,4.00392 -1.8164,5.72265 l -2.61719,0 c 1.10674,-1.66664 1.66012,-3.33982 1.66015,-5.01953 -3e-5,-0.44268 -0.1107,-1.30206 -0.33203,-2.57812 -0.22138,-1.27602 -1.17841,-1.91404 -2.87109,-1.91406 -2.18753,2e-5 -4.21226,2.51955 -6.07422,7.55859 -1.862,5.02606 -2.79299,11.44532 -2.79297,19.25781 l -2.5,0" />
  </g>
</svg>
