<?xml version="1.0" encoding="UTF-8" standalone="no"?>
<!-- Created with Inkscape (http://www.inkscape.org/) -->

<svg
   xmlns:dc="http://purl.org/dc/elements/1.1/"
   xmlns:cc="http://creativecommons.org/ns#"
   xmlns:rdf="http://www.w3.org/1999/02/22-rdf-syntax-ns#"
   xmlns:svg="http://www.w3.org/2000/svg"
   xmlns="http://www.w3.org/2000/svg"
   xmlns:sodipodi="http://sodipodi.sourceforge.net/DTD/sodipodi-0.dtd"
   xmlns:inkscape="http://www.inkscape.org/namespaces/inkscape"
   width="23.300781"
   height="29.21875"
   id="svg2"
   sodipodi:version="0.32"
   inkscape:version="0.48.4 r9939"
   version="1.0"
   sodipodi:docname="sign_aquarius.svg">
  <defs
     id="defs4" />
  <sodipodi:namedview
     id="base"
     pagecolor="#ffffff"
     bordercolor="#666666"
     borderopacity="1.0"
     gridtolerance="10000"
     guidetolerance="10"
     objecttolerance="10"
     inkscape:pageopacity="0.0"
     inkscape:pageshadow="2"
     inkscape:zoom="1.979899"
     inkscape:cx="193.46588"
     inkscape:cy="-137.95927"
     inkscape:document-units="px"
     inkscape:current-layer="layer1"
     inkscape:window-width="1920"
     inkscape:window-height="1021"
     inkscape:window-x="0"
     inkscape:window-y="27"
     showgrid="false"
     fit-margin-top="0"
     fit-margin-left="0"
     fit-margin-right="0"
     fit-margin-bottom="0"
     inkscape:window-maximized="1" />
  <metadata
     id="metadata7">
    <rdf:RDF>
      <cc:Work
         rdf:about="">
        <dc:format>image/svg+xml</dc:format>
        <dc:type
           rdf:resource="http://purl.org/dc/dcmitype/StillImage" />
        <dc:title></dc:title>
      </cc:Work>
    </rdf:RDF>
  </metadata>
  <g
     inkscape:label="Layer 1"
     inkscape:groupmode="layer"
     id="layer1"
     transform="translate(-271.65435,-375.63652)">
    <g
       transform="translate(258.5991,387.1767)"
       style="font-size:40px;font-style:normal;font-variant:normal;font-weight:normal;font-stretch:normal;line-height:125%;letter-spacing:0px;word-spacing:0px;fill:#000000;fill-opacity:1;stroke:none;font-family:Cantarell;-inkscape-font-specification:Cantarell"
       id="text2990">
      <path
         d="M 27.059152,4.6902905 22.35212,4.7488842 C 21.935439,9.1499344 19.917211,13.440295 16.297433,17.619978 l -3.222656,0.05859 c 3.997385,-4.570308 6.171862,-8.8801998 6.523437,-12.9296878 l -5.78125,0 0,-3.359375 5.78125,0 c -0.364596,-4.036438 -2.545583,-8.3463295 -6.542969,-12.9296872 l 3.242188,0.05859 c 3.619778,4.1666921 5.638006,8.4570524 6.054687,12.8710942 l 4.726563,0 c 0.403625,-4.4140418 2.421852,-8.7044021 6.054687,-12.8710942 l 3.222657,-0.05859 c -3.997422,4.5833577 -6.171899,8.8932492 -6.523438,12.9296872 l 5.761719,0 -0.01953,3.359375 -5.78125,0 c 0.37758,4.049488 2.565078,8.3593798 6.5625,12.9296878 l -3.242188,-0.05859 C 29.481004,13.440295 27.462777,9.1499344 27.059152,4.7488842 l 0,-0.058594"
         style="font-family:Cantarell;-inkscape-font-specification:Cantarell"
         id="path3934" />
    </g>
  </g>
</svg>
