<?xml version="1.0" encoding="UTF-8" standalone="no"?>
<!-- Created with Inkscape (http://www.inkscape.org/) -->

<svg
   xmlns:dc="http://purl.org/dc/elements/1.1/"
   xmlns:cc="http://creativecommons.org/ns#"
   xmlns:rdf="http://www.w3.org/1999/02/22-rdf-syntax-ns#"
   xmlns:svg="http://www.w3.org/2000/svg"
   xmlns="http://www.w3.org/2000/svg"
   xmlns:sodipodi="http://sodipodi.sourceforge.net/DTD/sodipodi-0.dtd"
   xmlns:inkscape="http://www.inkscape.org/namespaces/inkscape"
   width="31.582031"
   height="36.425781"
   id="svg2"
   sodipodi:version="0.32"
   inkscape:version="0.48.4 r9939"
   version="1.0"
   sodipodi:docname="sign_virgo.svg">
  <defs
     id="defs4" />
  <sodipodi:namedview
     id="base"
     pagecolor="#ffffff"
     bordercolor="#666666"
     borderopacity="1.0"
     gridtolerance="10000"
     guidetolerance="10"
     objecttolerance="10"
     inkscape:pageopacity="0.0"
     inkscape:pageshadow="2"
     inkscape:zoom="1.979899"
     inkscape:cx="319.35214"
     inkscape:cy="-150.97079"
     inkscape:document-units="px"
     inkscape:current-layer="layer1"
     inkscape:window-width="1920"
     inkscape:window-height="1021"
     inkscape:window-x="0"
     inkscape:window-y="27"
     showgrid="false"
     fit-margin-top="0"
     fit-margin-left="0"
     fit-margin-right="0"
     fit-margin-bottom="0"
     inkscape:window-maximized="1" />
  <metadata
     id="metadata7">
    <rdf:RDF>
      <cc:Work
         rdf:about="">
        <dc:format>image/svg+xml</dc:format>
        <dc:type
           rdf:resource="http://purl.org/dc/dcmitype/StillImage" />
        <dc:title></dc:title>
      </cc:Work>
    </rdf:RDF>
  </metadata>
  <g
     inkscape:label="Layer 1"
     inkscape:groupmode="layer"
     id="layer1">
    <path
       inkscape:connector-curvature="0"
       id="sign_virgo"
       style="font-size:40px;font-style:normal;font-variant:normal;font-weight:normal;font-stretch:normal;line-height:125%;letter-spacing:0px;word-spacing:0px;fill:#000000;fill-opacity:1;stroke:none;font-family:Cantarell;-inkscape-font-specification:Cantarell"
       d="m 11.15234,0 c 0.8203,3e-5 1.61457,0.64456 2.38282,1.9336 0.78123,1.28908 1.17185,2.76695 1.17187,4.43359 0.52082,-1.54946 1.42577,-2.99477 2.71485,-4.33594 1.28904,-1.35414 2.42185,-2.03122 3.39843,-2.03125 0.80727,3e-5 1.47784,0.5469 2.01172,1.64063 0.53383,1.08075 0.80076,3.0469 0.80078,5.89843 l 0,3.94532 c 0.62498,-1.62759 1.36065,-2.8255 2.20703,-3.59375 0.85935,-0.78123 1.73174,-1.17186 2.61719,-1.17188 0.78122,2e-5 1.49736,0.75523 2.14844,2.26563 0.65101,1.51043 0.97653,4.04298 0.97656,7.59765 -3e-5,5.31251 -2.4805,10.0586 -7.4414,14.23828 0.013,1.22396 0.97002,3.09245 2.87109,5.60547 l -3.28125,0 c -0.59898,-0.53386 -1.38023,-1.84896 -2.34375,-3.94531 -2.1745,1.3151 -4.40106,2.01822 -6.67969,2.10937 l 0,-2.26562 c 2.48696,-0.36459 4.53774,-1.11328 6.15235,-2.24609 l -0.17579,-4.23829 0,-16.69921 c -2e-5,-0.23436 -2e-5,-0.46222 0,-0.6836 -2e-5,-3.65883 -0.2995,-5.49476 -0.89843,-5.50781 -0.75523,0.0131 -1.56903,0.72919 -2.44141,2.14844 -0.85939,1.40627 -1.69924,3.41148 -2.51953,6.01562 l 0,18.10547 -2.94922,0 0,-18.00781 c -10e-6,-4.17967 -0.10418,-6.61456 -0.3125,-7.30469 -0.19533,-0.69008 -0.52085,-1.03513 -0.97656,-1.03515 l -0.0195,0 -0.0195,0 c -0.53387,2e-5 -1.38673,0.7357 -2.5586,2.20703 -1.15886,1.47137 -1.86198,3.60679 -2.10937,6.40625 l 0,17.73437 -2.91016,0 0,-21.26953 c 0,-2.47393 -0.98958,-4.9544 -2.96875,-7.44141 l 2.77344,0 c 1.53645,1.02868 2.53906,2.68883 3.00781,4.98047 0.29947,-1.21091 1.04166,-2.42836 2.22657,-3.65234 1.1979,-1.22393 2.24608,-1.83591 3.14453,-1.83594 m 12.48047,17.14844 0,10.9375 c 3.35934,-3.25521 5.19528,-7.08333 5.50781,-11.48438 -3e-5,-2.513 -0.14977,-4.21873 -0.44922,-5.11718 -0.28649,-0.91144 -0.61201,-1.36717 -0.97656,-1.36719 l -0.0781,0 c -0.39066,2e-5 -1.05472,0.67059 -1.99219,2.01172 -0.9245,1.34116 -1.59508,3.01433 -2.01172,5.01953" />
  </g>
</svg>
