<?xml version="1.0" encoding="UTF-8" standalone="no"?>
<!-- Created with Inkscape (http://www.inkscape.org/) -->

<svg
   xmlns:dc="http://purl.org/dc/elements/1.1/"
   xmlns:cc="http://creativecommons.org/ns#"
   xmlns:rdf="http://www.w3.org/1999/02/22-rdf-syntax-ns#"
   xmlns:svg="http://www.w3.org/2000/svg"
   xmlns="http://www.w3.org/2000/svg"
   xmlns:sodipodi="http://sodipodi.sourceforge.net/DTD/sodipodi-0.dtd"
   xmlns:inkscape="http://www.inkscape.org/namespaces/inkscape"
   width="33.183594"
   height="33.046875"
   id="svg2"
   sodipodi:version="0.32"
   inkscape:version="0.48.4 r9939"
   version="1.0"
   sodipodi:docname="sign_libra.svg">
  <defs
     id="defs4" />
  <sodipodi:namedview
     id="base"
     pagecolor="#ffffff"
     bordercolor="#666666"
     borderopacity="1.0"
     gridtolerance="10000"
     guidetolerance="10"
     objecttolerance="10"
     inkscape:pageopacity="0.0"
     inkscape:pageshadow="2"
     inkscape:zoom="1.979899"
     inkscape:cx="320.11386"
     inkscape:cy="-163.64657"
     inkscape:document-units="px"
     inkscape:current-layer="layer1"
     inkscape:window-width="1920"
     inkscape:window-height="1021"
     inkscape:window-x="0"
     inkscape:window-y="27"
     showgrid="false"
     fit-margin-top="0"
     fit-margin-left="0"
     fit-margin-right="0"
     fit-margin-bottom="0"
     inkscape:window-maximized="1" />
  <metadata
     id="metadata7">
    <rdf:RDF>
      <cc:Work
         rdf:about="">
        <dc:format>image/svg+xml</dc:format>
        <dc:type
           rdf:resource="http://purl.org/dc/dcmitype/StillImage" />
        <dc:title></dc:title>
      </cc:Work>
    </rdf:RDF>
  </metadata>
  <g
     inkscape:label="Layer 1"
     inkscape:groupmode="layer"
     id="layer1"
     transform="translate(-266.73247,-375.63652)">
    <g
       transform="translate(258.5991,387.1767)"
       style="font-size:40px;font-style:normal;font-variant:normal;font-weight:normal;font-stretch:normal;line-height:125%;letter-spacing:0px;word-spacing:0px;fill:#000000;fill-opacity:1;stroke:none;font-family:Cantarell;-inkscape-font-specification:Cantarell"
       id="text2990">
      <path
         d="m 31.785714,12.385603 c -2.5e-5,1.445316 0.332006,2.578128 0.996094,3.398437 0.677057,0.807293 1.595024,1.217449 2.753906,1.230469 l 1.738281,0 0,-2.304687 0.07813,0 3.964844,3.378906 -3.964844,3.417969 -0.07813,-0.07813 0,-2.304688 -1.738281,0 c -2.643255,-1e-6 -4.407576,-0.78125 -5.292969,-2.34375 -0.572939,-0.96354 -0.91148,-2.213538 -1.015625,-3.75 L 28.816964,-2.3995533 c -2.2e-5,-0.2343547 -2.2e-5,-0.462219 0,-0.6835937 -2.2e-5,-3.6588298 -0.299501,-5.4947655 -0.898437,-5.5078125 -0.755229,0.013047 -1.56903,0.7291922 -2.441407,2.1484375 -0.859392,1.4062727 -1.699235,3.411479 -2.519531,6.01562495 l 0,18.10546905 -2.949219,0 0,-18.0078128 c -1.3e-5,-4.1796653 -0.104179,-6.6145587 -0.3125,-7.3046875 -0.195325,-0.6900782 -0.520845,-1.0351299 -0.976562,-1.0351562 l -0.01953,0 -0.01953,0 c -0.533865,2.63e-5 -1.386729,0.7357026 -2.558593,2.2070312 -1.158863,1.4713768 -1.861987,3.6067914 -2.109375,6.40625 l 0,17.7343753 -2.910157,0 0,-21.2695315 c -4e-6,-2.4739346 -0.989586,-4.9544009 -2.9687496,-7.4414065 l 2.7734376,0 c 1.536453,1.028674 2.539056,2.6888283 3.007812,4.980469 0.299472,-1.2109126 1.041659,-2.4283593 2.226563,-3.6523438 1.197906,-1.2239302 2.246082,-1.8359082 3.144531,-1.8359372 0.820299,2.9e-5 1.614569,0.64456 2.382813,1.9335935 0.781234,1.2890884 1.171859,2.7669516 1.171875,4.4335937 0.520816,-1.5494548 1.425763,-2.9947658 2.714843,-4.3359375 1.289043,-1.3541377 2.421854,-2.0312207 3.398438,-2.0312497 0.807269,2.9e-5 1.477841,0.546903 2.011719,1.6406247 0.533829,1.0807557 0.800756,3.0468995 0.800781,5.8984375 l 0,3.9453125 0.01953,12.4218753 0,0.01953"
         style="font-family:Cantarell;-inkscape-font-specification:Cantarell"
         id="path3814" />
    </g>
  </g>
</svg>
