<?xml version="1.0" encoding="UTF-8" standalone="no"?>
<!-- Created with Inkscape (http://www.inkscape.org/) -->

<svg
   xmlns:dc="http://purl.org/dc/elements/1.1/"
   xmlns:cc="http://creativecommons.org/ns#"
   xmlns:rdf="http://www.w3.org/1999/02/22-rdf-syntax-ns#"
   xmlns:svg="http://www.w3.org/2000/svg"
   xmlns="http://www.w3.org/2000/svg"
   xmlns:sodipodi="http://sodipodi.sourceforge.net/DTD/sodipodi-0.dtd"
   xmlns:inkscape="http://www.inkscape.org/namespaces/inkscape"
   width="26.835938"
   height="25.917969"
   id="svg2"
   sodipodi:version="0.32"
   inkscape:version="0.48.4 r9939"
   version="1.0"
   sodipodi:docname="sign_gemini.svg">
  <defs
     id="defs4" />
  <sodipodi:namedview
     id="base"
     pagecolor="#ffffff"
     bordercolor="#666666"
     borderopacity="1.0"
     gridtolerance="10000"
     guidetolerance="10"
     objecttolerance="10"
     inkscape:pageopacity="0.0"
     inkscape:pageshadow="2"
     inkscape:zoom="1.979899"
     inkscape:cx="316.96933"
     inkscape:cy="-143.76377"
     inkscape:document-units="px"
     inkscape:current-layer="layer1"
     inkscape:window-width="1920"
     inkscape:window-height="1021"
     inkscape:window-x="0"
     inkscape:window-y="27"
     showgrid="false"
     fit-margin-top="0"
     fit-margin-left="0"
     fit-margin-right="0"
     fit-margin-bottom="0"
     inkscape:window-maximized="1" />
  <metadata
     id="metadata7">
    <rdf:RDF>
      <cc:Work
         rdf:about="">
        <dc:format>image/svg+xml</dc:format>
        <dc:type
           rdf:resource="http://purl.org/dc/dcmitype/StillImage" />
        <dc:title></dc:title>
      </cc:Work>
    </rdf:RDF>
  </metadata>
  <g
     inkscape:label="Layer 1"
     inkscape:groupmode="layer"
     id="layer1"
     transform="translate(-269.89653,-377.6873)">
    <g
       transform="translate(258.5991,387.1767)"
       style="font-size:40px;font-style:normal;font-variant:normal;font-weight:normal;font-stretch:normal;line-height:125%;letter-spacing:0px;word-spacing:0px;fill:#000000;fill-opacity:1;stroke:none;font-family:Cantarell;-inkscape-font-specification:Cantarell"
       id="text2990">
      <path
         d="M 34.363839,5.3738842 C 33.504437,4.5145224 32.456261,4.0848353 31.219308,4.0848217 c -1.237002,1.36e-5 -2.285178,0.4297007 -3.144531,1.2890625 -0.859396,0.8593864 -1.289083,1.9075625 -1.289063,3.1445313 -2e-5,1.236987 0.429667,2.2916735 1.289063,3.1640625 0.859353,0.85938 1.907529,1.289067 3.144531,1.289062 1.223933,5e-6 2.265598,-0.429682 3.125,-1.289062 0.872367,-0.872389 1.308565,-1.9270755 1.308594,-3.1640625 -2.9e-5,-1.2369688 -0.429716,-2.2851449 -1.289063,-3.1445313 m -6.875,11.0546878 c -4.062516,-0.02604 -7.278659,-0.16927 -9.648437,-0.429688 -2.369801,-0.260415 -4.550788,-0.67057 -6.542969,-1.230469 l 0,-2.421875 c 3.294263,1.093755 6.126291,1.712244 8.496094,1.855469 2.369776,0.143233 3.938785,0.214847 4.707031,0.214844 1.692689,3e-6 2.486959,-0.169267 2.382812,-0.507813 -1.705747,-1.406244 -2.558611,-3.196607 -2.558593,-5.3710933 -1.8e-5,-1.9140514 0.664044,-3.541654 1.992187,-4.8828125 1.341125,-1.3541513 2.968728,-2.0312339 4.882813,-2.03125 1.940077,1.61e-5 3.580701,0.6770987 4.921875,2.03125 1.341115,1.3411585 2.011687,2.9687611 2.011718,4.8828125 -3.1e-5,1.9140693 -0.677114,3.5416723 -2.03125,4.8828123 -0.950549,1.002608 -2.226589,1.751305 -3.828125,2.246094 -1.601586,0.494793 -3.196636,0.748699 -4.785156,0.761719 M 18.211495,2.854353 c 1.223946,1.48e-5 2.265612,-0.4296723 3.125,-1.2890625 0.872381,-0.85935808 1.308578,-1.90753411 1.308594,-3.1445313 -1.6e-5,-1.2369587 -0.436213,-2.2851347 -1.308594,-3.1445312 -0.859388,-0.8593518 -1.901054,-1.2890389 -3.125,-1.2890625 -1.223968,2.36e-5 -2.272144,0.4297107 -3.144531,1.2890625 -0.872403,0.8593965 -1.308601,1.9075725 -1.308594,3.1445312 -7e-6,1.23699719 0.42968,2.28517322 1.289063,3.1445313 0.872387,0.8593902 1.927073,1.2890773 3.164062,1.2890625 m 3.710938,-12.34375 c 4.075502,0.026069 7.298155,0.1758082 9.667969,0.4492187 2.369764,0.2604431 4.550752,0.670599 6.542968,1.2304688 l 0,2.4023437 c -3.294298,-1.0937258 -6.119816,-1.7057044 -8.476562,-1.8359375 -2.356791,-0.1432041 -3.912779,-0.2148186 -4.667969,-0.2148437 -1.731787,2.51e-5 -2.545588,0.1692958 -2.441406,0.5078125 1.705712,1.4062732 2.558575,3.1901256 2.558594,5.3515625 -1.9e-5,1.92710063 -0.670591,3.567724 -2.011719,4.921875 -1.32814,1.3411588 -2.949232,2.011731 -4.863281,2.0117187 C 16.290913,5.334834 14.65029,4.6642618 13.309152,3.323103 11.968001,1.968952 11.297428,0.32832863 11.297433,-1.598772 c -5e-6,-1.9010205 0.677078,-3.5221127 2.03125,-4.8632813 0.950513,-1.002579 2.220043,-1.7512762 3.808594,-2.2460937 1.60155,-0.5077857 3.196601,-0.7682021 4.785156,-0.78125"
         style="font-family:Cantarell;-inkscape-font-specification:Cantarell"
         id="path3702" />
    </g>
  </g>
</svg>
