<?xml version="1.0" encoding="UTF-8" standalone="no"?>
<!-- Created with Inkscape (http://www.inkscape.org/) -->

<svg
   xmlns:dc="http://purl.org/dc/elements/1.1/"
   xmlns:cc="http://creativecommons.org/ns#"
   xmlns:rdf="http://www.w3.org/1999/02/22-rdf-syntax-ns#"
   xmlns:svg="http://www.w3.org/2000/svg"
   xmlns="http://www.w3.org/2000/svg"
   xmlns:sodipodi="http://sodipodi.sourceforge.net/DTD/sodipodi-0.dtd"
   xmlns:inkscape="http://www.inkscape.org/namespaces/inkscape"
   width="28.320312"
   height="29.21875"
   id="svg2"
   sodipodi:version="0.32"
   inkscape:version="0.48.4 r9939"
   version="1.0"
   sodipodi:docname="sign_capricorn.svg">
  <defs
     id="defs4" />
  <sodipodi:namedview
     id="base"
     pagecolor="#ffffff"
     bordercolor="#666666"
     borderopacity="1.0"
     gridtolerance="10000"
     guidetolerance="10"
     objecttolerance="10"
     inkscape:pageopacity="0.0"
     inkscape:pageshadow="2"
     inkscape:zoom="1.979899"
     inkscape:cx="196.53228"
     inkscape:cy="-117.43194"
     inkscape:document-units="px"
     inkscape:current-layer="layer1"
     inkscape:window-width="1920"
     inkscape:window-height="1021"
     inkscape:window-x="0"
     inkscape:window-y="27"
     showgrid="false"
     fit-margin-top="0"
     fit-margin-left="0"
     fit-margin-right="0"
     fit-margin-bottom="0"
     inkscape:window-maximized="1" />
  <metadata
     id="metadata7">
    <rdf:RDF>
      <cc:Work
         rdf:about="">
        <dc:format>image/svg+xml</dc:format>
        <dc:type
           rdf:resource="http://purl.org/dc/dcmitype/StillImage" />
        <dc:title></dc:title>
      </cc:Work>
    </rdf:RDF>
  </metadata>
  <g
     inkscape:label="Layer 1"
     inkscape:groupmode="layer"
     id="layer1">
    <path
       inkscape:connector-curvature="0"
       id="sign_capricorn"
       style="font-size:40px;font-style:normal;font-variant:normal;font-weight:normal;font-stretch:normal;line-height:125%;letter-spacing:0px;word-spacing:0px;fill:#000000;fill-opacity:1;stroke:none;font-family:Cantarell;-inkscape-font-specification:Cantarell"
       d="m 12.8711,0 c 1.39321,3e-5 2.35024,2.81904 2.87109,8.45703 0.53384,5.63804 0.96352,8.431 1.28906,8.37891 1.41925,-2.87759 3.39842,-4.31639 5.9375,-4.31641 1.5755,2e-5 2.85805,0.61851 3.84766,1.85547 1.00257,1.23699 1.50388,2.52606 1.50391,3.86719 -3e-5,1.88803 -0.46878,3.39193 -1.40625,4.51172 -0.92451,1.10677 -2.31123,1.66016 -4.16016,1.66015 -2.01825,10e-6 -3.82164,-0.86588 -5.41016,-2.59765 -0.57293,2.08334 -1.26955,3.82813 -2.08984,5.23437 -0.82033,1.39323 -2.12892,2.11589 -3.92578,2.16797 l -3.28125,0 0,-2.30469 3.00781,-0.0195 c 1.58853,-0.0521 3.06639,-2.52603 4.4336,-7.42187 -0.65107,-0.20833 -1.18492,-2.87759 -1.60157,-8.00781 -0.41668,-5.14321 -1.00262,-7.71482 -1.75781,-7.71485 -0.46876,3e-5 -1.20444,1.52346 -2.20703,4.57031 -1.00262,3.03388 -1.50392,5.82033 -1.50391,8.35938 -10e-6,0.19532 -10e-6,0.38413 0,0.56641 l -3.08593,0.0391 c -1e-5,-3.29426 -0.46225,-6.55597 -1.38672,-9.78516 -0.91147,-3.22914 -2.22657,-4.88278 -3.94532,-4.96094 l 0,-1.89453 c 1.91406,3e-5 3.39192,0.72269 4.4336,2.16797 1.05468,1.44534 1.84244,3.95836 2.36328,7.53906 0.59895,-2.61716 1.19139,-4.49867 1.77734,-5.64453 0.53384,-1.18487 1.19791,-2.26559 1.99219,-3.24219 0.79426,-0.97653 1.56249,-1.46481 2.30469,-1.46484 m 5.58594,19.25781 c 1.21091,1.88803 2.66273,2.83204 4.35546,2.83203 2.09633,10e-6 3.2031,-1.28254 3.32032,-3.84765 -0.0912,-2.04426 -1.17191,-3.19009 -3.24219,-3.4375 -1.97919,10e-6 -3.45705,1.48439 -4.43359,4.45312" />
  </g>
</svg>
