<?xml version="1.0" encoding="UTF-8" standalone="no"?>
<!-- Created with Inkscape (http://www.inkscape.org/) -->

<svg
   xmlns:dc="http://purl.org/dc/elements/1.1/"
   xmlns:cc="http://creativecommons.org/ns#"
   xmlns:rdf="http://www.w3.org/1999/02/22-rdf-syntax-ns#"
   xmlns:svg="http://www.w3.org/2000/svg"
   xmlns="http://www.w3.org/2000/svg"
   xmlns:sodipodi="http://sodipodi.sourceforge.net/DTD/sodipodi-0.dtd"
   xmlns:inkscape="http://www.inkscape.org/namespaces/inkscape"
   width="29.257812"
   height="29.160156"
   id="svg2"
   sodipodi:version="0.32"
   inkscape:version="0.48.4 r9939"
   version="1.0"
   sodipodi:docname="planet_desc_node.svg">
  <defs
     id="defs4" />
  <sodipodi:namedview
     id="base"
     pagecolor="#ffffff"
     bordercolor="#666666"
     borderopacity="1.0"
     gridtolerance="10000"
     guidetolerance="10"
     objecttolerance="10"
     inkscape:pageopacity="0.0"
     inkscape:pageshadow="2"
     inkscape:zoom="1.979899"
     inkscape:cx="318.18027"
     inkscape:cy="-104.62318"
     inkscape:document-units="px"
     inkscape:current-layer="layer1"
     inkscape:window-width="1920"
     inkscape:window-height="1021"
     inkscape:window-x="0"
     inkscape:window-y="27"
     showgrid="false"
     fit-margin-top="0"
     fit-margin-left="0"
     fit-margin-right="0"
     fit-margin-bottom="0"
     inkscape:window-maximized="1" />
  <metadata
     id="metadata7">
    <rdf:RDF>
      <cc:Work
         rdf:about="">
        <dc:format>image/svg+xml</dc:format>
        <dc:type
           rdf:resource="http://purl.org/dc/dcmitype/StillImage" />
        <dc:title></dc:title>
      </cc:Work>
    </rdf:RDF>
  </metadata>
  <g
     inkscape:label="Layer 1"
     inkscape:groupmode="layer"
     id="layer1"
     transform="translate(-268.6856,-375.69512)">
    <g
       transform="translate(258.5991,387.1767)"
       style="font-size:40px;font-style:normal;font-variant:normal;font-weight:normal;font-stretch:normal;line-height:125%;letter-spacing:0px;word-spacing:0px;fill:#000000;fill-opacity:1;stroke:none;font-family:Cantarell;-inkscape-font-specification:Cantarell"
       id="text2990">
      <path
         d="m 14.031808,-8.239397 0,10.9570312 4.960937,0 c 1.835924,1.5e-5 3.255193,-0.475245 4.257813,-1.4257812 1.002587,-0.95050355 1.503888,-2.3046689 1.503906,-4.0625 -1.8e-5,-1.7447695 -0.501319,-3.0924244 -1.503906,-4.0429688 -1.00262,-0.9504954 -2.421889,-1.4257553 -4.257813,-1.4257812 l -4.960937,0 M 24.617745,4.9051342 c -1.497412,0.7031371 -3.37241,1.0546992 -5.625,1.0546875 l -4.960937,0 0,11.7187503 -3.945313,0 0,-29.160157 8.90625,0 c 3.268214,3e-5 5.73566,0.742216 7.402344,2.226563 1.679666,1.4713796 2.519509,3.6328358 2.519531,6.484375 -2.2e-5,2.23960149 -0.507834,4.0560059 -1.523437,5.4492187 l 3.398437,4.2773438 3.710938,-4.5703125 4.53125,0 -5.996094,7.3828125 6.308594,7.9101565 -4.550781,0 -4.042969,-5.078125 -4.140625,5.078125 -4.53125,0 6.425781,-7.9101565 -3.886719,-4.8632813"
         style="font-family:Cantarell;-inkscape-font-specification:Cantarell"
         id="path3503" />
    </g>
  </g>
</svg>
